0
SECTION
2
HEADER
9
$INSUNITS
70
4
9
$ACADVER
1
AC1014
9
$HANDSEED
5
FFFF
0
ENDSEC
0
SECTION
2
TABLES
0
TABLE
2
VPORT
5
8
100
AcDbSymbolTable
0
ENDTAB
0
TABLE
2
LTYPE
5
5
100
AcDbSymbolTable
0
LTYPE
5
14
100
AcDbSymbolTableRecord
100
AcDbLinetypeTableRecord
2
BYBLOCK
70
0
0
LTYPE
5
15
100
AcDbSymbolTableRecord
100
AcDbLinetypeTableRecord
2
BYLAYER
70
0
0
ENDTAB
0
TABLE
2
LAYER
5
2
100
AcDbSymbolTable
70
2
0
LAYER
5
50
100
AcDbSymbolTableRecord
100
AcDbLayerTableRecord
2
0
70
0
6
CONTINUOUS
0
ENDTAB
0
TABLE
2
STYLE
5
3
100
AcDbSymbolTable
70
1
0
STYLE
5
11
100
AcDbSymbolTableRecord
100
AcDbTextStyleTableRecord
2
STANDARD
70
0
0
ENDTAB
0
TABLE
2
VIEW
5
6
100
AcDbSymbolTable
70
0
0
ENDTAB
0
TABLE
2
UCS
5
7
100
AcDbSymbolTable
70
0
0
ENDTAB
0
TABLE
2
APPID
5
9
100
AcDbSymbolTable
70
2
0
APPID
5
12
100
AcDbSymbolTableRecord
100
AcDbRegAppTableRecord
2
ACAD
70
0
0
ENDTAB
0
TABLE
2
DIMSTYLE
5
A
100
AcDbSymbolTable
70
1
0
ENDTAB
0
TABLE
2
BLOCK_RECORD
5
1
100
AcDbSymbolTable
70
1
0
BLOCK_RECORD
5
1F
100
AcDbSymbolTableRecord
100
AcDbBlockTableRecord
2
*MODEL_SPACE
0
BLOCK_RECORD
5
1B
100
AcDbSymbolTableRecord
100
AcDbBlockTableRecord
2
*PAPER_SPACE
0
ENDTAB
0
ENDSEC
0
SECTION
2
BLOCKS
0
BLOCK
5
20
100
AcDbEntity
100
AcDbBlockBegin
2
*MODEL_SPACE
0
ENDBLK
5
21
100
AcDbEntity
100
AcDbBlockEnd
0
BLOCK
5
1C
100
AcDbEntity
100
AcDbBlockBegin
2
*PAPER_SPACE
0
ENDBLK
5
1D
100
AcDbEntity
100
AcDbBlockEnd
0
ENDSEC
0
SECTION
2
ENTITIES
0
LWPOLYLINE
5
100
100
AcDbEntity
8
0
100
AcDbPolyline
90
14
70
1
43
0.0
10
45.430632339327282
20
216.1675125323149
10
45.430632339333911
20
209.34728897808267
10
82.79476395752252
20
209.44669123336161
10
94.853299384410292
20
246.08089406506761
10
94.809403505206575
20
262.58083567566143
10
74.529630341545371
20
299.45004036803215
10
5.6601705486262599
20
299.26682241737251
10
5.8996691760262943
20
209.24212215841888
10
8.930632816171105
20
209.25018563021527
10
8.9306328161644064
20
216.16751253227935
10
21.680632816164472
20
216.16751253229182
10
21.680632816171126
20
209.28410529326959
10
32.680632339333883
20
209.3133693150283
10
32.680632339327225
20
216.16751253230248
0
ELLIPSE
5
101
100
AcDbEntity
8
0
100
AcDbEllipse
10
31.486133104012616
20
261.82233677816953
30
-3.979039320256561e-12
11
-0.0006650867248027912
21
-0.24999999998747355
31
0.0
40
0.99999646144624654
41
0
42
6.2831853071795862
0
ELLIPSE
5
102
100
AcDbEntity
8
0
100
AcDbEllipse
10
26.406133103885526
20
261.82233682598951
30
-3.979039320256561e-12
11
-0.0006650867248027912
21
-0.24999999998747355
31
0.0
40
0.99999646144624654
41
0
42
6.2831853071795862
0
ELLIPSE
5
103
100
AcDbEntity
8
0
100
AcDbEllipse
10
28.946133103949073
20
261.82233680207946
30
-3.9701575360595598e-12
11
-0.0006650867248027912
21
-0.24999999998747355
31
0.0
40
0.99999646144624654
41
0
42
6.2831853071795862
0
ELLIPSE
5
104
100
AcDbEntity
8
0
100
AcDbEllipse
10
18.786133103694262
20
261.82233689771942
30
-3.9701575360595598e-12
11
-0.0006650867248027912
21
-0.24999999998747355
31
0.0
40
0.99999646144624654
41
0
42
6.2831853071795862
0
ELLIPSE
5
105
100
AcDbEntity
8
0
100
AcDbEllipse
10
36.566133247629452
20
246.58228279992761
30
-3.7481129311345285e-12
11
-0.0006650867248027912
21
-0.24999999998747355
31
0.0
40
0.99999646144624654
41
0
42
6.2831853071795862
0
ELLIPSE
5
106
100
AcDbEntity
8
0
100
AcDbEllipse
10
16.246133103630548
20
261.82233692162947
30
-3.979039320256561e-12
11
-0.0006650867248027912
21
-0.24999999998747355
31
0.0
40
0.99999646144624654
41
0
42
6.2831853071795862
0
ELLIPSE
5
107
100
AcDbEntity
8
0
100
AcDbEllipse
10
16.246133247120113
20
246.58228299120748
30
-3.7392311469375272e-12
11
-0.0006650867248027912
21
-0.24999999998747355
31
0.0
40
0.99999646144624654
41
0
42
6.2831853071795862
0
ELLIPSE
5
108
100
AcDbEntity
8
0
100
AcDbEllipse
10
36.566133104139929
20
261.82233673034955
30
-3.979039320256561e-12
11
-0.0006650867248027912
21
-0.24999999998747355
31
0.0
40
0.99999646144624654
41
0
42
6.2831853071795862
0
ELLIPSE
5
109
100
AcDbEntity
8
0
100
AcDbEllipse
10
31.486133247502146
20
246.58228284774759
30
-3.7481129311345285e-12
11
-0.0006650867248027912
21
-0.24999999998747355
31
0.0
40
0.99999646144624654
41
0
42
6.2831853071795862
0
ELLIPSE
5
110
100
AcDbEntity
8
0
100
AcDbEllipse
10
18.786133247183614
20
246.58228296729737
30
-3.7481129311345285e-12
11
-0.0006650867248027912
21
-0.24999999998747355
31
0.0
40
0.99999646144624654
41
0
42
6.2831853071795862
0
ELLIPSE
5
111
100
AcDbEntity
8
0
100
AcDbEllipse
10
34.026133104076514
20
261.82233675425971
30
-3.979039320256561e-12
11
-0.0006650867248027912
21
-0.24999999998747355
31
0.0
40
0.99999646144624654
41
0
42
6.2831853071795862
0
ELLIPSE
5
112
100
AcDbEntity
8
0
100
AcDbEllipse
10
13.706133103566904
20
261.82233694553923
30
-3.979039320256561e-12
11
-0.0006650867248027912
21
-0.24999999998747355
31
0.0
40
0.99999646144624654
41
0
42
6.2831853071795862
0
ELLIPSE
5
113
100
AcDbEntity
8
0
100
AcDbEllipse
10
23.866133103821646
20
261.82233684989933
30
-3.979039320256561e-12
11
-0.0006650867248027912
21
-0.24999999998747355
31
0.0
40
0.99999646144624654
41
0
42
6.2831853071795862
0
ELLIPSE
5
114
100
AcDbEntity
8
0
100
AcDbEllipse
10
11.16613310350335
20
261.8223369694494
30
-3.9701575360595598e-12
11
-0.0006650867248027912
21
-0.24999999998747355
31
0.0
40
0.99999646144624654
41
0
42
6.2831853071795862
0
ELLIPSE
5
115
100
AcDbEntity
8
0
100
AcDbEllipse
10
11.166133246992651
20
246.58228303902743
30
-3.7481129311345285e-12
11
-0.0006650867248027912
21
-0.24999999998747355
31
0.0
40
0.99999646144624654
41
0
42
6.2831853071795862
0
ELLIPSE
5
116
100
AcDbEntity
8
0
100
AcDbEllipse
10
28.946133247438564
20
246.58228287165758
30
-3.7481129311345285e-12
11
-0.0006650867248027912
21
-0.24999999998747355
31
0.0
40
0.99999646144624654
41
0
42
6.2831853071795862
0
ELLIPSE
5
117
100
AcDbEntity
8
0
100
AcDbEllipse
10
21.326133247247281
20
246.58228294338738
30
-3.7481129311345285e-12
11
-0.0006650867248027912
21
-0.24999999998747355
31
0.0
40
0.99999646144624654
41
0
42
6.2831853071795862
0
ELLIPSE
5
118
100
AcDbEntity
8
0
100
AcDbEllipse
10
26.406133247374868
20
246.5822828955674
30
-3.7392311469375272e-12
11
-0.0006650867248027912
21
-0.24999999998747355
31
0.0
40
0.99999646144624654
41
0
42
6.2831853071795862
0
ELLIPSE
5
119
100
AcDbEntity
8
0
100
AcDbEllipse
10
21.326133103757869
20
261.82233687380943
30
-3.9701575360595598e-12
11
-0.0006650867248027912
21
-0.24999999998747355
31
0.0
40
0.99999646144624654
41
0
42
6.2831853071795862
0
ELLIPSE
5
120
100
AcDbEntity
8
0
100
AcDbEllipse
10
13.706133247056258
20
246.58228301511741
30
-3.7481129311345285e-12
11
-0.0006650867248027912
21
-0.24999999998747355
31
0.0
40
0.99999646144624654
41
0
42
6.2831853071795862
0
ELLIPSE
5
121
100
AcDbEntity
8
0
100
AcDbEllipse
10
39.106133104203927
20
261.8223367064395
30
-3.9701575360595598e-12
11
-0.0006650867248027912
21
-0.24999999998747355
31
0.0
40
0.99999646144624654
41
0
42
6.2831853071795862
0
ELLIPSE
5
122
100
AcDbEntity
8
0
100
AcDbEllipse
10
23.866133247311076
20
246.58228291947748
30
-3.7481129311345285e-12
11
-0.0006650867248027912
21
-0.24999999998747355
31
0.0
40
0.99999646144624654
41
0
42
6.2831853071795862
0
ELLIPSE
5
123
100
AcDbEntity
8
0
100
AcDbEllipse
10
34.02613324756576
20
246.5822828238376
30
-3.7481129311345285e-12
11
-0.0006650867248027912
21
-0.24999999998747355
31
0.0
40
0.99999646144624654
41
0
42
6.2831853071795862
0
ELLIPSE
5
124
100
AcDbEntity
8
0
100
AcDbEllipse
10
39.106133247693258
20
246.58228277601751
30
-3.7481129311345285e-12
11
-0.0006650867248027912
21
-0.24999999998747355
31
0.0
40
0.99999646144624654
41
0
42
6.2831853071795862
0
CIRCLE
5
125
100
AcDbEntity
8
0
100
AcDbCircle
10
26.810302803667238
20
230.11369484685306
30
-3.4905411894214922e-12
40
2.350000000000013
210
-3.7034429780002601e-21
220
1.5190973479128897e-14
230
1
0
CIRCLE
5
126
100
AcDbEntity
8
0
100
AcDbCircle
10
79.502733082965051
20
224.87251699720562
30
-3.4106051316484809e-12
40
2.3500000000000045
210
-3.7034430109246411e-21
220
1.5190539798259902e-14
230
1
0
CIRCLE
5
127
100
AcDbEntity
8
0
100
AcDbCircle
10
13.611524914305607
20
291.81669032884918
30
-4.4320103143036249e-12
40
2.3500000000000156
210
-3.7034430284939461e-21
220
1.5190973479128897e-14
230
1
0
CIRCLE
5
128
100
AcDbEntity
8
0
100
AcDbCircle
10
73.101791787173369
20
285.55040304788827
30
-4.3343106881366111e-12
40
2.3500000000000036
210
-3.7034430137712671e-21
220
1.5190973479128893e-14
230
1
0
LWPOLYLINE
5
129
100
AcDbEntity
8
0
100
AcDbPolyline
90
4
70
1
43
0.0
10
36.500000589915459
20
260.49999997352603
10
36.500000589231284
20
248.49999997352597
10
28.500000589231252
20
248.49999997398214
10
28.500000589915416
20
260.4999999739822
0
CIRCLE
5
130
100
AcDbEntity
8
0
100
AcDbCircle
10
8.6261332469926923
20
246.58228303917258
30
-3.7392311469375272e-12
40
0.24999999999998693
210
-3.7034430422895372e-21
220
1.5190539798259902e-14
230
1
0
CIRCLE
5
131
100
AcDbEntity
8
0
100
AcDbCircle
10
8.6261331035033919
20
261.82233696959452
30
-3.979039320256561e-12
40
0.25000000000000805
210
-3.7034430170525763e-21
220
1.5190539798259902e-14
230
1
0
ENDSEC
0
SECTION
2
OBJECTS
0
DICTIONARY
5
C
100
AcDbDictionary
3
ACAD_GROUP
350
D
3
ACAD_MLINESTYLE
350
17
0
DICTIONARY
5
D
100
AcDbDictionary
0
DICTIONARY
5
1A
330
C
100
AcDbDictionary
0
DICTIONARY
5
17
100
AcDbDictionary
0
ENDSEC
0
EOF
