999
"DXF R12 Output" (www.mydxf.blogspot.com)
 0 
SECTION
 2 
HEADER
 9 
$ACADVER
 1 
AC1009
 9 
$EXTMIN
 10 
 0 
 20 
 0 
 9 
$EXTMAX
 10 
 8.5 
 20 
 11 
 0 
ENDSEC
 0 
SECTION
 2 
ENTITIES
0
LINE
8
Layer 1
10
424.640000
20
92.072300
11
424.527385
21
89.842137
0
LINE
8
Layer 1
10
424.527385
20
89.842137
11
424.196849
21
87.676394
0
LINE
8
Layer 1
10
424.196849
20
87.676394
11
423.659358
21
85.586036
0
LINE
8
Layer 1
10
423.659358
20
85.586036
11
422.925874
21
83.582027
0
LINE
8
Layer 1
10
422.925874
20
83.582027
11
422.007364
21
81.675330
0
LINE
8
Layer 1
10
422.007364
20
81.675330
11
420.914791
21
79.876912
0
LINE
8
Layer 1
10
420.914791
20
79.876912
11
419.659120
21
78.197734
0
LINE
8
Layer 1
10
419.659120
20
78.197734
11
418.251315
21
76.648763
0
LINE
8
Layer 1
10
418.251315
20
76.648763
11
416.702341
21
75.240961
0
LINE
8
Layer 1
10
416.702341
20
75.240961
11
415.023162
21
73.985293
0
LINE
8
Layer 1
10
415.023162
20
73.985293
11
413.224743
21
72.892724
0
LINE
8
Layer 1
10
413.224743
20
72.892724
11
411.318048
21
71.974217
0
LINE
8
Layer 1
10
411.318048
20
71.974217
11
409.314042
21
71.240737
0
LINE
8
Layer 1
10
409.314042
20
71.240737
11
407.223689
21
70.703248
0
LINE
8
Layer 1
10
407.223689
20
70.703248
11
405.057953
21
70.372714
0
LINE
8
Layer 1
10
405.057953
20
70.372714
11
402.827800
21
70.260100
0
LINE
8
Layer 1
10
402.827800
20
70.260100
11
400.356803
21
70.398551
0
LINE
8
Layer 1
10
400.356803
20
70.398551
11
397.966420
21
70.804148
0
LINE
8
Layer 1
10
397.966420
20
70.804148
11
395.671782
21
71.462256
0
LINE
8
Layer 1
10
395.671782
20
71.462256
11
393.488020
21
72.358240
0
LINE
8
Layer 1
10
393.488020
20
72.358240
11
393.488000
21
0.132357
0
LINE
8
Layer 1
10
393.488000
20
0.132357
11
0.132292
21
0.132357
0
LINE
8
Layer 1
10
0.132292
20
0.132357
11
0.132292
21
184.039000
0
LINE
8
Layer 1
10
0.132292
20
184.039000
11
393.488000
21
184.039000
0
LINE
8
Layer 1
10
393.488000
20
184.039000
11
393.488000
21
111.786000
0
LINE
8
Layer 1
10
393.488000
20
111.786000
11
395.671762
21
112.681986
0
LINE
8
Layer 1
10
395.671762
20
112.681986
11
397.966400
21
113.340094
0
LINE
8
Layer 1
10
397.966400
20
113.340094
11
400.356783
21
113.745690
0
LINE
8
Layer 1
10
400.356783
20
113.745690
11
402.827780
21
113.884140
0
LINE
8
Layer 1
10
402.827780
20
113.884140
11
405.057943
21
113.771525
0
LINE
8
Layer 1
10
405.057943
20
113.771525
11
407.223686
21
113.440989
0
LINE
8
Layer 1
10
407.223686
20
113.440989
11
409.314044
21
112.903498
0
LINE
8
Layer 1
10
409.314044
20
112.903498
11
411.318053
21
112.170014
0
LINE
8
Layer 1
10
411.318053
20
112.170014
11
413.224750
21
111.251504
0
LINE
8
Layer 1
10
413.224750
20
111.251504
11
415.023168
21
110.158931
0
LINE
8
Layer 1
10
415.023168
20
110.158931
11
416.702346
21
108.903260
0
LINE
8
Layer 1
10
416.702346
20
108.903260
11
418.251318
21
107.495455
0
LINE
8
Layer 1
10
418.251318
20
107.495455
11
419.659119
21
105.946481
0
LINE
8
Layer 1
10
419.659119
20
105.946481
11
420.914787
21
104.267302
0
LINE
8
Layer 1
10
420.914787
20
104.267302
11
422.007356
21
102.468883
0
LINE
8
Layer 1
10
422.007356
20
102.468883
11
422.925863
21
100.562188
0
LINE
8
Layer 1
10
422.925863
20
100.562188
11
423.659343
21
98.558182
0
LINE
8
Layer 1
10
423.659343
20
98.558182
11
424.196832
21
96.467829
0
LINE
8
Layer 1
10
424.196832
20
96.467829
11
424.527366
21
94.302093
0
LINE
8
Layer 1
10
424.527366
20
94.302093
11
424.639980
21
92.071940
0
LINE
8
Layer 1
10
424.639980
20
92.071940
11
424.640000
21
92.072300
0
LINE
8
Layer 1
10
23.701300
20
22.233000
11
369.916000
21
22.233000
0
LINE
8
Layer 1
10
369.916000
20
22.233000
11
369.916000
21
161.938000
0
LINE
8
Layer 1
10
369.916000
20
161.938000
11
23.701300
21
161.938000
0
LINE
8
Layer 1
10
23.701300
20
161.938000
11
23.701300
21
22.233000
0
LINE
8
Layer 1
10
23.701300
20
22.233000
11
23.701300
21
22.233000
0
LINE
8
Layer 1
10
12.588900
20
11.120500
11
381.029000
21
11.120500
0
LINE
8
Layer 1
10
381.029000
20
11.120500
11
381.029000
21
173.051000
0
LINE
8
Layer 1
10
381.029000
20
173.051000
11
12.588900
21
173.051000
0
LINE
8
Layer 1
10
12.588900
20
173.051000
11
12.588900
21
11.120500
0
LINE
8
Layer 1
10
12.588900
20
11.120500
11
12.588900
21
11.120500
 0 
ENDSEC
 0 
EOF