999
"DXF R12 Output" (www.mydxf.blogspot.com)
 0 
SECTION
 2 
HEADER
 9 
$ACADVER
 1 
AC1009
 9 
$EXTMIN
 10 
 0 
 20 
 0 
 9 
$EXTMAX
 10 
 8.5 
 20 
 11 
 0 
ENDSEC
 0 
SECTION
 2 
ENTITIES
0
LINE
8
Layer 1
10
440.266000
20
92.045800
11
440.162172
21
89.990009
0
LINE
8
Layer 1
10
440.162172
20
89.990009
11
439.857431
21
87.993565
0
LINE
8
Layer 1
10
439.857431
20
87.993565
11
439.361888
21
86.066581
0
LINE
8
Layer 1
10
439.361888
20
86.066581
11
438.685654
21
84.219167
0
LINE
8
Layer 1
10
438.685654
20
84.219167
11
437.838842
21
82.461437
0
LINE
8
Layer 1
10
437.838842
20
82.461437
11
436.831563
21
80.803501
0
LINE
8
Layer 1
10
436.831563
20
80.803501
11
435.673929
21
79.255472
0
LINE
8
Layer 1
10
435.673929
20
79.255472
11
434.376053
21
77.827462
0
LINE
8
Layer 1
10
434.376053
20
77.827462
11
432.948044
21
76.529584
0
LINE
8
Layer 1
10
432.948044
20
76.529584
11
431.400017
21
75.371947
0
LINE
8
Layer 1
10
431.400017
20
75.371947
11
429.742081
21
74.364666
0
LINE
8
Layer 1
10
429.742081
20
74.364666
11
427.984350
21
73.517852
0
LINE
8
Layer 1
10
427.984350
20
73.517852
11
426.136934
21
72.841616
0
LINE
8
Layer 1
10
426.136934
20
72.841616
11
424.209946
21
72.346071
0
LINE
8
Layer 1
10
424.209946
20
72.346071
11
422.213497
21
72.041328
0
LINE
8
Layer 1
10
422.213497
20
72.041328
11
420.157700
21
71.937500
0
LINE
8
Layer 1
10
420.157700
20
71.937500
11
418.254169
21
72.026456
0
LINE
8
Layer 1
10
418.254169
20
72.026456
11
416.400620
21
72.287989
0
LINE
8
Layer 1
10
416.400620
20
72.287989
11
414.605114
21
72.714102
0
LINE
8
Layer 1
10
414.605114
20
72.714102
11
412.875714
21
73.296794
0
LINE
8
Layer 1
10
412.875714
20
73.296794
11
411.220481
21
74.028066
0
LINE
8
Layer 1
10
411.220481
20
74.028066
11
409.647476
21
74.899919
0
LINE
8
Layer 1
10
409.647476
20
74.899919
11
408.164762
21
75.904353
0
LINE
8
Layer 1
10
408.164762
20
75.904353
11
406.780400
21
77.033370
0
LINE
8
Layer 1
10
406.780400
20
77.033370
11
406.780000
21
0.132357
0
LINE
8
Layer 1
10
406.780000
20
0.132357
11
0.132292
21
0.132357
0
LINE
8
Layer 1
10
0.132292
20
0.132357
11
0.132292
21
184.039000
0
LINE
8
Layer 1
10
0.132292
20
184.039000
11
406.780000
21
184.039000
0
LINE
8
Layer 1
10
406.780000
20
184.039000
11
406.780000
21
107.058000
0
LINE
8
Layer 1
10
406.780000
20
107.058000
11
408.164369
21
108.187014
0
LINE
8
Layer 1
10
408.164369
20
108.187014
11
409.647087
21
109.191447
0
LINE
8
Layer 1
10
409.647087
20
109.191447
11
411.220095
21
110.063300
0
LINE
8
Layer 1
10
411.220095
20
110.063300
11
412.875329
21
110.794573
0
LINE
8
Layer 1
10
412.875329
20
110.794573
11
414.604728
21
111.377266
0
LINE
8
Layer 1
10
414.604728
20
111.377266
11
416.400231
21
111.803379
0
LINE
8
Layer 1
10
416.400231
20
111.803379
11
418.253775
21
112.064914
0
LINE
8
Layer 1
10
418.253775
20
112.064914
11
420.157300
21
112.153870
0
LINE
8
Layer 1
10
420.157300
20
112.153870
11
422.213091
21
112.050042
0
LINE
8
Layer 1
10
422.213091
20
112.050042
11
424.209535
21
111.745301
0
LINE
8
Layer 1
10
424.209535
20
111.745301
11
426.136519
21
111.249758
0
LINE
8
Layer 1
10
426.136519
20
111.249758
11
427.983933
21
110.573524
0
LINE
8
Layer 1
10
427.983933
20
110.573524
11
429.741663
21
109.726712
0
LINE
8
Layer 1
10
429.741663
20
109.726712
11
431.399599
21
108.719433
0
LINE
8
Layer 1
10
431.399599
20
108.719433
11
432.947628
21
107.561799
0
LINE
8
Layer 1
10
432.947628
20
107.561799
11
434.375637
21
106.263923
0
LINE
8
Layer 1
10
434.375637
20
106.263923
11
435.673516
21
104.835914
0
LINE
8
Layer 1
10
435.673516
20
104.835914
11
436.831153
21
103.287887
0
LINE
8
Layer 1
10
436.831153
20
103.287887
11
437.838434
21
101.629951
0
LINE
8
Layer 1
10
437.838434
20
101.629951
11
438.685248
21
99.872220
0
LINE
8
Layer 1
10
438.685248
20
99.872220
11
439.361484
21
98.024804
0
LINE
8
Layer 1
10
439.361484
20
98.024804
11
439.857029
21
96.097816
0
LINE
8
Layer 1
10
439.857029
20
96.097816
11
440.161772
21
94.101367
0
LINE
8
Layer 1
10
440.161772
20
94.101367
11
440.265600
21
92.045570
0
LINE
8
Layer 1
10
440.265600
20
92.045570
11
440.266000
21
92.045800
0
LINE
8
Layer 1
10
23.701300
20
22.233000
11
383.995000
21
22.233000
0
LINE
8
Layer 1
10
383.995000
20
22.233000
11
383.995000
21
161.938000
0
LINE
8
Layer 1
10
383.995000
20
161.938000
11
23.701300
21
161.938000
0
LINE
8
Layer 1
10
23.701300
20
161.938000
11
23.701300
21
22.233000
0
LINE
8
Layer 1
10
23.701300
20
22.233000
11
23.701300
21
22.233000
0
LINE
8
Layer 1
10
12.588900
20
11.120500
11
395.107000
21
11.120500
0
LINE
8
Layer 1
10
395.107000
20
11.120500
11
395.107000
21
173.051000
0
LINE
8
Layer 1
10
395.107000
20
173.051000
11
12.588900
21
173.051000
0
LINE
8
Layer 1
10
12.588900
20
173.051000
11
12.588900
21
11.120500
0
LINE
8
Layer 1
10
12.588900
20
11.120500
11
12.588900
21
11.120500
0
LINE
8
Layer 1
10
83.724600
20
119.451000
11
87.511384
21
119.308645
0
LINE
8
Layer 1
10
87.511384
20
119.308645
11
91.054611
21
118.887633
0
LINE
8
Layer 1
10
91.054611
20
118.887633
11
94.348784
21
118.197039
0
LINE
8
Layer 1
10
94.348784
20
118.197039
11
97.388408
21
117.245942
0
LINE
8
Layer 1
10
97.388408
20
117.245942
11
100.167986
21
116.043419
0
LINE
8
Layer 1
10
100.167986
20
116.043419
11
102.682022
21
114.598546
0
LINE
8
Layer 1
10
102.682022
20
114.598546
11
104.925022
21
112.920402
0
LINE
8
Layer 1
10
104.925022
20
112.920402
11
106.891487
21
111.018062
0
LINE
8
Layer 1
10
106.891487
20
111.018062
11
108.575924
21
108.900606
0
LINE
8
Layer 1
10
108.575924
20
108.900606
11
109.972835
21
106.577108
0
LINE
8
Layer 1
10
109.972835
20
106.577108
11
111.076725
21
104.056648
0
LINE
8
Layer 1
10
111.076725
20
104.056648
11
111.882098
21
101.348302
0
LINE
8
Layer 1
10
111.882098
20
101.348302
11
112.383458
21
98.461146
0
LINE
8
Layer 1
10
112.383458
20
98.461146
11
112.575309
21
95.404260
0
LINE
8
Layer 1
10
112.575309
20
95.404260
11
112.452155
21
92.186718
0
LINE
8
Layer 1
10
112.452155
20
92.186718
11
112.008500
21
88.817600
0
LINE
8
Layer 1
10
112.008500
20
88.817600
11
111.149663
21
84.897323
0
LINE
8
Layer 1
10
111.149663
20
84.897323
11
110.009807
21
81.244323
0
LINE
8
Layer 1
10
110.009807
20
81.244323
11
108.603774
21
77.856618
0
LINE
8
Layer 1
10
108.603774
20
77.856618
11
106.946403
21
74.732228
0
LINE
8
Layer 1
10
106.946403
20
74.732228
11
105.052535
21
71.869172
0
LINE
8
Layer 1
10
105.052535
20
71.869172
11
102.937010
21
69.265469
0
LINE
8
Layer 1
10
102.937010
20
69.265469
11
100.614668
21
66.919139
0
LINE
8
Layer 1
10
100.614668
20
66.919139
11
98.100350
21
64.828200
0
LINE
8
Layer 1
10
98.100350
20
64.828200
11
95.408896
21
62.990672
0
LINE
8
Layer 1
10
95.408896
20
62.990672
11
92.555146
21
61.404575
0
LINE
8
Layer 1
10
92.555146
20
61.404575
11
89.553942
21
60.067926
0
LINE
8
Layer 1
10
89.553942
20
60.067926
11
86.420122
21
58.978747
0
LINE
8
Layer 1
10
86.420122
20
58.978747
11
83.168527
21
58.135055
0
LINE
8
Layer 1
10
83.168527
20
58.135055
11
79.813999
21
57.534871
0
LINE
8
Layer 1
10
79.813999
20
57.534871
11
76.371376
21
57.176213
0
LINE
8
Layer 1
10
76.371376
20
57.176213
11
72.855500
21
57.057100
0
LINE
8
Layer 1
10
72.855500
20
57.057100
11
69.381949
21
57.178382
0
LINE
8
Layer 1
10
69.381949
20
57.178382
11
66.066432
21
57.541681
0
LINE
8
Layer 1
10
66.066432
20
57.541681
11
62.923989
21
58.146174
0
LINE
8
Layer 1
10
62.923989
20
58.146174
11
59.969656
21
58.991041
0
LINE
8
Layer 1
10
59.969656
20
58.991041
11
57.218473
21
60.075458
0
LINE
8
Layer 1
10
57.218473
20
60.075458
11
54.685477
21
61.398605
0
LINE
8
Layer 1
10
54.685477
20
61.398605
11
52.385707
21
62.959660
0
LINE
8
Layer 1
10
52.385707
20
62.959660
11
50.334200
21
64.757800
0
LINE
8
Layer 1
10
50.334200
20
64.757800
11
48.545995
21
66.792204
0
LINE
8
Layer 1
10
48.545995
20
66.792204
11
47.036129
21
69.062051
0
LINE
8
Layer 1
10
47.036129
20
69.062051
11
45.819641
21
71.566518
0
LINE
8
Layer 1
10
45.819641
20
71.566518
11
44.911569
21
74.304784
0
LINE
8
Layer 1
10
44.911569
20
74.304784
11
44.326950
21
77.276027
0
LINE
8
Layer 1
10
44.326950
20
77.276027
11
44.080824
21
80.479425
0
LINE
8
Layer 1
10
44.080824
20
80.479425
11
44.188228
21
83.914157
0
LINE
8
Layer 1
10
44.188228
20
83.914157
11
44.664200
21
87.579400
0
LINE
8
Layer 1
10
44.664200
20
87.579400
11
45.478570
21
91.315198
0
LINE
8
Layer 1
10
45.478570
20
91.315198
11
46.561029
21
94.833937
0
LINE
8
Layer 1
10
46.561029
20
94.833937
11
47.900612
21
98.132312
0
LINE
8
Layer 1
10
47.900612
20
98.132312
11
49.486354
21
101.207016
0
LINE
8
Layer 1
10
49.486354
20
101.207016
11
51.307292
21
104.054743
0
LINE
8
Layer 1
10
51.307292
20
104.054743
11
53.352460
21
106.672186
0
LINE
8
Layer 1
10
53.352460
20
106.672186
11
55.610894
21
109.056041
0
LINE
8
Layer 1
10
55.610894
20
109.056041
11
58.071629
21
111.203000
0
LINE
8
Layer 1
10
58.071629
20
111.203000
11
60.723700
21
113.109758
0
LINE
8
Layer 1
10
60.723700
20
113.109758
11
63.556144
21
114.773007
0
LINE
8
Layer 1
10
63.556144
20
114.773007
11
66.557995
21
116.189443
0
LINE
8
Layer 1
10
66.557995
20
116.189443
11
69.718289
21
117.355759
0
LINE
8
Layer 1
10
69.718289
20
117.355759
11
73.026061
21
118.268649
0
LINE
8
Layer 1
10
73.026061
20
118.268649
11
76.470347
21
118.924807
0
LINE
8
Layer 1
10
76.470347
20
118.924807
11
80.040181
21
119.320926
0
LINE
8
Layer 1
10
80.040181
20
119.320926
11
83.724600
21
119.453700
0
LINE
8
Layer 1
10
83.724600
20
119.453700
11
83.724600
21
119.451000
0
LINE
8
Layer 1
10
68.310000
20
88.817900
11
67.816097
21
84.929532
0
LINE
8
Layer 1
10
67.816097
20
84.929532
11
67.786289
21
81.615142
0
LINE
8
Layer 1
10
67.786289
20
81.615142
11
68.189820
21
78.857616
0
LINE
8
Layer 1
10
68.189820
20
78.857616
11
68.995930
21
76.639837
0
LINE
8
Layer 1
10
68.995930
20
76.639837
11
70.173862
21
74.944692
0
LINE
8
Layer 1
10
70.173862
20
74.944692
11
71.692858
21
73.755064
0
LINE
8
Layer 1
10
71.692858
20
73.755064
11
73.522160
21
73.053838
0
LINE
8
Layer 1
10
73.522160
20
73.053838
11
75.631010
21
72.823900
0
LINE
8
Layer 1
10
75.631010
20
72.823900
11
77.917978
21
73.053731
0
LINE
8
Layer 1
10
77.917978
20
73.053731
11
80.039620
21
73.754694
0
LINE
8
Layer 1
10
80.039620
20
73.754694
11
81.983163
21
74.943999
0
LINE
8
Layer 1
10
81.983163
20
74.943999
11
83.735833
21
76.638851
0
LINE
8
Layer 1
10
83.735833
20
76.638851
11
85.284856
21
78.856460
0
LINE
8
Layer 1
10
85.284856
20
78.856460
11
86.617459
21
81.614033
0
LINE
8
Layer 1
10
86.617459
20
81.614033
11
87.720868
21
84.928777
0
LINE
8
Layer 1
10
87.720868
20
84.928777
11
88.582310
21
88.817900
0
LINE
8
Layer 1
10
88.582310
20
88.817900
11
88.959061
21
91.960712
0
LINE
8
Layer 1
10
88.959061
20
91.960712
11
88.950162
21
94.847417
0
LINE
8
Layer 1
10
88.950162
20
94.847417
11
88.564357
21
97.422576
0
LINE
8
Layer 1
10
88.564357
20
97.422576
11
87.810389
21
99.630749
0
LINE
8
Layer 1
10
87.810389
20
99.630749
11
86.697002
21
101.416497
0
LINE
8
Layer 1
10
86.697002
20
101.416497
11
86.008258
21
102.133637
0
LINE
8
Layer 1
10
86.008258
20
102.133637
11
85.232939
21
102.724381
0
LINE
8
Layer 1
10
85.232939
20
102.724381
11
84.372136
21
103.181799
0
LINE
8
Layer 1
10
84.372136
20
103.181799
11
83.426944
21
103.498962
0
LINE
8
Layer 1
10
83.426944
20
103.498962
11
82.398454
21
103.668939
0
LINE
8
Layer 1
10
82.398454
20
103.668939
11
81.287760
21
103.684800
0
LINE
8
Layer 1
10
81.287760
20
103.684800
11
79.837211
21
103.590856
0
LINE
8
Layer 1
10
79.837211
20
103.590856
11
78.482448
21
103.318590
0
LINE
8
Layer 1
10
78.482448
20
103.318590
11
77.221214
21
102.882350
0
LINE
8
Layer 1
10
77.221214
20
102.882350
11
76.051254
21
102.296484
0
LINE
8
Layer 1
10
76.051254
20
102.296484
11
74.970312
21
101.575340
0
LINE
8
Layer 1
10
74.970312
20
101.575340
11
73.976132
21
100.733265
0
LINE
8
Layer 1
10
73.976132
20
100.733265
11
72.239035
21
98.743716
0
LINE
8
Layer 1
10
72.239035
20
98.743716
11
70.821916
21
96.442622
0
LINE
8
Layer 1
10
70.821916
20
96.442622
11
69.706729
21
93.944765
0
LINE
8
Layer 1
10
69.706729
20
93.944765
11
68.875426
21
91.364930
0
LINE
8
Layer 1
10
68.875426
20
91.364930
11
68.309960
21
88.817900
0
LINE
8
Layer 1
10
68.309960
20
88.817900
11
68.310000
21
88.817900
0
LINE
8
Layer 1
10
157.959000
20
58.745400
11
157.943125
21
65.053060
0
LINE
8
Layer 1
10
157.943125
20
65.053060
11
155.068456
21
62.931171
0
LINE
8
Layer 1
10
155.068456
20
62.931171
11
152.228174
21
61.190685
0
LINE
8
Layer 1
10
152.228174
20
61.190685
11
149.394404
21
59.801246
0
LINE
8
Layer 1
10
149.394404
20
59.801246
11
146.539271
21
58.732501
0
LINE
8
Layer 1
10
146.539271
20
58.732501
11
143.634902
21
57.954095
0
LINE
8
Layer 1
10
143.634902
20
57.954095
11
140.653420
21
57.435672
0
LINE
8
Layer 1
10
140.653420
20
57.435672
11
137.566953
21
57.146879
0
LINE
8
Layer 1
10
137.566953
20
57.146879
11
134.347625
21
57.057360
0
LINE
8
Layer 1
10
134.347625
20
57.057360
11
130.287487
21
57.318491
0
LINE
8
Layer 1
10
130.287487
20
57.318491
11
128.367652
21
57.647626
0
LINE
8
Layer 1
10
128.367652
20
57.647626
11
126.538675
21
58.111558
0
LINE
8
Layer 1
10
126.538675
20
58.111558
11
124.813582
21
58.712103
0
LINE
8
Layer 1
10
124.813582
20
58.712103
11
123.205400
21
59.451073
0
LINE
8
Layer 1
10
123.205400
20
59.451073
11
121.727155
21
60.330284
0
LINE
8
Layer 1
10
121.727155
20
60.330284
11
120.391875
21
61.351548
0
LINE
8
Layer 1
10
120.391875
20
61.351548
11
119.212585
21
62.516679
0
LINE
8
Layer 1
10
119.212585
20
62.516679
11
118.202313
21
63.827492
0
LINE
8
Layer 1
10
118.202313
20
63.827492
11
117.374084
21
65.285800
0
LINE
8
Layer 1
10
117.374084
20
65.285800
11
116.740925
21
66.893418
0
LINE
8
Layer 1
10
116.740925
20
66.893418
11
116.315863
21
68.652159
0
LINE
8
Layer 1
10
116.315863
20
68.652159
11
116.111925
21
70.563837
0
LINE
8
Layer 1
10
116.111925
20
70.563837
11
116.142137
21
72.630266
0
LINE
8
Layer 1
10
116.142137
20
72.630266
11
116.419525
21
74.853260
0
LINE
8
Layer 1
10
116.419525
20
74.853260
11
116.962547
21
77.253953
0
LINE
8
Layer 1
10
116.962547
20
77.253953
11
117.698159
21
79.437702
0
LINE
8
Layer 1
10
117.698159
20
79.437702
11
118.612980
21
81.415890
0
LINE
8
Layer 1
10
118.612980
20
81.415890
11
119.693629
21
83.199901
0
LINE
8
Layer 1
10
119.693629
20
83.199901
11
120.926723
21
84.801116
0
LINE
8
Layer 1
10
120.926723
20
84.801116
11
122.298882
21
86.230920
0
LINE
8
Layer 1
10
122.298882
20
86.230920
11
123.796723
21
87.500695
0
LINE
8
Layer 1
10
123.796723
20
87.500695
11
125.406867
21
88.621824
0
LINE
8
Layer 1
10
125.406867
20
88.621824
11
127.115930
21
89.605690
0
LINE
8
Layer 1
10
127.115930
20
89.605690
11
128.910533
21
90.463677
0
LINE
8
Layer 1
10
128.910533
20
90.463677
11
132.702829
21
91.847543
0
LINE
8
Layer 1
10
132.702829
20
91.847543
11
136.676703
21
92.864487
0
LINE
8
Layer 1
10
136.676703
20
92.864487
11
140.725104
21
93.605573
0
LINE
8
Layer 1
10
140.725104
20
93.605573
11
148.617282
21
94.624425
0
LINE
8
Layer 1
10
148.617282
20
94.624425
11
152.246956
21
95.084321
0
LINE
8
Layer 1
10
152.246956
20
95.084321
11
155.522951
21
95.632615
0
LINE
8
Layer 1
10
155.522951
20
95.632615
11
158.338218
21
96.360371
0
LINE
8
Layer 1
10
158.338218
20
96.360371
11
160.585703
21
97.358655
0
LINE
8
Layer 1
10
160.585703
20
97.358655
11
161.463074
21
97.987702
0
LINE
8
Layer 1
10
161.463074
20
97.987702
11
162.158356
21
98.718530
0
LINE
8
Layer 1
10
162.158356
20
98.718530
11
162.658166
21
99.562522
0
LINE
8
Layer 1
10
162.658166
20
99.562522
11
162.949125
21
100.531060
0
LINE
8
Layer 1
10
162.949125
20
100.531060
11
162.974793
21
101.968210
0
LINE
8
Layer 1
10
162.974793
20
101.968210
11
162.552209
21
103.093628
0
LINE
8
Layer 1
10
162.552209
20
103.093628
11
161.780314
21
103.944335
0
LINE
8
Layer 1
10
161.780314
20
103.944335
11
160.758047
21
104.557351
0
LINE
8
Layer 1
10
160.758047
20
104.557351
11
159.584348
21
104.969698
0
LINE
8
Layer 1
10
159.584348
20
104.969698
11
158.358156
21
105.218396
0
LINE
8
Layer 1
10
158.358156
20
105.218396
11
156.144055
21
105.372930
0
LINE
8
Layer 1
10
156.144055
20
105.372930
11
153.528902
21
105.188301
0
LINE
8
Layer 1
10
153.528902
20
105.188301
11
152.172119
21
104.892122
0
LINE
8
Layer 1
10
152.172119
20
104.892122
11
150.849752
21
104.401910
0
LINE
8
Layer 1
10
150.849752
20
104.401910
11
149.612217
21
103.674069
0
LINE
8
Layer 1
10
149.612217
20
103.674069
11
148.509929
21
102.665004
0
LINE
8
Layer 1
10
148.509929
20
102.665004
11
147.593303
21
101.331123
0
LINE
8
Layer 1
10
147.593303
20
101.331123
11
146.912755
21
99.628830
0
LINE
8
Layer 1
10
146.912755
20
99.628830
11
124.386000
21
99.628800
0
LINE
8
Layer 1
10
124.386000
20
99.628800
11
124.893551
21
101.911601
0
LINE
8
Layer 1
10
124.893551
20
101.911601
11
125.595732
21
104.069850
0
LINE
8
Layer 1
10
125.595732
20
104.069850
11
126.500087
21
106.100412
0
LINE
8
Layer 1
10
126.500087
20
106.100412
11
127.614156
21
108.000152
0
LINE
8
Layer 1
10
127.614156
20
108.000152
11
128.945484
21
109.765932
0
LINE
8
Layer 1
10
128.945484
20
109.765932
11
130.501612
21
111.394618
0
LINE
8
Layer 1
10
130.501612
20
111.394618
11
132.290082
21
112.883073
0
LINE
8
Layer 1
10
132.290082
20
112.883073
11
134.318436
21
114.228162
0
LINE
8
Layer 1
10
134.318436
20
114.228162
11
136.594218
21
115.426750
0
LINE
8
Layer 1
10
136.594218
20
115.426750
11
139.124969
21
116.475699
0
LINE
8
Layer 1
10
139.124969
20
116.475699
11
141.918231
21
117.371875
0
LINE
8
Layer 1
10
141.918231
20
117.371875
11
144.981548
21
118.112142
0
LINE
8
Layer 1
10
144.981548
20
118.112142
11
148.322461
21
118.693364
0
LINE
8
Layer 1
10
148.322461
20
118.693364
11
151.948512
21
119.112404
0
LINE
8
Layer 1
10
151.948512
20
119.112404
11
155.867244
21
119.366128
0
LINE
8
Layer 1
10
155.867244
20
119.366128
11
160.086200
21
119.451400
0
LINE
8
Layer 1
10
160.086200
20
119.451400
11
165.000822
21
119.331603
0
LINE
8
Layer 1
10
165.000822
20
119.331603
11
169.295309
21
118.978700
0
LINE
8
Layer 1
10
169.295309
20
118.978700
11
173.007345
21
118.402422
0
LINE
8
Layer 1
10
173.007345
20
118.402422
11
176.174614
21
117.612503
0
LINE
8
Layer 1
10
176.174614
20
117.612503
11
178.834799
21
116.618674
0
LINE
8
Layer 1
10
178.834799
20
116.618674
11
181.025584
21
115.430668
0
LINE
8
Layer 1
10
181.025584
20
115.430668
11
182.784652
21
114.058215
0
LINE
8
Layer 1
10
182.784652
20
114.058215
11
184.149687
21
112.511050
0
LINE
8
Layer 1
10
184.149687
20
112.511050
11
185.158373
21
110.798903
0
LINE
8
Layer 1
10
185.158373
20
110.798903
11
185.848392
21
108.931507
0
LINE
8
Layer 1
10
185.848392
20
108.931507
11
186.257429
21
106.918595
0
LINE
8
Layer 1
10
186.257429
20
106.918595
11
186.423167
21
104.769897
0
LINE
8
Layer 1
10
186.423167
20
104.769897
11
186.383290
21
102.495146
0
LINE
8
Layer 1
10
186.383290
20
102.495146
11
186.175480
21
100.104075
0
LINE
8
Layer 1
10
186.175480
20
100.104075
11
185.406800
21
95.011900
0
LINE
8
Layer 1
10
185.406800
20
95.011900
11
180.549060
21
67.418500
0
LINE
8
Layer 1
10
180.549060
20
67.418500
11
180.216677
21
65.162312
0
LINE
8
Layer 1
10
180.216677
20
65.162312
11
180.261325
21
63.307213
0
LINE
8
Layer 1
10
180.261325
20
63.307213
11
180.494799
21
62.457595
0
LINE
8
Layer 1
10
180.494799
20
62.457595
11
180.906246
21
61.621279
0
LINE
8
Layer 1
10
180.906246
20
61.621279
11
181.523571
21
60.769274
0
LINE
8
Layer 1
10
181.523571
20
60.769274
11
182.374680
21
59.872590
0
LINE
8
Layer 1
10
182.374680
20
59.872590
11
182.176243
21
58.745470
0
LINE
8
Layer 1
10
182.176243
20
58.745470
11
157.961000
21
58.745400
0
LINE
8
Layer 1
10
157.961000
20
58.745400
11
157.959000
21
58.745400
0
LINE
8
Layer 1
10
160.194000
20
84.875600
11
157.025462
21
83.711037
0
LINE
8
Layer 1
10
157.025462
20
83.711037
11
153.832677
21
82.888376
0
LINE
8
Layer 1
10
153.832677
20
82.888376
11
147.841938
21
81.566660
0
LINE
8
Layer 1
10
147.841938
20
81.566660
11
145.277771
21
80.716558
0
LINE
8
Layer 1
10
145.277771
20
80.716558
11
144.154628
21
80.167405
0
LINE
8
Layer 1
10
144.154628
20
80.167405
11
143.156930
21
79.506262
0
LINE
8
Layer 1
10
143.156930
20
79.506262
11
142.299286
21
78.711190
0
LINE
8
Layer 1
10
142.299286
20
78.711190
11
141.596308
21
77.760247
0
LINE
8
Layer 1
10
141.596308
20
77.760247
11
141.062609
21
76.631494
0
LINE
8
Layer 1
10
141.062609
20
76.631494
11
140.712800
21
75.302990
0
LINE
8
Layer 1
10
140.712800
20
75.302990
11
140.657248
21
74.249129
0
LINE
8
Layer 1
10
140.657248
20
74.249129
11
140.871137
21
73.293029
0
LINE
8
Layer 1
10
140.871137
20
73.293029
11
141.344855
21
72.447867
0
LINE
8
Layer 1
10
141.344855
20
72.447867
11
142.068790
21
71.726821
0
LINE
8
Layer 1
10
142.068790
20
71.726821
11
143.033330
21
71.143069
0
LINE
8
Layer 1
10
143.033330
20
71.143069
11
144.228863
21
70.709788
0
LINE
8
Layer 1
10
144.228863
20
70.709788
11
145.645777
21
70.440156
0
LINE
8
Layer 1
10
145.645777
20
70.440156
11
147.274460
21
70.347350
0
LINE
8
Layer 1
10
147.274460
20
70.347350
11
148.764759
21
70.421416
0
LINE
8
Layer 1
10
148.764759
20
70.421416
11
150.154321
21
70.638996
0
LINE
8
Layer 1
10
150.154321
20
70.638996
11
151.445222
21
70.993164
0
LINE
8
Layer 1
10
151.445222
20
70.993164
11
152.639540
21
71.476996
0
LINE
8
Layer 1
10
152.639540
20
71.476996
11
154.746737
21
72.805943
0
LINE
8
Layer 1
10
154.746737
20
72.805943
11
156.492531
21
74.570430
0
LINE
8
Layer 1
10
156.492531
20
74.570430
11
157.893541
21
76.715051
0
LINE
8
Layer 1
10
157.893541
20
76.715051
11
158.966387
21
79.184399
0
LINE
8
Layer 1
10
158.966387
20
79.184399
11
159.727687
21
81.923068
0
LINE
8
Layer 1
10
159.727687
20
81.923068
11
160.194060
21
84.875650
0
LINE
8
Layer 1
10
160.194060
20
84.875650
11
160.194000
21
84.875600
0
LINE
8
Layer 1
10
215.138000
20
77.104800
11
215.010049
21
75.436440
0
LINE
8
Layer 1
10
215.010049
20
75.436440
11
215.235565
21
73.979415
0
LINE
8
Layer 1
10
215.235565
20
73.979415
11
215.793957
21
72.733725
0
LINE
8
Layer 1
10
215.793957
20
72.733725
11
216.664640
21
71.699370
0
LINE
8
Layer 1
10
216.664640
20
71.699370
11
217.729465
21
70.942333
0
LINE
8
Layer 1
10
217.729465
20
70.942333
11
219.007856
21
70.375795
0
LINE
8
Layer 1
10
219.007856
20
70.375795
11
220.471290
21
70.020592
0
LINE
8
Layer 1
10
220.471290
20
70.020592
11
222.091240
21
69.897560
0
LINE
8
Layer 1
10
222.091240
20
69.897560
11
224.815287
21
70.138785
0
LINE
8
Layer 1
10
224.815287
20
70.138785
11
226.128010
21
70.473942
0
LINE
8
Layer 1
10
226.128010
20
70.473942
11
227.349825
21
70.982019
0
LINE
8
Layer 1
10
227.349825
20
70.982019
11
228.437198
21
71.685433
0
LINE
8
Layer 1
10
228.437198
20
71.685433
11
229.346598
21
72.606601
0
LINE
8
Layer 1
10
229.346598
20
72.606601
11
230.034493
21
73.767941
0
LINE
8
Layer 1
10
230.034493
20
73.767941
11
230.457350
21
75.191870
0
LINE
8
Layer 1
10
230.457350
20
75.191870
11
230.501150
21
76.030505
0
LINE
8
Layer 1
10
230.501150
20
76.030505
11
230.330352
21
76.778170
0
LINE
8
Layer 1
10
230.330352
20
76.778170
11
229.959723
21
77.443546
0
LINE
8
Layer 1
10
229.959723
20
77.443546
11
229.404031
21
78.035316
0
LINE
8
Layer 1
10
229.404031
20
78.035316
11
227.796528
21
79.032765
0
LINE
8
Layer 1
10
227.796528
20
79.032765
11
225.625983
21
79.839974
0
LINE
8
Layer 1
10
225.625983
20
79.839974
11
223.010535
21
80.526400
0
LINE
8
Layer 1
10
223.010535
20
80.526400
11
220.068324
21
81.161499
0
LINE
8
Layer 1
10
220.068324
20
81.161499
11
213.676174
21
82.555546
0
LINE
8
Layer 1
10
213.676174
20
82.555546
11
210.462514
21
83.453408
0
LINE
8
Layer 1
10
210.462514
20
83.453408
11
207.394652
21
84.577772
0
LINE
8
Layer 1
10
207.394652
20
84.577772
11
204.590726
21
85.998093
0
LINE
8
Layer 1
10
204.590726
20
85.998093
11
203.324659
21
86.840944
0
LINE
8
Layer 1
10
203.324659
20
86.840944
11
202.168878
21
87.783830
0
LINE
8
Layer 1
10
202.168878
20
87.783830
11
201.138151
21
88.835435
0
LINE
8
Layer 1
10
201.138151
20
88.835435
11
200.247246
21
90.004440
0
LINE
8
Layer 1
10
200.247246
20
90.004440
11
199.510930
21
91.299527
0
LINE
8
Layer 1
10
199.510930
20
91.299527
11
198.943971
21
92.729378
0
LINE
8
Layer 1
10
198.943971
20
92.729378
11
198.561135
21
94.302676
0
LINE
8
Layer 1
10
198.561135
20
94.302676
11
198.377192
21
96.028103
0
LINE
8
Layer 1
10
198.377192
20
96.028103
11
198.406908
21
97.914340
0
LINE
8
Layer 1
10
198.406908
20
97.914340
11
198.665050
21
99.970070
0
LINE
8
Layer 1
10
198.665050
20
99.970070
11
199.320137
21
102.675935
0
LINE
8
Layer 1
10
199.320137
20
102.675935
11
200.271741
21
105.140266
0
LINE
8
Layer 1
10
200.271741
20
105.140266
11
201.493607
21
107.372302
0
LINE
8
Layer 1
10
201.493607
20
107.372302
11
202.959482
21
109.381282
0
LINE
8
Layer 1
10
202.959482
20
109.381282
11
204.643111
21
111.176447
0
LINE
8
Layer 1
10
204.643111
20
111.176447
11
206.518240
21
112.767036
0
LINE
8
Layer 1
10
206.518240
20
112.767036
11
208.558614
21
114.162289
0
LINE
8
Layer 1
10
208.558614
20
114.162289
11
210.737979
21
115.371445
0
LINE
8
Layer 1
10
210.737979
20
115.371445
11
213.030080
21
116.403744
0
LINE
8
Layer 1
10
213.030080
20
116.403744
11
215.408664
21
117.268425
0
LINE
8
Layer 1
10
215.408664
20
117.268425
11
217.847476
21
117.974729
0
LINE
8
Layer 1
10
217.847476
20
117.974729
11
220.320261
21
118.531895
0
LINE
8
Layer 1
10
220.320261
20
118.531895
11
225.262734
21
119.235771
0
LINE
8
Layer 1
10
225.262734
20
119.235771
11
230.026050
21
119.453970
0
LINE
8
Layer 1
10
230.026050
20
119.453970
11
234.726069
21
119.297541
0
LINE
8
Layer 1
10
234.726069
20
119.297541
11
239.467055
21
118.751710
0
LINE
8
Layer 1
10
239.467055
20
118.751710
11
241.781839
21
118.296889
0
LINE
8
Layer 1
10
241.781839
20
118.296889
11
244.021579
21
117.701662
0
LINE
8
Layer 1
10
244.021579
20
117.701662
11
246.157847
21
116.951678
0
LINE
8
Layer 1
10
246.157847
20
116.951678
11
248.162212
21
116.032584
0
LINE
8
Layer 1
10
248.162212
20
116.032584
11
250.006248
21
114.930028
0
LINE
8
Layer 1
10
250.006248
20
114.930028
11
251.661526
21
113.629660
0
LINE
8
Layer 1
10
251.661526
20
113.629660
11
253.099615
21
112.117126
0
LINE
8
Layer 1
10
253.099615
20
112.117126
11
254.292089
21
110.378076
0
LINE
8
Layer 1
10
254.292089
20
110.378076
11
255.210518
21
108.398157
0
LINE
8
Layer 1
10
255.210518
20
108.398157
11
255.826474
21
106.163018
0
LINE
8
Layer 1
10
255.826474
20
106.163018
11
256.111527
21
103.658306
0
LINE
8
Layer 1
10
256.111527
20
103.658306
11
256.037250
21
100.869670
0
LINE
8
Layer 1
10
256.037250
20
100.869670
11
234.751000
21
100.870000
0
LINE
8
Layer 1
10
234.751000
20
100.870000
11
234.712677
21
102.204159
0
LINE
8
Layer 1
10
234.712677
20
102.204159
11
234.440445
21
103.347818
0
LINE
8
Layer 1
10
234.440445
20
103.347818
11
233.948443
21
104.322805
0
LINE
8
Layer 1
10
233.948443
20
104.322805
11
233.250810
21
105.150950
0
LINE
8
Layer 1
10
233.250810
20
105.150950
11
232.357924
21
105.808191
0
LINE
8
Layer 1
10
232.357924
20
105.808191
11
231.292896
21
106.263520
0
LINE
8
Layer 1
10
231.292896
20
106.263520
11
230.088962
21
106.528349
0
LINE
8
Layer 1
10
230.088962
20
106.528349
11
228.779360
21
106.614090
0
LINE
8
Layer 1
10
228.779360
20
106.614090
11
225.988879
21
106.374849
0
LINE
8
Layer 1
10
225.988879
20
106.374849
11
224.799284
21
106.067845
0
LINE
8
Layer 1
10
224.799284
20
106.067845
11
223.763199
21
105.628849
0
LINE
8
Layer 1
10
223.763199
20
105.628849
11
222.892933
21
105.052559
0
LINE
8
Layer 1
10
222.892933
20
105.052559
11
222.200795
21
104.333674
0
LINE
8
Layer 1
10
222.200795
20
104.333674
11
221.699094
21
103.466892
0
LINE
8
Layer 1
10
221.699094
20
103.466892
11
221.400140
21
102.446910
0
LINE
8
Layer 1
10
221.400140
20
102.446910
11
221.378264
21
101.715214
0
LINE
8
Layer 1
10
221.378264
20
101.715214
11
221.574010
21
101.056442
0
LINE
8
Layer 1
10
221.574010
20
101.056442
11
221.972393
21
100.463026
0
LINE
8
Layer 1
10
221.972393
20
100.463026
11
222.558429
21
99.927399
0
LINE
8
Layer 1
10
222.558429
20
99.927399
11
224.233527
21
98.999242
0
LINE
8
Layer 1
10
224.233527
20
98.999242
11
226.479431
21
98.211434
0
LINE
8
Layer 1
10
226.479431
20
98.211434
11
232.204165
21
96.814704
0
LINE
8
Layer 1
10
232.204165
20
96.814704
11
238.773651
21
95.252899
0
LINE
8
Layer 1
10
238.773651
20
95.252899
11
242.075496
21
94.258746
0
LINE
8
Layer 1
10
242.075496
20
94.258746
11
245.228912
21
93.041708
0
LINE
8
Layer 1
10
245.228912
20
93.041708
11
248.114026
21
91.541245
0
LINE
8
Layer 1
10
248.114026
20
91.541245
11
250.610966
21
89.696820
0
LINE
8
Layer 1
10
250.610966
20
89.696820
11
251.676411
21
88.626702
0
LINE
8
Layer 1
10
251.676411
20
88.626702
11
252.599860
21
87.447892
0
LINE
8
Layer 1
10
252.599860
20
87.447892
11
253.366330
21
86.152822
0
LINE
8
Layer 1
10
253.366330
20
86.152822
11
253.960835
21
84.733924
0
LINE
8
Layer 1
10
253.960835
20
84.733924
11
254.368393
21
83.183631
0
LINE
8
Layer 1
10
254.368393
20
83.183631
11
254.574019
21
81.494376
0
LINE
8
Layer 1
10
254.574019
20
81.494376
11
254.562730
21
79.658592
0
LINE
8
Layer 1
10
254.562730
20
79.658592
11
254.319540
21
77.668710
0
LINE
8
Layer 1
10
254.319540
20
77.668710
11
253.803462
21
75.414101
0
LINE
8
Layer 1
10
253.803462
20
75.414101
11
253.065273
21
73.258325
0
LINE
8
Layer 1
10
253.065273
20
73.258325
11
252.104122
21
71.207817
0
LINE
8
Layer 1
10
252.104122
20
71.207817
11
250.919154
21
69.269008
0
LINE
8
Layer 1
10
250.919154
20
69.269008
11
249.509519
21
67.448334
0
LINE
8
Layer 1
10
249.509519
20
67.448334
11
247.874362
21
65.752227
0
LINE
8
Layer 1
10
247.874362
20
65.752227
11
246.012832
21
64.187120
0
LINE
8
Layer 1
10
246.012832
20
64.187120
11
243.924075
21
62.759448
0
LINE
8
Layer 1
10
243.924075
20
62.759448
11
241.607239
21
61.475643
0
LINE
8
Layer 1
10
241.607239
20
61.475643
11
239.061471
21
60.342139
0
LINE
8
Layer 1
10
239.061471
20
60.342139
11
236.285918
21
59.365369
0
LINE
8
Layer 1
10
236.285918
20
59.365369
11
233.279728
21
58.551768
0
LINE
8
Layer 1
10
233.279728
20
58.551768
11
230.042048
21
57.907768
0
LINE
8
Layer 1
10
230.042048
20
57.907768
11
226.572025
21
57.439802
0
LINE
8
Layer 1
10
226.572025
20
57.439802
11
222.868807
21
57.154305
0
LINE
8
Layer 1
10
222.868807
20
57.154305
11
218.931540
21
57.057710
0
LINE
8
Layer 1
10
218.931540
20
57.057710
11
213.866285
21
57.267785
0
LINE
8
Layer 1
10
213.866285
20
57.267785
11
208.934109
21
57.956962
0
LINE
8
Layer 1
10
208.934109
20
57.956962
11
206.577649
21
58.508848
0
LINE
8
Layer 1
10
206.577649
20
58.508848
11
204.326129
21
59.213671
0
LINE
8
Layer 1
10
204.326129
20
59.213671
11
202.203438
21
60.082483
0
LINE
8
Layer 1
10
202.203438
20
60.082483
11
200.233465
21
61.126340
0
LINE
8
Layer 1
10
200.233465
20
61.126340
11
198.440101
21
62.356294
0
LINE
8
Layer 1
10
198.440101
20
62.356294
11
196.847235
21
63.783399
0
LINE
8
Layer 1
10
196.847235
20
63.783399
11
195.478758
21
65.418710
0
LINE
8
Layer 1
10
195.478758
20
65.418710
11
194.358559
21
67.273278
0
LINE
8
Layer 1
10
194.358559
20
67.273278
11
193.510527
21
69.358159
0
LINE
8
Layer 1
10
193.510527
20
69.358159
11
192.958554
21
71.684405
0
LINE
8
Layer 1
10
192.958554
20
71.684405
11
192.726528
21
74.263071
0
LINE
8
Layer 1
10
192.726528
20
74.263071
11
192.838340
21
77.105210
0
LINE
8
Layer 1
10
192.838340
20
77.105210
11
215.138000
21
77.104800
0
LINE
8
Layer 1
10
215.138000
20
77.104800
11
215.138000
21
77.104800
0
LINE
8
Layer 1
10
261.688000
20
58.745400
11
272.075500
21
117.760600
0
LINE
8
Layer 1
10
272.075500
20
117.760600
11
295.502000
21
117.761000
0
LINE
8
Layer 1
10
295.502000
20
117.761000
11
285.114500
21
58.745800
0
LINE
8
Layer 1
10
285.114500
20
58.745800
11
261.688000
21
58.745400
0
LINE
8
Layer 1
10
261.688000
20
58.745400
11
261.688000
21
58.745400
0
LINE
8
Layer 1
10
276.336000
20
141.978000
11
299.762000
21
141.978000
0
LINE
8
Layer 1
10
299.762000
20
141.978000
11
296.827770
21
125.309300
0
LINE
8
Layer 1
10
296.827770
20
125.309300
11
273.402000
21
125.309000
0
LINE
8
Layer 1
10
273.402000
20
125.309000
11
276.336230
21
141.977700
0
LINE
8
Layer 1
10
276.336230
20
141.977700
11
276.336000
21
141.978000
0
LINE
8
Layer 1
10
321.458000
20
77.104800
11
321.330049
21
75.436440
0
LINE
8
Layer 1
10
321.330049
20
75.436440
11
321.555565
21
73.979415
0
LINE
8
Layer 1
10
321.555565
20
73.979415
11
322.113957
21
72.733725
0
LINE
8
Layer 1
10
322.113957
20
72.733725
11
322.984640
21
71.699370
0
LINE
8
Layer 1
10
322.984640
20
71.699370
11
324.049465
21
70.942333
0
LINE
8
Layer 1
10
324.049465
20
70.942333
11
325.327856
21
70.375795
0
LINE
8
Layer 1
10
325.327856
20
70.375795
11
326.791290
21
70.020592
0
LINE
8
Layer 1
10
326.791290
20
70.020592
11
328.411240
21
69.897560
0
LINE
8
Layer 1
10
328.411240
20
69.897560
11
331.135287
21
70.138785
0
LINE
8
Layer 1
10
331.135287
20
70.138785
11
332.448010
21
70.473942
0
LINE
8
Layer 1
10
332.448010
20
70.473942
11
333.669825
21
70.982019
0
LINE
8
Layer 1
10
333.669825
20
70.982019
11
334.757198
21
71.685433
0
LINE
8
Layer 1
10
334.757198
20
71.685433
11
335.666598
21
72.606601
0
LINE
8
Layer 1
10
335.666598
20
72.606601
11
336.354493
21
73.767941
0
LINE
8
Layer 1
10
336.354493
20
73.767941
11
336.777350
21
75.191870
0
LINE
8
Layer 1
10
336.777350
20
75.191870
11
336.821150
21
76.030505
0
LINE
8
Layer 1
10
336.821150
20
76.030505
11
336.650352
21
76.778170
0
LINE
8
Layer 1
10
336.650352
20
76.778170
11
336.279723
21
77.443546
0
LINE
8
Layer 1
10
336.279723
20
77.443546
11
335.724031
21
78.035316
0
LINE
8
Layer 1
10
335.724031
20
78.035316
11
334.116528
21
79.032765
0
LINE
8
Layer 1
10
334.116528
20
79.032765
11
331.945983
21
79.839974
0
LINE
8
Layer 1
10
331.945983
20
79.839974
11
329.330535
21
80.526400
0
LINE
8
Layer 1
10
329.330535
20
80.526400
11
326.388324
21
81.161499
0
LINE
8
Layer 1
10
326.388324
20
81.161499
11
319.996174
21
82.555546
0
LINE
8
Layer 1
10
319.996174
20
82.555546
11
316.782514
21
83.453408
0
LINE
8
Layer 1
10
316.782514
20
83.453408
11
313.714652
21
84.577772
0
LINE
8
Layer 1
10
313.714652
20
84.577772
11
310.910726
21
85.998093
0
LINE
8
Layer 1
10
310.910726
20
85.998093
11
309.644659
21
86.840944
0
LINE
8
Layer 1
10
309.644659
20
86.840944
11
308.488878
21
87.783830
0
LINE
8
Layer 1
10
308.488878
20
87.783830
11
307.458151
21
88.835435
0
LINE
8
Layer 1
10
307.458151
20
88.835435
11
306.567246
21
90.004440
0
LINE
8
Layer 1
10
306.567246
20
90.004440
11
305.830930
21
91.299527
0
LINE
8
Layer 1
10
305.830930
20
91.299527
11
305.263971
21
92.729378
0
LINE
8
Layer 1
10
305.263971
20
92.729378
11
304.881135
21
94.302676
0
LINE
8
Layer 1
10
304.881135
20
94.302676
11
304.697192
21
96.028103
0
LINE
8
Layer 1
10
304.697192
20
96.028103
11
304.726908
21
97.914340
0
LINE
8
Layer 1
10
304.726908
20
97.914340
11
304.985050
21
99.970070
0
LINE
8
Layer 1
10
304.985050
20
99.970070
11
305.640137
21
102.675935
0
LINE
8
Layer 1
10
305.640137
20
102.675935
11
306.591741
21
105.140266
0
LINE
8
Layer 1
10
306.591741
20
105.140266
11
307.813607
21
107.372302
0
LINE
8
Layer 1
10
307.813607
20
107.372302
11
309.279482
21
109.381282
0
LINE
8
Layer 1
10
309.279482
20
109.381282
11
310.963111
21
111.176447
0
LINE
8
Layer 1
10
310.963111
20
111.176447
11
312.838240
21
112.767036
0
LINE
8
Layer 1
10
312.838240
20
112.767036
11
314.878614
21
114.162289
0
LINE
8
Layer 1
10
314.878614
20
114.162289
11
317.057979
21
115.371445
0
LINE
8
Layer 1
10
317.057979
20
115.371445
11
319.350080
21
116.403744
0
LINE
8
Layer 1
10
319.350080
20
116.403744
11
321.728664
21
117.268425
0
LINE
8
Layer 1
10
321.728664
20
117.268425
11
324.167476
21
117.974729
0
LINE
8
Layer 1
10
324.167476
20
117.974729
11
326.640261
21
118.531895
0
LINE
8
Layer 1
10
326.640261
20
118.531895
11
331.582734
21
119.235771
0
LINE
8
Layer 1
10
331.582734
20
119.235771
11
336.346050
21
119.453970
0
LINE
8
Layer 1
10
336.346050
20
119.453970
11
341.046069
21
119.297541
0
LINE
8
Layer 1
10
341.046069
20
119.297541
11
345.787055
21
118.751710
0
LINE
8
Layer 1
10
345.787055
20
118.751710
11
348.101839
21
118.296889
0
LINE
8
Layer 1
10
348.101839
20
118.296889
11
350.341579
21
117.701662
0
LINE
8
Layer 1
10
350.341579
20
117.701662
11
352.477847
21
116.951678
0
LINE
8
Layer 1
10
352.477847
20
116.951678
11
354.482213
21
116.032584
0
LINE
8
Layer 1
10
354.482213
20
116.032584
11
356.326248
21
114.930028
0
LINE
8
Layer 1
10
356.326248
20
114.930028
11
357.981526
21
113.629660
0
LINE
8
Layer 1
10
357.981526
20
113.629660
11
359.419615
21
112.117126
0
LINE
8
Layer 1
10
359.419615
20
112.117126
11
360.612089
21
110.378076
0
LINE
8
Layer 1
10
360.612089
20
110.378076
11
361.530518
21
108.398157
0
LINE
8
Layer 1
10
361.530518
20
108.398157
11
362.146474
21
106.163018
0
LINE
8
Layer 1
10
362.146474
20
106.163018
11
362.431527
21
103.658306
0
LINE
8
Layer 1
10
362.431527
20
103.658306
11
362.357250
21
100.869670
0
LINE
8
Layer 1
10
362.357250
20
100.869670
11
341.071000
21
100.870000
0
LINE
8
Layer 1
10
341.071000
20
100.870000
11
341.032677
21
102.204159
0
LINE
8
Layer 1
10
341.032677
20
102.204159
11
340.760445
21
103.347818
0
LINE
8
Layer 1
10
340.760445
20
103.347818
11
340.268443
21
104.322805
0
LINE
8
Layer 1
10
340.268443
20
104.322805
11
339.570810
21
105.150950
0
LINE
8
Layer 1
10
339.570810
20
105.150950
11
338.677924
21
105.808191
0
LINE
8
Layer 1
10
338.677924
20
105.808191
11
337.612896
21
106.263520
0
LINE
8
Layer 1
10
337.612896
20
106.263520
11
336.408962
21
106.528349
0
LINE
8
Layer 1
10
336.408962
20
106.528349
11
335.099360
21
106.614090
0
LINE
8
Layer 1
10
335.099360
20
106.614090
11
332.308879
21
106.374849
0
LINE
8
Layer 1
10
332.308879
20
106.374849
11
331.119284
21
106.067845
0
LINE
8
Layer 1
10
331.119284
20
106.067845
11
330.083199
21
105.628849
0
LINE
8
Layer 1
10
330.083199
20
105.628849
11
329.212933
21
105.052559
0
LINE
8
Layer 1
10
329.212933
20
105.052559
11
328.520795
21
104.333674
0
LINE
8
Layer 1
10
328.520795
20
104.333674
11
328.019094
21
103.466892
0
LINE
8
Layer 1
10
328.019094
20
103.466892
11
327.720140
21
102.446910
0
LINE
8
Layer 1
10
327.720140
20
102.446910
11
327.698264
21
101.715214
0
LINE
8
Layer 1
10
327.698264
20
101.715214
11
327.894010
21
101.056442
0
LINE
8
Layer 1
10
327.894010
20
101.056442
11
328.292393
21
100.463026
0
LINE
8
Layer 1
10
328.292393
20
100.463026
11
328.878429
21
99.927399
0
LINE
8
Layer 1
10
328.878429
20
99.927399
11
330.553527
21
98.999242
0
LINE
8
Layer 1
10
330.553527
20
98.999242
11
332.799431
21
98.211434
0
LINE
8
Layer 1
10
332.799431
20
98.211434
11
338.524165
21
96.814704
0
LINE
8
Layer 1
10
338.524165
20
96.814704
11
345.093651
21
95.252899
0
LINE
8
Layer 1
10
345.093651
20
95.252899
11
348.395496
21
94.258746
0
LINE
8
Layer 1
10
348.395496
20
94.258746
11
351.548912
21
93.041708
0
LINE
8
Layer 1
10
351.548912
20
93.041708
11
354.434026
21
91.541245
0
LINE
8
Layer 1
10
354.434026
20
91.541245
11
356.930966
21
89.696820
0
LINE
8
Layer 1
10
356.930966
20
89.696820
11
357.996411
21
88.626702
0
LINE
8
Layer 1
10
357.996411
20
88.626702
11
358.919860
21
87.447892
0
LINE
8
Layer 1
10
358.919860
20
87.447892
11
359.686330
21
86.152822
0
LINE
8
Layer 1
10
359.686330
20
86.152822
11
360.280835
21
84.733924
0
LINE
8
Layer 1
10
360.280835
20
84.733924
11
360.688393
21
83.183631
0
LINE
8
Layer 1
10
360.688393
20
83.183631
11
360.894019
21
81.494376
0
LINE
8
Layer 1
10
360.894019
20
81.494376
11
360.882730
21
79.658592
0
LINE
8
Layer 1
10
360.882730
20
79.658592
11
360.639540
21
77.668710
0
LINE
8
Layer 1
10
360.639540
20
77.668710
11
360.123462
21
75.414101
0
LINE
8
Layer 1
10
360.123462
20
75.414101
11
359.385273
21
73.258325
0
LINE
8
Layer 1
10
359.385273
20
73.258325
11
358.424122
21
71.207817
0
LINE
8
Layer 1
10
358.424122
20
71.207817
11
357.239154
21
69.269008
0
LINE
8
Layer 1
10
357.239154
20
69.269008
11
355.829519
21
67.448334
0
LINE
8
Layer 1
10
355.829519
20
67.448334
11
354.194362
21
65.752227
0
LINE
8
Layer 1
10
354.194362
20
65.752227
11
352.332832
21
64.187120
0
LINE
8
Layer 1
10
352.332832
20
64.187120
11
350.244075
21
62.759448
0
LINE
8
Layer 1
10
350.244075
20
62.759448
11
347.927239
21
61.475643
0
LINE
8
Layer 1
10
347.927239
20
61.475643
11
345.381471
21
60.342139
0
LINE
8
Layer 1
10
345.381471
20
60.342139
11
342.605918
21
59.365369
0
LINE
8
Layer 1
10
342.605918
20
59.365369
11
339.599728
21
58.551768
0
LINE
8
Layer 1
10
339.599728
20
58.551768
11
336.362048
21
57.907768
0
LINE
8
Layer 1
10
336.362048
20
57.907768
11
332.892025
21
57.439802
0
LINE
8
Layer 1
10
332.892025
20
57.439802
11
329.188807
21
57.154305
0
LINE
8
Layer 1
10
329.188807
20
57.154305
11
325.251540
21
57.057710
0
LINE
8
Layer 1
10
325.251540
20
57.057710
11
320.186285
21
57.267785
0
LINE
8
Layer 1
10
320.186285
20
57.267785
11
315.254109
21
57.956962
0
LINE
8
Layer 1
10
315.254109
20
57.956962
11
312.897649
21
58.508848
0
LINE
8
Layer 1
10
312.897649
20
58.508848
11
310.646129
21
59.213671
0
LINE
8
Layer 1
10
310.646129
20
59.213671
11
308.523438
21
60.082483
0
LINE
8
Layer 1
10
308.523438
20
60.082483
11
306.553465
21
61.126340
0
LINE
8
Layer 1
10
306.553465
20
61.126340
11
304.760101
21
62.356294
0
LINE
8
Layer 1
10
304.760101
20
62.356294
11
303.167235
21
63.783399
0
LINE
8
Layer 1
10
303.167235
20
63.783399
11
301.798758
21
65.418710
0
LINE
8
Layer 1
10
301.798758
20
65.418710
11
300.678559
21
67.273278
0
LINE
8
Layer 1
10
300.678559
20
67.273278
11
299.830528
21
69.358159
0
LINE
8
Layer 1
10
299.830528
20
69.358159
11
299.278554
21
71.684405
0
LINE
8
Layer 1
10
299.278554
20
71.684405
11
299.046528
21
74.263071
0
LINE
8
Layer 1
10
299.046528
20
74.263071
11
299.158340
21
77.105210
0
LINE
8
Layer 1
10
299.158340
20
77.105210
11
321.458000
21
77.104800
0
LINE
8
Layer 1
10
321.458000
20
77.104800
11
321.458000
21
77.104800
 0 
ENDSEC
 0 
EOF