999
"DXF R12 Output" (www.mydxf.blogspot.com)
 0 
SECTION
 2 
HEADER
 9 
$ACADVER
 1 
AC1009
 9 
$EXTMIN
 10 
 0 
 20 
 0 
 9 
$EXTMAX
 10 
 8.5 
 20 
 11 
 0 
ENDSEC
 0 
SECTION
 2 
ENTITIES
0
LINE
8
Layer 1
10
424.640000
20
92.072300
11
424.527385
21
89.842137
0
LINE
8
Layer 1
10
424.527385
20
89.842137
11
424.196849
21
87.676394
0
LINE
8
Layer 1
10
424.196849
20
87.676394
11
423.659358
21
85.586036
0
LINE
8
Layer 1
10
423.659358
20
85.586036
11
422.925874
21
83.582027
0
LINE
8
Layer 1
10
422.925874
20
83.582027
11
422.007364
21
81.675330
0
LINE
8
Layer 1
10
422.007364
20
81.675330
11
420.914791
21
79.876912
0
LINE
8
Layer 1
10
420.914791
20
79.876912
11
419.659120
21
78.197734
0
LINE
8
Layer 1
10
419.659120
20
78.197734
11
418.251315
21
76.648763
0
LINE
8
Layer 1
10
418.251315
20
76.648763
11
416.702341
21
75.240961
0
LINE
8
Layer 1
10
416.702341
20
75.240961
11
415.023162
21
73.985293
0
LINE
8
Layer 1
10
415.023162
20
73.985293
11
413.224743
21
72.892724
0
LINE
8
Layer 1
10
413.224743
20
72.892724
11
411.318048
21
71.974217
0
LINE
8
Layer 1
10
411.318048
20
71.974217
11
409.314042
21
71.240737
0
LINE
8
Layer 1
10
409.314042
20
71.240737
11
407.223689
21
70.703248
0
LINE
8
Layer 1
10
407.223689
20
70.703248
11
405.057953
21
70.372714
0
LINE
8
Layer 1
10
405.057953
20
70.372714
11
402.827800
21
70.260100
0
LINE
8
Layer 1
10
402.827800
20
70.260100
11
400.356803
21
70.398551
0
LINE
8
Layer 1
10
400.356803
20
70.398551
11
397.966420
21
70.804148
0
LINE
8
Layer 1
10
397.966420
20
70.804148
11
395.671782
21
71.462256
0
LINE
8
Layer 1
10
395.671782
20
71.462256
11
393.488020
21
72.358240
0
LINE
8
Layer 1
10
393.488020
20
72.358240
11
393.488000
21
0.132357
0
LINE
8
Layer 1
10
393.488000
20
0.132357
11
0.132292
21
0.132357
0
LINE
8
Layer 1
10
0.132292
20
0.132357
11
0.132292
21
184.039000
0
LINE
8
Layer 1
10
0.132292
20
184.039000
11
393.488000
21
184.039000
0
LINE
8
Layer 1
10
393.488000
20
184.039000
11
393.488000
21
111.786000
0
LINE
8
Layer 1
10
393.488000
20
111.786000
11
395.671762
21
112.681986
0
LINE
8
Layer 1
10
395.671762
20
112.681986
11
397.966400
21
113.340094
0
LINE
8
Layer 1
10
397.966400
20
113.340094
11
400.356783
21
113.745690
0
LINE
8
Layer 1
10
400.356783
20
113.745690
11
402.827780
21
113.884140
0
LINE
8
Layer 1
10
402.827780
20
113.884140
11
405.057943
21
113.771525
0
LINE
8
Layer 1
10
405.057943
20
113.771525
11
407.223686
21
113.440989
0
LINE
8
Layer 1
10
407.223686
20
113.440989
11
409.314044
21
112.903498
0
LINE
8
Layer 1
10
409.314044
20
112.903498
11
411.318053
21
112.170014
0
LINE
8
Layer 1
10
411.318053
20
112.170014
11
413.224750
21
111.251504
0
LINE
8
Layer 1
10
413.224750
20
111.251504
11
415.023168
21
110.158931
0
LINE
8
Layer 1
10
415.023168
20
110.158931
11
416.702346
21
108.903260
0
LINE
8
Layer 1
10
416.702346
20
108.903260
11
418.251318
21
107.495455
0
LINE
8
Layer 1
10
418.251318
20
107.495455
11
419.659119
21
105.946481
0
LINE
8
Layer 1
10
419.659119
20
105.946481
11
420.914787
21
104.267302
0
LINE
8
Layer 1
10
420.914787
20
104.267302
11
422.007356
21
102.468883
0
LINE
8
Layer 1
10
422.007356
20
102.468883
11
422.925863
21
100.562188
0
LINE
8
Layer 1
10
422.925863
20
100.562188
11
423.659343
21
98.558182
0
LINE
8
Layer 1
10
423.659343
20
98.558182
11
424.196832
21
96.467829
0
LINE
8
Layer 1
10
424.196832
20
96.467829
11
424.527366
21
94.302093
0
LINE
8
Layer 1
10
424.527366
20
94.302093
11
424.639980
21
92.071940
0
LINE
8
Layer 1
10
424.639980
20
92.071940
11
424.640000
21
92.072300
0
LINE
8
Layer 1
10
23.701300
20
22.233000
11
369.916000
21
22.233000
0
LINE
8
Layer 1
10
369.916000
20
22.233000
11
369.916000
21
161.938000
0
LINE
8
Layer 1
10
369.916000
20
161.938000
11
23.701300
21
161.938000
0
LINE
8
Layer 1
10
23.701300
20
161.938000
11
23.701300
21
22.233000
0
LINE
8
Layer 1
10
23.701300
20
22.233000
11
23.701300
21
22.233000
0
LINE
8
Layer 1
10
12.588900
20
11.120500
11
381.029000
21
11.120500
0
LINE
8
Layer 1
10
381.029000
20
11.120500
11
381.029000
21
173.051000
0
LINE
8
Layer 1
10
381.029000
20
173.051000
11
12.588900
21
173.051000
0
LINE
8
Layer 1
10
12.588900
20
173.051000
11
12.588900
21
11.120500
0
LINE
8
Layer 1
10
12.588900
20
11.120500
11
12.588900
21
11.120500
0
LINE
8
Layer 1
10
64.896900
20
77.102200
11
64.768949
21
75.433840
0
LINE
8
Layer 1
10
64.768949
20
75.433840
11
64.994464
21
73.976815
0
LINE
8
Layer 1
10
64.994464
20
73.976815
11
65.552857
21
72.731125
0
LINE
8
Layer 1
10
65.552857
20
72.731125
11
66.423540
21
71.696770
0
LINE
8
Layer 1
10
66.423540
20
71.696770
11
67.488365
21
70.939733
0
LINE
8
Layer 1
10
67.488365
20
70.939733
11
68.766756
21
70.373195
0
LINE
8
Layer 1
10
68.766756
20
70.373195
11
70.230190
21
70.017992
0
LINE
8
Layer 1
10
70.230190
20
70.017992
11
71.850140
21
69.894960
0
LINE
8
Layer 1
10
71.850140
20
69.894960
11
74.574187
21
70.136185
0
LINE
8
Layer 1
10
74.574187
20
70.136185
11
75.886910
21
70.471342
0
LINE
8
Layer 1
10
75.886910
20
70.471342
11
77.108725
21
70.979419
0
LINE
8
Layer 1
10
77.108725
20
70.979419
11
78.196098
21
71.682833
0
LINE
8
Layer 1
10
78.196098
20
71.682833
11
79.105498
21
72.604001
0
LINE
8
Layer 1
10
79.105498
20
72.604001
11
79.793393
21
73.765341
0
LINE
8
Layer 1
10
79.793393
20
73.765341
11
80.216250
21
75.189270
0
LINE
8
Layer 1
10
80.216250
20
75.189270
11
80.260050
21
76.027905
0
LINE
8
Layer 1
10
80.260050
20
76.027905
11
80.089252
21
76.775570
0
LINE
8
Layer 1
10
80.089252
20
76.775570
11
79.718623
21
77.440946
0
LINE
8
Layer 1
10
79.718623
20
77.440946
11
79.162931
21
78.032716
0
LINE
8
Layer 1
10
79.162931
20
78.032716
11
77.555428
21
79.030165
0
LINE
8
Layer 1
10
77.555428
20
79.030165
11
75.384883
21
79.837374
0
LINE
8
Layer 1
10
75.384883
20
79.837374
11
72.769435
21
80.523800
0
LINE
8
Layer 1
10
72.769435
20
80.523800
11
69.827224
21
81.158899
0
LINE
8
Layer 1
10
69.827224
20
81.158899
11
63.435074
21
82.552946
0
LINE
8
Layer 1
10
63.435074
20
82.552946
11
60.221414
21
83.450808
0
LINE
8
Layer 1
10
60.221414
20
83.450808
11
57.153552
21
84.575172
0
LINE
8
Layer 1
10
57.153552
20
84.575172
11
54.349626
21
85.995493
0
LINE
8
Layer 1
10
54.349626
20
85.995493
11
53.083559
21
86.838344
0
LINE
8
Layer 1
10
53.083559
20
86.838344
11
51.927778
21
87.781230
0
LINE
8
Layer 1
10
51.927778
20
87.781230
11
50.897051
21
88.832835
0
LINE
8
Layer 1
10
50.897051
20
88.832835
11
50.006146
21
90.001840
0
LINE
8
Layer 1
10
50.006146
20
90.001840
11
49.269830
21
91.296927
0
LINE
8
Layer 1
10
49.269830
20
91.296927
11
48.702871
21
92.726778
0
LINE
8
Layer 1
10
48.702871
20
92.726778
11
48.320035
21
94.300076
0
LINE
8
Layer 1
10
48.320035
20
94.300076
11
48.136092
21
96.025503
0
LINE
8
Layer 1
10
48.136092
20
96.025503
11
48.165808
21
97.911740
0
LINE
8
Layer 1
10
48.165808
20
97.911740
11
48.423950
21
99.967470
0
LINE
8
Layer 1
10
48.423950
20
99.967470
11
49.079037
21
102.673335
0
LINE
8
Layer 1
10
49.079037
20
102.673335
11
50.030641
21
105.137666
0
LINE
8
Layer 1
10
50.030641
20
105.137666
11
51.252507
21
107.369702
0
LINE
8
Layer 1
10
51.252507
20
107.369702
11
52.718382
21
109.378682
0
LINE
8
Layer 1
10
52.718382
20
109.378682
11
54.402011
21
111.173847
0
LINE
8
Layer 1
10
54.402011
20
111.173847
11
56.277140
21
112.764436
0
LINE
8
Layer 1
10
56.277140
20
112.764436
11
58.317514
21
114.159689
0
LINE
8
Layer 1
10
58.317514
20
114.159689
11
60.496879
21
115.368845
0
LINE
8
Layer 1
10
60.496879
20
115.368845
11
62.788980
21
116.401144
0
LINE
8
Layer 1
10
62.788980
20
116.401144
11
65.167564
21
117.265825
0
LINE
8
Layer 1
10
65.167564
20
117.265825
11
67.606376
21
117.972129
0
LINE
8
Layer 1
10
67.606376
20
117.972129
11
70.079161
21
118.529295
0
LINE
8
Layer 1
10
70.079161
20
118.529295
11
75.021634
21
119.233171
0
LINE
8
Layer 1
10
75.021634
20
119.233171
11
79.784950
21
119.451370
0
LINE
8
Layer 1
10
79.784950
20
119.451370
11
84.484969
21
119.294941
0
LINE
8
Layer 1
10
84.484969
20
119.294941
11
89.225955
21
118.749110
0
LINE
8
Layer 1
10
89.225955
20
118.749110
11
91.540739
21
118.294289
0
LINE
8
Layer 1
10
91.540739
20
118.294289
11
93.780479
21
117.699062
0
LINE
8
Layer 1
10
93.780479
20
117.699062
11
95.916747
21
116.949078
0
LINE
8
Layer 1
10
95.916747
20
116.949078
11
97.921113
21
116.029984
0
LINE
8
Layer 1
10
97.921113
20
116.029984
11
99.765148
21
114.927428
0
LINE
8
Layer 1
10
99.765148
20
114.927428
11
101.420426
21
113.627060
0
LINE
8
Layer 1
10
101.420426
20
113.627060
11
102.858515
21
112.114526
0
LINE
8
Layer 1
10
102.858515
20
112.114526
11
104.050989
21
110.375476
0
LINE
8
Layer 1
10
104.050989
20
110.375476
11
104.969418
21
108.395557
0
LINE
8
Layer 1
10
104.969418
20
108.395557
11
105.585374
21
106.160418
0
LINE
8
Layer 1
10
105.585374
20
106.160418
11
105.870427
21
103.655706
0
LINE
8
Layer 1
10
105.870427
20
103.655706
11
105.796150
21
100.867070
0
LINE
8
Layer 1
10
105.796150
20
100.867070
11
84.510500
21
100.867000
0
LINE
8
Layer 1
10
84.510500
20
100.867000
11
84.472177
21
102.201159
0
LINE
8
Layer 1
10
84.472177
20
102.201159
11
84.199945
21
103.344818
0
LINE
8
Layer 1
10
84.199945
20
103.344818
11
83.707943
21
104.319805
0
LINE
8
Layer 1
10
83.707943
20
104.319805
11
83.010310
21
105.147950
0
LINE
8
Layer 1
10
83.010310
20
105.147950
11
82.117424
21
105.805191
0
LINE
8
Layer 1
10
82.117424
20
105.805191
11
81.052395
21
106.260520
0
LINE
8
Layer 1
10
81.052395
20
106.260520
11
79.848462
21
106.525349
0
LINE
8
Layer 1
10
79.848462
20
106.525349
11
78.538860
21
106.611090
0
LINE
8
Layer 1
10
78.538860
20
106.611090
11
75.748379
21
106.371849
0
LINE
8
Layer 1
10
75.748379
20
106.371849
11
74.558784
21
106.064845
0
LINE
8
Layer 1
10
74.558784
20
106.064845
11
73.522699
21
105.625849
0
LINE
8
Layer 1
10
73.522699
20
105.625849
11
72.652433
21
105.049559
0
LINE
8
Layer 1
10
72.652433
20
105.049559
11
71.960295
21
104.330674
0
LINE
8
Layer 1
10
71.960295
20
104.330674
11
71.458594
21
103.463892
0
LINE
8
Layer 1
10
71.458594
20
103.463892
11
71.159640
21
102.443910
0
LINE
8
Layer 1
10
71.159640
20
102.443910
11
71.137764
21
101.712214
0
LINE
8
Layer 1
10
71.137764
20
101.712214
11
71.333510
21
101.053442
0
LINE
8
Layer 1
10
71.333510
20
101.053442
11
71.731893
21
100.460026
0
LINE
8
Layer 1
10
71.731893
20
100.460026
11
72.317929
21
99.924399
0
LINE
8
Layer 1
10
72.317929
20
99.924399
11
73.993027
21
98.996242
0
LINE
8
Layer 1
10
73.993027
20
98.996242
11
76.238931
21
98.208434
0
LINE
8
Layer 1
10
76.238931
20
98.208434
11
81.963665
21
96.811704
0
LINE
8
Layer 1
10
81.963665
20
96.811704
11
88.533151
21
95.249899
0
LINE
8
Layer 1
10
88.533151
20
95.249899
11
91.834996
21
94.255746
0
LINE
8
Layer 1
10
91.834996
20
94.255746
11
94.988412
21
93.038708
0
LINE
8
Layer 1
10
94.988412
20
93.038708
11
97.873526
21
91.538245
0
LINE
8
Layer 1
10
97.873526
20
91.538245
11
100.370466
21
89.693820
0
LINE
8
Layer 1
10
100.370466
20
89.693820
11
101.435911
21
88.623702
0
LINE
8
Layer 1
10
101.435911
20
88.623702
11
102.359360
21
87.444892
0
LINE
8
Layer 1
10
102.359360
20
87.444892
11
103.125830
21
86.149822
0
LINE
8
Layer 1
10
103.125830
20
86.149822
11
103.720335
21
84.730924
0
LINE
8
Layer 1
10
103.720335
20
84.730924
11
104.127893
21
83.180631
0
LINE
8
Layer 1
10
104.127893
20
83.180631
11
104.333519
21
81.491376
0
LINE
8
Layer 1
10
104.333519
20
81.491376
11
104.322230
21
79.655592
0
LINE
8
Layer 1
10
104.322230
20
79.655592
11
104.079040
21
77.665710
0
LINE
8
Layer 1
10
104.079040
20
77.665710
11
103.562962
21
75.411101
0
LINE
8
Layer 1
10
103.562962
20
75.411101
11
102.824773
21
73.255325
0
LINE
8
Layer 1
10
102.824773
20
73.255325
11
101.863622
21
71.204817
0
LINE
8
Layer 1
10
101.863622
20
71.204817
11
100.678654
21
69.266008
0
LINE
8
Layer 1
10
100.678654
20
69.266008
11
99.269019
21
67.445334
0
LINE
8
Layer 1
10
99.269019
20
67.445334
11
97.633862
21
65.749227
0
LINE
8
Layer 1
10
97.633862
20
65.749227
11
95.772332
21
64.184120
0
LINE
8
Layer 1
10
95.772332
20
64.184120
11
93.683575
21
62.756448
0
LINE
8
Layer 1
10
93.683575
20
62.756448
11
91.366739
21
61.472643
0
LINE
8
Layer 1
10
91.366739
20
61.472643
11
88.820971
21
60.339139
0
LINE
8
Layer 1
10
88.820971
20
60.339139
11
86.045418
21
59.362369
0
LINE
8
Layer 1
10
86.045418
20
59.362369
11
83.039228
21
58.548768
0
LINE
8
Layer 1
10
83.039228
20
58.548768
11
79.801548
21
57.904768
0
LINE
8
Layer 1
10
79.801548
20
57.904768
11
76.331525
21
57.436802
0
LINE
8
Layer 1
10
76.331525
20
57.436802
11
72.628307
21
57.151305
0
LINE
8
Layer 1
10
72.628307
20
57.151305
11
68.691040
21
57.054710
0
LINE
8
Layer 1
10
68.691040
20
57.054710
11
63.625785
21
57.264785
0
LINE
8
Layer 1
10
63.625785
20
57.264785
11
58.693609
21
57.953962
0
LINE
8
Layer 1
10
58.693609
20
57.953962
11
56.337149
21
58.505848
0
LINE
8
Layer 1
10
56.337149
20
58.505848
11
54.085629
21
59.210671
0
LINE
8
Layer 1
10
54.085629
20
59.210671
11
51.962938
21
60.079483
0
LINE
8
Layer 1
10
51.962938
20
60.079483
11
49.992965
21
61.123340
0
LINE
8
Layer 1
10
49.992965
20
61.123340
11
48.199601
21
62.353294
0
LINE
8
Layer 1
10
48.199601
20
62.353294
11
46.606735
21
63.780399
0
LINE
8
Layer 1
10
46.606735
20
63.780399
11
45.238258
21
65.415710
0
LINE
8
Layer 1
10
45.238258
20
65.415710
11
44.118059
21
67.270278
0
LINE
8
Layer 1
10
44.118059
20
67.270278
11
43.270027
21
69.355159
0
LINE
8
Layer 1
10
43.270027
20
69.355159
11
42.718054
21
71.681405
0
LINE
8
Layer 1
10
42.718054
20
71.681405
11
42.486028
21
74.260071
0
LINE
8
Layer 1
10
42.486028
20
74.260071
11
42.597840
21
77.102210
0
LINE
8
Layer 1
10
42.597840
20
77.102210
11
64.896900
21
77.102200
0
LINE
8
Layer 1
10
64.896900
20
77.102200
11
64.896900
21
77.102200
0
LINE
8
Layer 1
10
124.140000
20
139.837000
11
147.566000
21
139.837000
0
LINE
8
Layer 1
10
147.566000
20
139.837000
11
142.372240
21
110.328100
0
LINE
8
Layer 1
10
142.372240
20
110.328100
11
144.547117
21
112.433849
0
LINE
8
Layer 1
10
144.547117
20
112.433849
11
146.751293
21
114.271708
0
LINE
8
Layer 1
10
146.751293
20
114.271708
11
149.007868
21
115.837709
0
LINE
8
Layer 1
10
149.007868
20
115.837709
11
151.339943
21
117.127881
0
LINE
8
Layer 1
10
151.339943
20
117.127881
11
153.770617
21
118.138258
0
LINE
8
Layer 1
10
153.770617
20
118.138258
11
156.322991
21
118.864869
0
LINE
8
Layer 1
10
156.322991
20
118.864869
11
159.020165
21
119.303746
0
LINE
8
Layer 1
10
159.020165
20
119.303746
11
161.885240
21
119.450920
0
LINE
8
Layer 1
10
161.885240
20
119.450920
11
164.684441
21
119.344507
0
LINE
8
Layer 1
10
164.684441
20
119.344507
11
167.255173
21
119.027246
0
LINE
8
Layer 1
10
167.255173
20
119.027246
11
169.599275
21
118.502107
0
LINE
8
Layer 1
10
169.599275
20
118.502107
11
171.718588
21
117.772058
0
LINE
8
Layer 1
10
171.718588
20
117.772058
11
173.614955
21
116.840068
0
LINE
8
Layer 1
10
173.614955
20
116.840068
11
175.290214
21
115.709105
0
LINE
8
Layer 1
10
175.290214
20
115.709105
11
176.746208
21
114.382139
0
LINE
8
Layer 1
10
176.746208
20
114.382139
11
177.984778
21
112.862137
0
LINE
8
Layer 1
10
177.984778
20
112.862137
11
179.007763
21
111.152070
0
LINE
8
Layer 1
10
179.007763
20
111.152070
11
179.817005
21
109.254905
0
LINE
8
Layer 1
10
179.817005
20
109.254905
11
180.414344
21
107.173612
0
LINE
8
Layer 1
10
180.414344
20
107.173612
11
180.801623
21
104.911158
0
LINE
8
Layer 1
10
180.801623
20
104.911158
11
180.980681
21
102.470514
0
LINE
8
Layer 1
10
180.980681
20
102.470514
11
180.953359
21
99.854647
0
LINE
8
Layer 1
10
180.953359
20
99.854647
11
180.721498
21
97.066526
0
LINE
8
Layer 1
10
180.721498
20
97.066526
11
180.286940
21
94.109120
0
LINE
8
Layer 1
10
180.286940
20
94.109120
11
174.061300
21
58.744920
0
LINE
8
Layer 1
10
174.061300
20
58.744920
11
150.635000
21
58.745400
0
LINE
8
Layer 1
10
150.635000
20
58.745400
11
156.125100
21
89.942400
0
LINE
8
Layer 1
10
156.125100
20
89.942400
11
156.424073
21
92.097795
0
LINE
8
Layer 1
10
156.424073
20
92.097795
11
156.513664
21
94.137321
0
LINE
8
Layer 1
10
156.513664
20
94.137321
11
156.343736
21
96.008113
0
LINE
8
Layer 1
10
156.343736
20
96.008113
11
155.864154
21
97.657307
0
LINE
8
Layer 1
10
155.864154
20
97.657307
11
155.024781
21
99.032038
0
LINE
8
Layer 1
10
155.024781
20
99.032038
11
153.775481
21
100.079440
0
LINE
8
Layer 1
10
153.775481
20
100.079440
11
152.066116
21
100.746649
0
LINE
8
Layer 1
10
152.066116
20
100.746649
11
149.846550
21
100.980800
0
LINE
8
Layer 1
10
149.846550
20
100.980800
11
147.347791
21
100.767676
0
LINE
8
Layer 1
10
147.347791
20
100.767676
11
145.232885
21
100.141493
0
LINE
8
Layer 1
10
145.232885
20
100.141493
11
143.465739
21
99.122032
0
LINE
8
Layer 1
10
143.465739
20
99.122032
11
142.010264
21
97.729074
0
LINE
8
Layer 1
10
142.010264
20
97.729074
11
140.830368
21
95.982400
0
LINE
8
Layer 1
10
140.830368
20
95.982400
11
139.889961
21
93.901792
0
LINE
8
Layer 1
10
139.889961
20
93.901792
11
139.152952
21
91.507032
0
LINE
8
Layer 1
10
139.152952
20
91.507032
11
138.583250
21
88.817900
0
LINE
8
Layer 1
10
138.583250
20
88.817900
11
133.291590
21
58.745400
0
LINE
8
Layer 1
10
133.291590
20
58.745400
11
109.865000
21
58.745400
0
LINE
8
Layer 1
10
109.865000
20
58.745400
11
124.136600
21
139.837400
0
LINE
8
Layer 1
10
124.136600
20
139.837400
11
124.140000
21
139.837000
0
LINE
8
Layer 1
10
186.565000
20
58.745400
11
196.952500
21
117.760600
0
LINE
8
Layer 1
10
196.952500
20
117.760600
11
220.379000
21
117.761000
0
LINE
8
Layer 1
10
220.379000
20
117.761000
11
209.991500
21
58.745800
0
LINE
8
Layer 1
10
209.991500
20
58.745800
11
186.565000
21
58.745400
0
LINE
8
Layer 1
10
186.565000
20
58.745400
11
186.565000
21
58.745400
0
LINE
8
Layer 1
10
201.215000
20
141.975000
11
224.642000
21
141.975000
0
LINE
8
Layer 1
10
224.642000
20
141.975000
11
221.707770
21
125.306300
0
LINE
8
Layer 1
10
221.707770
20
125.306300
11
198.281000
21
125.307000
0
LINE
8
Layer 1
10
198.281000
20
125.307000
11
201.215230
21
141.975700
0
LINE
8
Layer 1
10
201.215230
20
141.975700
11
201.215000
21
141.975000
0
LINE
8
Layer 1
10
261.464000
20
58.745400
11
251.080638
21
58.319891
0
LINE
8
Layer 1
10
251.080638
20
58.319891
11
246.786778
21
58.294457
0
LINE
8
Layer 1
10
246.786778
20
58.294457
11
243.050894
21
58.422071
0
LINE
8
Layer 1
10
243.050894
20
58.422071
11
239.842557
21
58.723860
0
LINE
8
Layer 1
10
239.842557
20
58.723860
11
237.131340
21
59.220951
0
LINE
8
Layer 1
10
237.131340
20
59.220951
11
234.886814
21
59.934470
0
LINE
8
Layer 1
10
234.886814
20
59.934470
11
233.078550
21
60.885544
0
LINE
8
Layer 1
10
233.078550
20
60.885544
11
231.676121
21
62.095300
0
LINE
8
Layer 1
10
231.676121
20
62.095300
11
230.649098
21
63.584863
0
LINE
8
Layer 1
10
230.649098
20
63.584863
11
229.967052
21
65.375361
0
LINE
8
Layer 1
10
229.967052
20
65.375361
11
229.599556
21
67.487920
0
LINE
8
Layer 1
10
229.599556
20
67.487920
11
229.516181
21
69.943667
0
LINE
8
Layer 1
10
229.516181
20
69.943667
11
229.686499
21
72.763728
0
LINE
8
Layer 1
10
229.686499
20
72.763728
11
230.666500
21
79.581300
0
LINE
8
Layer 1
10
230.666500
20
79.581300
11
235.008310
21
104.245700
0
LINE
8
Layer 1
10
235.008310
20
104.245700
11
226.674000
21
104.246000
0
LINE
8
Layer 1
10
226.674000
20
104.246000
11
229.052600
21
117.760900
0
LINE
8
Layer 1
10
229.052600
20
117.760900
11
237.725000
21
117.761000
0
LINE
8
Layer 1
10
237.725000
20
117.761000
11
240.955560
21
136.117800
0
LINE
8
Layer 1
10
240.955560
20
136.117800
11
264.043000
21
136.117000
0
LINE
8
Layer 1
10
264.043000
20
136.117000
11
260.812440
21
117.760200
0
LINE
8
Layer 1
10
260.812440
20
117.760200
11
272.076000
21
117.761000
0
LINE
8
Layer 1
10
272.076000
20
117.761000
11
269.697400
21
104.246100
0
LINE
8
Layer 1
10
269.697400
20
104.246100
11
258.434000
21
104.246000
0
LINE
8
Layer 1
10
258.434000
20
104.246000
11
254.666340
21
82.846500
0
LINE
8
Layer 1
10
254.666340
20
82.846500
11
254.384140
21
80.979976
0
LINE
8
Layer 1
10
254.384140
20
80.979976
11
254.288441
21
79.422176
0
LINE
8
Layer 1
10
254.288441
20
79.422176
11
254.434029
21
78.154654
0
LINE
8
Layer 1
10
254.434029
20
78.154654
11
254.875691
21
77.158959
0
LINE
8
Layer 1
10
254.875691
20
77.158959
11
255.668215
21
76.416643
0
LINE
8
Layer 1
10
255.668215
20
76.416643
11
256.866388
21
75.909259
0
LINE
8
Layer 1
10
256.866388
20
75.909259
11
258.524997
21
75.618358
0
LINE
8
Layer 1
10
258.524997
20
75.618358
11
260.698830
21
75.525490
0
LINE
8
Layer 1
10
260.698830
20
75.525490
11
264.416000
21
75.525300
0
LINE
8
Layer 1
10
264.416000
20
75.525300
11
261.463250
21
58.742800
0
LINE
8
Layer 1
10
261.463250
20
58.742800
11
261.464000
21
58.745400
0
LINE
8
Layer 1
10
283.178000
20
116.861000
11
283.844078
21
119.636821
0
LINE
8
Layer 1
10
283.844078
20
119.636821
11
284.818047
21
122.221618
0
LINE
8
Layer 1
10
284.818047
20
122.221618
11
286.080068
21
124.617040
0
LINE
8
Layer 1
10
286.080068
20
124.617040
11
287.610300
21
126.824733
0
LINE
8
Layer 1
10
287.610300
20
126.824733
11
289.388904
21
128.846344
0
LINE
8
Layer 1
10
289.388904
20
128.846344
11
291.396041
21
130.683522
0
LINE
8
Layer 1
10
291.396041
20
130.683522
11
293.611869
21
132.337912
0
LINE
8
Layer 1
10
293.611869
20
132.337912
11
296.016550
21
133.811162
0
LINE
8
Layer 1
10
296.016550
20
133.811162
11
298.590243
21
135.104920
0
LINE
8
Layer 1
10
298.590243
20
135.104920
11
301.313109
21
136.220833
0
LINE
8
Layer 1
10
301.313109
20
136.220833
11
304.165308
21
137.160547
0
LINE
8
Layer 1
10
304.165308
20
137.160547
11
307.127000
21
137.925711
0
LINE
8
Layer 1
10
307.127000
20
137.925711
11
310.178345
21
138.517971
0
LINE
8
Layer 1
10
310.178345
20
138.517971
11
313.299503
21
138.938974
0
LINE
8
Layer 1
10
313.299503
20
138.938974
11
316.470635
21
139.190368
0
LINE
8
Layer 1
10
316.470635
20
139.190368
11
319.671900
21
139.273800
0
LINE
8
Layer 1
10
319.671900
20
139.273800
11
322.965579
21
139.166962
0
LINE
8
Layer 1
10
322.965579
20
139.166962
11
326.083026
21
138.852059
0
LINE
8
Layer 1
10
326.083026
20
138.852059
11
329.015502
21
138.337510
0
LINE
8
Layer 1
10
329.015502
20
138.337510
11
331.754267
21
137.631733
0
LINE
8
Layer 1
10
331.754267
20
137.631733
11
334.290581
21
136.743145
0
LINE
8
Layer 1
10
334.290581
20
136.743145
11
336.615703
21
135.680166
0
LINE
8
Layer 1
10
336.615703
20
135.680166
11
338.720893
21
134.451213
0
LINE
8
Layer 1
10
338.720893
20
134.451213
11
340.597413
21
133.064704
0
LINE
8
Layer 1
10
340.597413
20
133.064704
11
342.236520
21
131.529057
0
LINE
8
Layer 1
10
342.236520
20
131.529057
11
343.629477
21
129.852691
0
LINE
8
Layer 1
10
343.629477
20
129.852691
11
344.767543
21
128.044024
0
LINE
8
Layer 1
10
344.767543
20
128.044024
11
345.641977
21
126.111473
0
LINE
8
Layer 1
10
345.641977
20
126.111473
11
346.244039
21
124.063457
0
LINE
8
Layer 1
10
346.244039
20
124.063457
11
346.564991
21
121.908394
0
LINE
8
Layer 1
10
346.564991
20
121.908394
11
346.596091
21
119.654703
0
LINE
8
Layer 1
10
346.596091
20
119.654703
11
346.328600
21
117.310800
0
LINE
8
Layer 1
10
346.328600
20
117.310800
11
345.693579
21
114.525195
0
LINE
8
Layer 1
10
345.693579
20
114.525195
11
344.789552
21
111.921905
0
LINE
8
Layer 1
10
344.789552
20
111.921905
11
343.603000
21
109.514077
0
LINE
8
Layer 1
10
343.603000
20
109.514077
11
342.120404
21
107.314858
0
LINE
8
Layer 1
10
342.120404
20
107.314858
11
340.328244
21
105.337393
0
LINE
8
Layer 1
10
340.328244
20
105.337393
11
338.213003
21
103.594831
0
LINE
8
Layer 1
10
338.213003
20
103.594831
11
335.761161
21
102.100318
0
LINE
8
Layer 1
10
335.761161
20
102.100318
11
332.959200
21
100.867000
0
LINE
8
Layer 1
10
332.959200
20
100.867000
11
335.717173
21
99.514460
0
LINE
8
Layer 1
10
335.717173
20
99.514460
11
338.076942
21
97.900324
0
LINE
8
Layer 1
10
338.076942
20
97.900324
11
340.022537
21
96.016747
0
LINE
8
Layer 1
10
340.022537
20
96.016747
11
341.537990
21
93.855885
0
LINE
8
Layer 1
10
341.537990
20
93.855885
11
342.607332
21
91.409894
0
LINE
8
Layer 1
10
342.607332
20
91.409894
11
343.214593
21
88.670928
0
LINE
8
Layer 1
10
343.214593
20
88.670928
11
343.343806
21
85.631145
0
LINE
8
Layer 1
10
343.343806
20
85.631145
11
342.979000
21
82.282700
0
LINE
8
Layer 1
10
342.979000
20
82.282700
11
342.300964
21
79.363648
0
LINE
8
Layer 1
10
342.300964
20
79.363648
11
341.331219
21
76.606657
0
LINE
8
Layer 1
10
341.331219
20
76.606657
11
340.082778
21
74.015352
0
LINE
8
Layer 1
10
340.082778
20
74.015352
11
338.568656
21
71.593356
0
LINE
8
Layer 1
10
338.568656
20
71.593356
11
336.801868
21
69.344294
0
LINE
8
Layer 1
10
336.801868
20
69.344294
11
334.795428
21
67.271790
0
LINE
8
Layer 1
10
334.795428
20
67.271790
11
332.562352
21
65.379467
0
LINE
8
Layer 1
10
332.562352
20
65.379467
11
330.115652
21
63.670950
0
LINE
8
Layer 1
10
330.115652
20
63.670950
11
327.468345
21
62.149863
0
LINE
8
Layer 1
10
327.468345
20
62.149863
11
324.633445
21
60.819829
0
LINE
8
Layer 1
10
324.633445
20
60.819829
11
321.623966
21
59.684473
0
LINE
8
Layer 1
10
321.623966
20
59.684473
11
318.452923
21
58.747419
0
LINE
8
Layer 1
10
318.452923
20
58.747419
11
315.133330
21
58.012290
0
LINE
8
Layer 1
10
315.133330
20
58.012290
11
311.678202
21
57.482712
0
LINE
8
Layer 1
10
311.678202
20
57.482712
11
308.100554
21
57.162307
0
LINE
8
Layer 1
10
308.100554
20
57.162307
11
304.413400
21
57.054700
0
LINE
8
Layer 1
10
304.413400
20
57.054700
11
300.981138
21
57.146232
0
LINE
8
Layer 1
10
300.981138
20
57.146232
11
297.666439
21
57.422698
0
LINE
8
Layer 1
10
297.666439
20
57.422698
11
294.488762
21
57.886904
0
LINE
8
Layer 1
10
294.488762
20
57.886904
11
291.467567
21
58.541656
0
LINE
8
Layer 1
10
291.467567
20
58.541656
11
288.622315
21
59.389761
0
LINE
8
Layer 1
10
288.622315
20
59.389761
11
285.972465
21
60.434024
0
LINE
8
Layer 1
10
285.972465
20
60.434024
11
283.537478
21
61.677252
0
LINE
8
Layer 1
10
283.537478
20
61.677252
11
281.336812
21
63.122250
0
LINE
8
Layer 1
10
281.336812
20
63.122250
11
279.389930
21
64.771825
0
LINE
8
Layer 1
10
279.389930
20
64.771825
11
277.716290
21
66.628782
0
LINE
8
Layer 1
10
277.716290
20
66.628782
11
276.335352
21
68.695928
0
LINE
8
Layer 1
10
276.335352
20
68.695928
11
275.266577
21
70.976069
0
LINE
8
Layer 1
10
275.266577
20
70.976069
11
274.529424
21
73.472010
0
LINE
8
Layer 1
10
274.529424
20
73.472010
11
274.143353
21
76.186559
0
LINE
8
Layer 1
10
274.143353
20
76.186559
11
274.127825
21
79.122520
0
LINE
8
Layer 1
10
274.127825
20
79.122520
11
274.502300
21
82.282700
0
LINE
8
Layer 1
10
274.502300
20
82.282700
11
275.312421
21
85.616374
0
LINE
8
Layer 1
10
275.312421
20
85.616374
11
276.486673
21
88.551252
0
LINE
8
Layer 1
10
276.486673
20
88.551252
11
278.013151
21
91.132290
0
LINE
8
Layer 1
10
278.013151
20
91.132290
11
279.879947
21
93.404446
0
LINE
8
Layer 1
10
279.879947
20
93.404446
11
282.075157
21
95.412678
0
LINE
8
Layer 1
10
282.075157
20
95.412678
11
284.586873
21
97.201942
0
LINE
8
Layer 1
10
284.586873
20
97.201942
11
287.403190
21
98.817197
0
LINE
8
Layer 1
10
287.403190
20
98.817197
11
290.512200
21
100.303400
0
LINE
8
Layer 1
10
290.512200
20
100.303400
11
288.518139
21
101.582957
0
LINE
8
Layer 1
10
288.518139
20
101.582957
11
286.760621
21
102.937736
0
LINE
8
Layer 1
10
286.760621
20
102.937736
11
285.275272
21
104.442956
0
LINE
8
Layer 1
10
285.275272
20
104.442956
11
284.097717
21
106.173839
0
LINE
8
Layer 1
10
284.097717
20
106.173839
11
283.263583
21
108.205604
0
LINE
8
Layer 1
10
283.263583
20
108.205604
11
282.808495
21
110.613472
0
LINE
8
Layer 1
10
282.808495
20
110.613472
11
282.768079
21
113.472664
0
LINE
8
Layer 1
10
282.768079
20
113.472664
11
283.177960
21
116.858400
0
LINE
8
Layer 1
10
283.177960
20
116.858400
11
283.178000
21
116.861000
0
LINE
8
Layer 1
10
319.751000
20
83.409900
11
319.952078
21
85.693217
0
LINE
8
Layer 1
10
319.952078
20
85.693217
11
319.726485
21
87.719370
0
LINE
8
Layer 1
10
319.726485
20
87.719370
11
319.101971
21
89.473785
0
LINE
8
Layer 1
10
319.101971
20
89.473785
11
318.106286
21
90.941892
0
LINE
8
Layer 1
10
318.106286
20
90.941892
11
316.767181
21
92.109119
0
LINE
8
Layer 1
10
316.767181
20
92.109119
11
315.112404
21
92.960894
0
LINE
8
Layer 1
10
315.112404
20
92.960894
11
313.169707
21
93.482645
0
LINE
8
Layer 1
10
313.169707
20
93.482645
11
310.966840
21
93.659800
0
LINE
8
Layer 1
10
310.966840
20
93.659800
11
308.589107
21
93.500983
0
LINE
8
Layer 1
10
308.589107
20
93.500983
11
306.374338
21
93.022775
0
LINE
8
Layer 1
10
306.374338
20
93.022775
11
304.351059
21
92.222540
0
LINE
8
Layer 1
10
304.351059
20
92.222540
11
302.547796
21
91.097642
0
LINE
8
Layer 1
10
302.547796
20
91.097642
11
300.993077
21
89.645446
0
LINE
8
Layer 1
10
300.993077
20
89.645446
11
299.715427
21
87.863313
0
LINE
8
Layer 1
10
299.715427
20
87.863313
11
298.743372
21
85.748610
0
LINE
8
Layer 1
10
298.743372
20
85.748610
11
298.105440
21
83.298700
0
LINE
8
Layer 1
10
298.105440
20
83.298700
11
297.945203
21
81.917840
0
LINE
8
Layer 1
10
297.945203
20
81.917840
11
297.961836
21
80.647085
0
LINE
8
Layer 1
10
297.961836
20
80.647085
11
298.143815
21
79.485602
0
LINE
8
Layer 1
10
298.143815
20
79.485602
11
298.479618
21
78.432558
0
LINE
8
Layer 1
10
298.479618
20
78.432558
11
298.957723
21
77.487119
0
LINE
8
Layer 1
10
298.957723
20
77.487119
11
299.566607
21
76.648453
0
LINE
8
Layer 1
10
299.566607
20
76.648453
11
300.294747
21
75.915726
0
LINE
8
Layer 1
10
300.294747
20
75.915726
11
301.130621
21
75.288105
0
LINE
8
Layer 1
10
301.130621
20
75.288105
11
303.079482
21
74.344849
0
LINE
8
Layer 1
10
303.079482
20
74.344849
11
305.321009
21
73.812019
0
LINE
8
Layer 1
10
305.321009
20
73.812019
11
307.763021
21
73.682951
0
LINE
8
Layer 1
10
307.763021
20
73.682951
11
310.313340
21
73.950980
0
LINE
8
Layer 1
10
310.313340
20
73.950980
11
312.235650
21
74.338754
0
LINE
8
Layer 1
10
312.235650
20
74.338754
11
313.943336
21
74.985458
0
LINE
8
Layer 1
10
313.943336
20
74.985458
11
315.437579
21
75.875185
0
LINE
8
Layer 1
10
315.437579
20
75.875185
11
316.719555
21
76.992030
0
LINE
8
Layer 1
10
316.719555
20
76.992030
11
317.790444
21
78.320087
0
LINE
8
Layer 1
10
317.790444
20
78.320087
11
318.651424
21
79.843450
0
LINE
8
Layer 1
10
318.651424
20
79.843450
11
319.303673
21
81.546213
0
LINE
8
Layer 1
10
319.303673
20
81.546213
11
319.748370
21
83.412470
0
LINE
8
Layer 1
10
319.748370
20
83.412470
11
319.751000
21
83.409900
0
LINE
8
Layer 1
10
324.268000
20
114.834000
11
324.411769
21
116.753730
0
LINE
8
Layer 1
10
324.411769
20
116.753730
11
324.152121
21
118.451800
0
LINE
8
Layer 1
10
324.152121
20
118.451800
11
323.524186
21
119.917636
0
LINE
8
Layer 1
10
323.524186
20
119.917636
11
322.563093
21
121.140666
0
LINE
8
Layer 1
10
322.563093
20
121.140666
11
321.303973
21
122.110317
0
LINE
8
Layer 1
10
321.303973
20
122.110317
11
319.781954
21
122.816014
0
LINE
8
Layer 1
10
319.781954
20
122.816014
11
318.032167
21
123.247186
0
LINE
8
Layer 1
10
318.032167
20
123.247186
11
316.089740
21
123.393260
0
LINE
8
Layer 1
10
316.089740
20
123.393260
11
313.976281
21
123.255972
0
LINE
8
Layer 1
10
313.976281
20
123.255972
11
311.970352
21
122.844127
0
LINE
8
Layer 1
10
311.970352
20
122.844127
11
310.111518
21
122.157756
0
LINE
8
Layer 1
10
310.111518
20
122.157756
11
308.439340
21
121.196891
0
LINE
8
Layer 1
10
308.439340
20
121.196891
11
306.993381
21
119.961562
0
LINE
8
Layer 1
10
306.993381
20
119.961562
11
305.813202
21
118.451800
0
LINE
8
Layer 1
10
305.813202
20
118.451800
11
304.938368
21
116.667636
0
LINE
8
Layer 1
10
304.938368
20
116.667636
11
304.408440
21
114.609100
0
LINE
8
Layer 1
10
304.408440
20
114.609100
11
304.258719
21
112.574022
0
LINE
8
Layer 1
10
304.258719
20
112.574022
11
304.551109
21
110.853344
0
LINE
8
Layer 1
10
304.551109
20
110.853344
11
305.237087
21
109.433795
0
LINE
8
Layer 1
10
305.237087
20
109.433795
11
306.268127
21
108.302104
0
LINE
8
Layer 1
10
306.268127
20
108.302104
11
307.595708
21
107.445000
0
LINE
8
Layer 1
10
307.595708
20
107.445000
11
309.171305
21
106.849214
0
LINE
8
Layer 1
10
309.171305
20
106.849214
11
310.946393
21
106.501474
0
LINE
8
Layer 1
10
310.946393
20
106.501474
11
312.872450
21
106.388510
0
LINE
8
Layer 1
10
312.872450
20
106.388510
11
314.841567
21
106.520476
0
LINE
8
Layer 1
10
314.841567
20
106.520476
11
316.747428
21
106.916394
0
LINE
8
Layer 1
10
316.747428
20
106.916394
11
318.543898
21
107.576296
0
LINE
8
Layer 1
10
318.543898
20
107.576296
11
320.184841
21
108.500213
0
LINE
8
Layer 1
10
320.184841
20
108.500213
11
321.624124
21
109.688175
0
LINE
8
Layer 1
10
321.624124
20
109.688175
11
322.815609
21
111.140215
0
LINE
8
Layer 1
10
322.815609
20
111.140215
11
323.713163
21
112.856363
0
LINE
8
Layer 1
10
323.713163
20
112.856363
11
324.270650
21
114.836650
0
LINE
8
Layer 1
10
324.270650
20
114.836650
11
324.268000
21
114.834000
 0 
ENDSEC
 0 
EOF