999
"DXF R12 Output" (www.mydxf.blogspot.com)
 0 
SECTION
 2 
HEADER
 9 
$ACADVER
 1 
AC1009
 9 
$EXTMIN
 10 
 0 
 20 
 0 
 9 
$EXTMAX
 10 
 8.5 
 20 
 11 
 0 
ENDSEC
 0 
SECTION
 2 
ENTITIES
0
LINE
8
Layer 1
10
440.266000
20
92.045800
11
440.162172
21
89.990009
0
LINE
8
Layer 1
10
440.162172
20
89.990009
11
439.857431
21
87.993565
0
LINE
8
Layer 1
10
439.857431
20
87.993565
11
439.361888
21
86.066581
0
LINE
8
Layer 1
10
439.361888
20
86.066581
11
438.685654
21
84.219167
0
LINE
8
Layer 1
10
438.685654
20
84.219167
11
437.838842
21
82.461437
0
LINE
8
Layer 1
10
437.838842
20
82.461437
11
436.831563
21
80.803501
0
LINE
8
Layer 1
10
436.831563
20
80.803501
11
435.673929
21
79.255472
0
LINE
8
Layer 1
10
435.673929
20
79.255472
11
434.376053
21
77.827462
0
LINE
8
Layer 1
10
434.376053
20
77.827462
11
432.948044
21
76.529584
0
LINE
8
Layer 1
10
432.948044
20
76.529584
11
431.400017
21
75.371947
0
LINE
8
Layer 1
10
431.400017
20
75.371947
11
429.742081
21
74.364666
0
LINE
8
Layer 1
10
429.742081
20
74.364666
11
427.984350
21
73.517852
0
LINE
8
Layer 1
10
427.984350
20
73.517852
11
426.136934
21
72.841616
0
LINE
8
Layer 1
10
426.136934
20
72.841616
11
424.209946
21
72.346071
0
LINE
8
Layer 1
10
424.209946
20
72.346071
11
422.213497
21
72.041328
0
LINE
8
Layer 1
10
422.213497
20
72.041328
11
420.157700
21
71.937500
0
LINE
8
Layer 1
10
420.157700
20
71.937500
11
418.254169
21
72.026456
0
LINE
8
Layer 1
10
418.254169
20
72.026456
11
416.400620
21
72.287989
0
LINE
8
Layer 1
10
416.400620
20
72.287989
11
414.605114
21
72.714102
0
LINE
8
Layer 1
10
414.605114
20
72.714102
11
412.875714
21
73.296794
0
LINE
8
Layer 1
10
412.875714
20
73.296794
11
411.220481
21
74.028066
0
LINE
8
Layer 1
10
411.220481
20
74.028066
11
409.647476
21
74.899919
0
LINE
8
Layer 1
10
409.647476
20
74.899919
11
408.164762
21
75.904353
0
LINE
8
Layer 1
10
408.164762
20
75.904353
11
406.780400
21
77.033370
0
LINE
8
Layer 1
10
406.780400
20
77.033370
11
406.780000
21
0.132357
0
LINE
8
Layer 1
10
406.780000
20
0.132357
11
0.132292
21
0.132357
0
LINE
8
Layer 1
10
0.132292
20
0.132357
11
0.132292
21
184.039000
0
LINE
8
Layer 1
10
0.132292
20
184.039000
11
406.780000
21
184.039000
0
LINE
8
Layer 1
10
406.780000
20
184.039000
11
406.780000
21
107.058000
0
LINE
8
Layer 1
10
406.780000
20
107.058000
11
408.164369
21
108.187014
0
LINE
8
Layer 1
10
408.164369
20
108.187014
11
409.647087
21
109.191447
0
LINE
8
Layer 1
10
409.647087
20
109.191447
11
411.220095
21
110.063300
0
LINE
8
Layer 1
10
411.220095
20
110.063300
11
412.875329
21
110.794573
0
LINE
8
Layer 1
10
412.875329
20
110.794573
11
414.604728
21
111.377266
0
LINE
8
Layer 1
10
414.604728
20
111.377266
11
416.400231
21
111.803379
0
LINE
8
Layer 1
10
416.400231
20
111.803379
11
418.253775
21
112.064914
0
LINE
8
Layer 1
10
418.253775
20
112.064914
11
420.157300
21
112.153870
0
LINE
8
Layer 1
10
420.157300
20
112.153870
11
422.213091
21
112.050042
0
LINE
8
Layer 1
10
422.213091
20
112.050042
11
424.209535
21
111.745301
0
LINE
8
Layer 1
10
424.209535
20
111.745301
11
426.136519
21
111.249758
0
LINE
8
Layer 1
10
426.136519
20
111.249758
11
427.983933
21
110.573524
0
LINE
8
Layer 1
10
427.983933
20
110.573524
11
429.741663
21
109.726712
0
LINE
8
Layer 1
10
429.741663
20
109.726712
11
431.399599
21
108.719433
0
LINE
8
Layer 1
10
431.399599
20
108.719433
11
432.947628
21
107.561799
0
LINE
8
Layer 1
10
432.947628
20
107.561799
11
434.375637
21
106.263923
0
LINE
8
Layer 1
10
434.375637
20
106.263923
11
435.673516
21
104.835914
0
LINE
8
Layer 1
10
435.673516
20
104.835914
11
436.831153
21
103.287887
0
LINE
8
Layer 1
10
436.831153
20
103.287887
11
437.838434
21
101.629951
0
LINE
8
Layer 1
10
437.838434
20
101.629951
11
438.685248
21
99.872220
0
LINE
8
Layer 1
10
438.685248
20
99.872220
11
439.361484
21
98.024804
0
LINE
8
Layer 1
10
439.361484
20
98.024804
11
439.857029
21
96.097816
0
LINE
8
Layer 1
10
439.857029
20
96.097816
11
440.161772
21
94.101367
0
LINE
8
Layer 1
10
440.161772
20
94.101367
11
440.265600
21
92.045570
0
LINE
8
Layer 1
10
440.265600
20
92.045570
11
440.266000
21
92.045800
0
LINE
8
Layer 1
10
23.701300
20
22.233000
11
383.995000
21
22.233000
0
LINE
8
Layer 1
10
383.995000
20
22.233000
11
383.995000
21
161.938000
0
LINE
8
Layer 1
10
383.995000
20
161.938000
11
23.701300
21
161.938000
0
LINE
8
Layer 1
10
23.701300
20
161.938000
11
23.701300
21
22.233000
0
LINE
8
Layer 1
10
23.701300
20
22.233000
11
23.701300
21
22.233000
0
LINE
8
Layer 1
10
12.588900
20
11.120500
11
395.107000
21
11.120500
0
LINE
8
Layer 1
10
395.107000
20
11.120500
11
395.107000
21
173.051000
0
LINE
8
Layer 1
10
395.107000
20
173.051000
11
12.588900
21
173.051000
0
LINE
8
Layer 1
10
12.588900
20
173.051000
11
12.588900
21
11.120500
0
LINE
8
Layer 1
10
12.588900
20
11.120500
11
12.588900
21
11.120500
 0 
ENDSEC
 0 
EOF