999
"DXF R12 Output" (www.mydxf.blogspot.com)
 0 
SECTION
 2 
HEADER
 9 
$ACADVER
 1 
AC1009
 9 
$EXTMIN
 10 
 0 
 20 
 0 
 9 
$EXTMAX
 10 
 8.5 
 20 
 11 
 0 
ENDSEC
 0 
SECTION
 2 
ENTITIES
0
LINE
8
Layer 1
10
76.858700
20
132.702000
11
83.983900
21
132.702000
0
LINE
8
Layer 1
10
83.983900
20
132.702000
11
85.369695
21
132.421996
0
LINE
8
Layer 1
10
85.369695
20
132.421996
11
86.501739
21
131.658549
0
LINE
8
Layer 1
10
86.501739
20
131.658549
11
87.265186
21
130.526505
0
LINE
8
Layer 1
10
87.265186
20
130.526505
11
87.545190
21
129.140710
0
LINE
8
Layer 1
10
87.545190
20
129.140710
11
87.545200
21
89.783800
0
LINE
8
Layer 1
10
87.545200
20
89.783800
11
87.265196
21
88.398005
0
LINE
8
Layer 1
10
87.265196
20
88.398005
11
86.501749
21
87.265961
0
LINE
8
Layer 1
10
86.501749
20
87.265961
11
85.369705
21
86.502514
0
LINE
8
Layer 1
10
85.369705
20
86.502514
11
83.983910
21
86.222510
0
LINE
8
Layer 1
10
83.983910
20
86.222510
11
76.858700
21
86.222500
0
LINE
8
Layer 1
10
76.858700
20
86.222500
11
75.472905
21
86.502504
0
LINE
8
Layer 1
10
75.472905
20
86.502504
11
74.340861
21
87.265951
0
LINE
8
Layer 1
10
74.340861
20
87.265951
11
73.577414
21
88.397995
0
LINE
8
Layer 1
10
73.577414
20
88.397995
11
73.297410
21
89.783790
0
LINE
8
Layer 1
10
73.297410
20
89.783790
11
73.297400
21
129.143000
0
LINE
8
Layer 1
10
73.297400
20
129.143000
11
73.577404
21
130.528795
0
LINE
8
Layer 1
10
73.577404
20
130.528795
11
74.340851
21
131.660839
0
LINE
8
Layer 1
10
74.340851
20
131.660839
11
75.472895
21
132.424286
0
LINE
8
Layer 1
10
75.472895
20
132.424286
11
76.858690
21
132.704290
0
LINE
8
Layer 1
10
76.858690
20
132.704290
11
76.858700
21
132.702000
0
LINE
8
Layer 1
10
80.520500
20
121.878000
11
81.250046
21
122.025629
0
LINE
8
Layer 1
10
81.250046
20
122.025629
11
81.846390
21
122.428002
0
LINE
8
Layer 1
10
81.846390
20
122.428002
11
82.248762
21
123.024346
0
LINE
8
Layer 1
10
82.248762
20
123.024346
11
82.396390
21
123.753890
0
LINE
8
Layer 1
10
82.396390
20
123.753890
11
82.248761
21
124.483434
0
LINE
8
Layer 1
10
82.248761
20
124.483434
11
81.846389
21
125.079778
0
LINE
8
Layer 1
10
81.846389
20
125.079778
11
81.250044
21
125.482151
0
LINE
8
Layer 1
10
81.250044
20
125.482151
11
80.520500
21
125.629780
0
LINE
8
Layer 1
10
80.520500
20
125.629780
11
79.790956
21
125.482151
0
LINE
8
Layer 1
10
79.790956
20
125.482151
11
79.194611
21
125.079778
0
LINE
8
Layer 1
10
79.194611
20
125.079778
11
78.792239
21
124.483434
0
LINE
8
Layer 1
10
78.792239
20
124.483434
11
78.644610
21
123.753890
0
LINE
8
Layer 1
10
78.644610
20
123.753890
11
78.792239
21
123.024346
0
LINE
8
Layer 1
10
78.792239
20
123.024346
11
79.194611
21
122.428002
0
LINE
8
Layer 1
10
79.194611
20
122.428002
11
79.790956
21
122.025629
0
LINE
8
Layer 1
10
79.790956
20
122.025629
11
80.520500
21
121.878000
0
LINE
8
Layer 1
10
80.520500
20
121.878000
11
80.520500
21
121.878000
0
LINE
8
Layer 1
10
76.020000
20
122.629000
11
76.458009
21
122.717635
0
LINE
8
Layer 1
10
76.458009
20
122.717635
11
76.815404
21
122.959068
0
LINE
8
Layer 1
10
76.815404
20
122.959068
11
77.056216
21
123.316586
0
LINE
8
Layer 1
10
77.056216
20
123.316586
11
77.144480
21
123.753480
0
LINE
8
Layer 1
10
77.144480
20
123.753480
11
77.055845
21
124.190374
0
LINE
8
Layer 1
10
77.055845
20
124.190374
11
76.814412
21
124.547892
0
LINE
8
Layer 1
10
76.814412
20
124.547892
11
76.456894
21
124.789325
0
LINE
8
Layer 1
10
76.456894
20
124.789325
11
76.020000
21
124.877960
0
LINE
8
Layer 1
10
76.020000
20
124.877960
11
75.583106
21
124.789697
0
LINE
8
Layer 1
10
75.583106
20
124.789697
11
75.225588
21
124.548885
0
LINE
8
Layer 1
10
75.225588
20
124.548885
11
74.984155
21
124.191490
0
LINE
8
Layer 1
10
74.984155
20
124.191490
11
74.895520
21
123.753480
0
LINE
8
Layer 1
10
74.895520
20
123.753480
11
74.984155
21
123.315470
0
LINE
8
Layer 1
10
74.984155
20
123.315470
11
75.225588
21
122.958076
0
LINE
8
Layer 1
10
75.225588
20
122.958076
11
75.583106
21
122.717263
0
LINE
8
Layer 1
10
75.583106
20
122.717263
11
76.020000
21
122.629000
0
LINE
8
Layer 1
10
76.020000
20
122.629000
11
76.020000
21
122.629000
0
LINE
8
Layer 1
10
83.378000
20
112.125000
11
83.816009
21
112.213635
0
LINE
8
Layer 1
10
83.816009
20
112.213635
11
84.173404
21
112.455068
0
LINE
8
Layer 1
10
84.173404
20
112.455068
11
84.414216
21
112.812586
0
LINE
8
Layer 1
10
84.414216
20
112.812586
11
84.502480
21
113.249480
0
LINE
8
Layer 1
10
84.502480
20
113.249480
11
84.413845
21
113.686374
0
LINE
8
Layer 1
10
84.413845
20
113.686374
11
84.172412
21
114.043892
0
LINE
8
Layer 1
10
84.172412
20
114.043892
11
83.814894
21
114.285325
0
LINE
8
Layer 1
10
83.814894
20
114.285325
11
83.378000
21
114.373960
0
LINE
8
Layer 1
10
83.378000
20
114.373960
11
82.941106
21
114.285697
0
LINE
8
Layer 1
10
82.941106
20
114.285697
11
82.583588
21
114.044885
0
LINE
8
Layer 1
10
82.583588
20
114.044885
11
82.342155
21
113.687490
0
LINE
8
Layer 1
10
82.342155
20
113.687490
11
82.253520
21
113.249480
0
LINE
8
Layer 1
10
82.253520
20
113.249480
11
82.342155
21
112.811470
0
LINE
8
Layer 1
10
82.342155
20
112.811470
11
82.583588
21
112.454075
0
LINE
8
Layer 1
10
82.583588
20
112.454075
11
82.941106
21
112.213263
0
LINE
8
Layer 1
10
82.941106
20
112.213263
11
83.378000
21
112.125000
0
LINE
8
Layer 1
10
83.378000
20
112.125000
11
83.378000
21
112.125000
0
LINE
8
Layer 1
10
85.029000
20
108.376000
11
85.467009
21
108.464635
0
LINE
8
Layer 1
10
85.467009
20
108.464635
11
85.824404
21
108.706068
0
LINE
8
Layer 1
10
85.824404
20
108.706068
11
86.065216
21
109.063586
0
LINE
8
Layer 1
10
86.065216
20
109.063586
11
86.153480
21
109.500480
0
LINE
8
Layer 1
10
86.153480
20
109.500480
11
86.064845
21
109.937374
0
LINE
8
Layer 1
10
86.064845
20
109.937374
11
85.823412
21
110.294892
0
LINE
8
Layer 1
10
85.823412
20
110.294892
11
85.465894
21
110.536325
0
LINE
8
Layer 1
10
85.465894
20
110.536325
11
85.029000
21
110.624960
0
LINE
8
Layer 1
10
85.029000
20
110.624960
11
84.592106
21
110.536325
0
LINE
8
Layer 1
10
84.592106
20
110.536325
11
84.234588
21
110.294892
0
LINE
8
Layer 1
10
84.234588
20
110.294892
11
83.993155
21
109.937374
0
LINE
8
Layer 1
10
83.993155
20
109.937374
11
83.904520
21
109.500480
0
LINE
8
Layer 1
10
83.904520
20
109.500480
11
83.993155
21
109.063586
0
LINE
8
Layer 1
10
83.993155
20
109.063586
11
84.234588
21
108.706068
0
LINE
8
Layer 1
10
84.234588
20
108.706068
11
84.592106
21
108.464635
0
LINE
8
Layer 1
10
84.592106
20
108.464635
11
85.029000
21
108.376000
0
LINE
8
Layer 1
10
85.029000
20
108.376000
11
85.029000
21
108.376000
0
LINE
8
Layer 1
10
83.378000
20
97.874800
11
83.816009
21
97.963435
0
LINE
8
Layer 1
10
83.816009
20
97.963435
11
84.173404
21
98.204868
0
LINE
8
Layer 1
10
84.173404
20
98.204868
11
84.414216
21
98.562386
0
LINE
8
Layer 1
10
84.414216
20
98.562386
11
84.502480
21
98.999280
0
LINE
8
Layer 1
10
84.502480
20
98.999280
11
84.413845
21
99.436174
0
LINE
8
Layer 1
10
84.413845
20
99.436174
11
84.172412
21
99.793692
0
LINE
8
Layer 1
10
84.172412
20
99.793692
11
83.814894
21
100.035125
0
LINE
8
Layer 1
10
83.814894
20
100.035125
11
83.378000
21
100.123760
0
LINE
8
Layer 1
10
83.378000
20
100.123760
11
82.941106
21
100.035125
0
LINE
8
Layer 1
10
82.941106
20
100.035125
11
82.583588
21
99.793692
0
LINE
8
Layer 1
10
82.583588
20
99.793692
11
82.342155
21
99.436174
0
LINE
8
Layer 1
10
82.342155
20
99.436174
11
82.253520
21
98.999280
0
LINE
8
Layer 1
10
82.253520
20
98.999280
11
82.342155
21
98.562386
0
LINE
8
Layer 1
10
82.342155
20
98.562386
11
82.583588
21
98.204868
0
LINE
8
Layer 1
10
82.583588
20
98.204868
11
82.941106
21
97.963435
0
LINE
8
Layer 1
10
82.941106
20
97.963435
11
83.378000
21
97.874800
0
LINE
8
Layer 1
10
83.378000
20
97.874800
11
83.378000
21
97.874800
0
LINE
8
Layer 1
10
85.029000
20
94.125600
11
85.467009
21
94.214235
0
LINE
8
Layer 1
10
85.467009
20
94.214235
11
85.824404
21
94.455668
0
LINE
8
Layer 1
10
85.824404
20
94.455668
11
86.065216
21
94.813186
0
LINE
8
Layer 1
10
86.065216
20
94.813186
11
86.153480
21
95.250080
0
LINE
8
Layer 1
10
86.153480
20
95.250080
11
86.064845
21
95.686974
0
LINE
8
Layer 1
10
86.064845
20
95.686974
11
85.823412
21
96.044492
0
LINE
8
Layer 1
10
85.823412
20
96.044492
11
85.465894
21
96.285925
0
LINE
8
Layer 1
10
85.465894
20
96.285925
11
85.029000
21
96.374560
0
LINE
8
Layer 1
10
85.029000
20
96.374560
11
84.592106
21
96.285925
0
LINE
8
Layer 1
10
84.592106
20
96.285925
11
84.234588
21
96.044492
0
LINE
8
Layer 1
10
84.234588
20
96.044492
11
83.993155
21
95.686974
0
LINE
8
Layer 1
10
83.993155
20
95.686974
11
83.904520
21
95.250080
0
LINE
8
Layer 1
10
83.904520
20
95.250080
11
83.993155
21
94.813186
0
LINE
8
Layer 1
10
83.993155
20
94.813186
11
84.234588
21
94.455668
0
LINE
8
Layer 1
10
84.234588
20
94.455668
11
84.592106
21
94.214235
0
LINE
8
Layer 1
10
84.592106
20
94.214235
11
85.029000
21
94.125600
0
LINE
8
Layer 1
10
85.029000
20
94.125600
11
85.029000
21
94.125600
0
LINE
8
Layer 1
10
77.671000
20
118.877000
11
78.109009
21
118.965263
0
LINE
8
Layer 1
10
78.109009
20
118.965263
11
78.466404
21
119.206075
0
LINE
8
Layer 1
10
78.466404
20
119.206075
11
78.707216
21
119.563470
0
LINE
8
Layer 1
10
78.707216
20
119.563470
11
78.795480
21
120.001480
0
LINE
8
Layer 1
10
78.795480
20
120.001480
11
78.706845
21
120.439490
0
LINE
8
Layer 1
10
78.706845
20
120.439490
11
78.465412
21
120.796885
0
LINE
8
Layer 1
10
78.465412
20
120.796885
11
78.107894
21
121.037697
0
LINE
8
Layer 1
10
78.107894
20
121.037697
11
77.671000
21
121.125960
0
LINE
8
Layer 1
10
77.671000
20
121.125960
11
77.234106
21
121.037697
0
LINE
8
Layer 1
10
77.234106
20
121.037697
11
76.876588
21
120.796885
0
LINE
8
Layer 1
10
76.876588
20
120.796885
11
76.635155
21
120.439490
0
LINE
8
Layer 1
10
76.635155
20
120.439490
11
76.546520
21
120.001480
0
LINE
8
Layer 1
10
76.546520
20
120.001480
11
76.635155
21
119.563470
0
LINE
8
Layer 1
10
76.635155
20
119.563470
11
76.876588
21
119.206075
0
LINE
8
Layer 1
10
76.876588
20
119.206075
11
77.234106
21
118.965263
0
LINE
8
Layer 1
10
77.234106
20
118.965263
11
77.671000
21
118.877000
0
LINE
8
Layer 1
10
77.671000
20
118.877000
11
77.671000
21
118.877000
0
LINE
8
Layer 1
10
76.697300
20
115.946000
11
76.697300
21
118.012000
0
LINE
8
Layer 1
10
76.697300
20
118.012000
11
76.570300
21
118.012000
0
LINE
8
Layer 1
10
76.570300
20
118.012000
11
75.939931
21
118.273276
0
LINE
8
Layer 1
10
75.939931
20
118.273276
11
75.678655
21
118.903645
0
LINE
8
Layer 1
10
75.678655
20
118.903645
11
75.678700
21
119.473000
0
LINE
8
Layer 1
10
75.678700
20
119.473000
11
75.569559
21
119.841101
0
LINE
8
Layer 1
10
75.569559
20
119.841101
11
75.678700
21
120.211187
0
LINE
8
Layer 1
10
75.678700
20
120.211187
11
75.678700
21
121.079000
0
LINE
8
Layer 1
10
75.678700
20
121.079000
11
75.518627
21
121.493734
0
LINE
8
Layer 1
10
75.518627
20
121.493734
11
75.120430
21
121.690187
0
LINE
8
Layer 1
10
75.120430
20
121.690187
11
75.014600
21
121.690000
0
LINE
8
Layer 1
10
75.014600
20
121.690000
11
74.649475
21
121.840812
0
LINE
8
Layer 1
10
74.649475
20
121.840812
11
74.144121
21
122.346166
0
LINE
8
Layer 1
10
74.144121
20
122.346166
11
73.993309
21
122.711291
0
LINE
8
Layer 1
10
73.993309
20
122.711291
11
73.993300
21
124.775000
0
LINE
8
Layer 1
10
73.993300
20
124.775000
11
74.144112
21
125.140125
0
LINE
8
Layer 1
10
74.144112
20
125.140125
11
74.649466
21
125.645479
0
LINE
8
Layer 1
10
74.649466
20
125.645479
11
75.014591
21
125.796291
0
LINE
8
Layer 1
10
75.014591
20
125.796291
11
75.078100
21
125.796000
0
LINE
8
Layer 1
10
75.078100
20
125.796000
11
75.078100
21
127.585000
0
LINE
8
Layer 1
10
75.078100
20
127.585000
11
77.054500
21
127.585000
0
LINE
8
Layer 1
10
77.054500
20
127.585000
11
77.054500
21
125.796000
0
LINE
8
Layer 1
10
77.054500
20
125.796000
11
77.078300
21
125.796000
0
LINE
8
Layer 1
10
77.078300
20
125.796000
11
77.443425
21
125.645188
0
LINE
8
Layer 1
10
77.443425
20
125.645188
11
77.948779
21
125.139834
0
LINE
8
Layer 1
10
77.948779
20
125.139834
11
78.099591
21
124.774709
0
LINE
8
Layer 1
10
78.099591
20
124.774709
11
78.099600
21
123.367000
0
LINE
8
Layer 1
10
78.099600
20
123.367000
11
78.391633
21
122.755813
0
LINE
8
Layer 1
10
78.391633
20
122.755813
11
78.983307
21
122.374814
0
LINE
8
Layer 1
10
78.983307
20
122.374814
11
79.510819
21
121.997453
0
LINE
8
Layer 1
10
79.510819
20
121.997453
11
79.710910
21
121.379982
0
LINE
8
Layer 1
10
79.710910
20
121.379982
11
79.710900
21
118.906000
0
LINE
8
Layer 1
10
79.710900
20
118.906000
11
79.449624
21
118.275631
0
LINE
8
Layer 1
10
79.449624
20
118.275631
11
78.819255
21
118.014355
0
LINE
8
Layer 1
10
78.819255
20
118.014355
11
78.702900
21
118.015000
0
LINE
8
Layer 1
10
78.702900
20
118.015000
11
78.702900
21
115.948000
0
LINE
8
Layer 1
10
78.702900
20
115.948000
11
76.697300
21
115.948000
0
LINE
8
Layer 1
10
76.697300
20
115.948000
11
76.697300
21
115.946000
0
LINE
8
Layer 1
10
83.989200
20
105.233000
11
83.989200
21
107.471000
0
LINE
8
Layer 1
10
83.989200
20
107.471000
11
83.965400
21
107.471000
0
LINE
8
Layer 1
10
83.965400
20
107.471000
11
83.600275
21
107.621812
0
LINE
8
Layer 1
10
83.600275
20
107.621812
11
83.094921
21
108.129811
0
LINE
8
Layer 1
10
83.094921
20
108.129811
11
82.944109
21
108.494936
0
LINE
8
Layer 1
10
82.944109
20
108.494936
11
82.944100
21
109.903000
0
LINE
8
Layer 1
10
82.944100
20
109.903000
11
82.651075
21
110.514187
0
LINE
8
Layer 1
10
82.651075
20
110.514187
11
82.060393
21
110.895186
0
LINE
8
Layer 1
10
82.060393
20
110.895186
11
81.532881
21
111.272547
0
LINE
8
Layer 1
10
81.532881
20
111.272547
11
81.332790
21
111.890018
0
LINE
8
Layer 1
10
81.332790
20
111.890018
11
81.332800
21
114.364000
0
LINE
8
Layer 1
10
81.332800
20
114.364000
11
81.594076
21
114.994369
0
LINE
8
Layer 1
10
81.594076
20
114.994369
11
82.224445
21
115.255645
0
LINE
8
Layer 1
10
82.224445
20
115.255645
11
82.340900
21
115.255000
0
LINE
8
Layer 1
10
82.340900
20
115.255000
11
82.340900
21
117.322000
0
LINE
8
Layer 1
10
82.340900
20
117.322000
11
84.346400
21
117.322000
0
LINE
8
Layer 1
10
84.346400
20
117.322000
11
84.346400
21
115.255000
0
LINE
8
Layer 1
10
84.346400
20
115.255000
11
84.473400
21
115.255000
0
LINE
8
Layer 1
10
84.473400
20
115.255000
11
85.103769
21
114.993724
0
LINE
8
Layer 1
10
85.103769
20
114.993724
11
85.365045
21
114.363355
0
LINE
8
Layer 1
10
85.365045
20
114.363355
11
85.365100
21
113.795000
0
LINE
8
Layer 1
10
85.365100
20
113.795000
11
85.474241
21
113.427230
0
LINE
8
Layer 1
10
85.474241
20
113.427230
11
85.365100
21
113.059459
0
LINE
8
Layer 1
10
85.365100
20
113.059459
11
85.365100
21
112.191000
0
LINE
8
Layer 1
10
85.365100
20
112.191000
11
85.527157
21
111.778250
0
LINE
8
Layer 1
10
85.527157
20
111.778250
11
85.923370
21
111.579813
0
LINE
8
Layer 1
10
85.923370
20
111.579813
11
86.029200
21
111.580000
0
LINE
8
Layer 1
10
86.029200
20
111.580000
11
86.394325
21
111.429188
0
LINE
8
Layer 1
10
86.394325
20
111.429188
11
86.899679
21
110.923834
0
LINE
8
Layer 1
10
86.899679
20
110.923834
11
87.050491
21
110.558709
0
LINE
8
Layer 1
10
87.050491
20
110.558709
11
87.050500
21
108.495000
0
LINE
8
Layer 1
10
87.050500
20
108.495000
11
86.899688
21
108.129875
0
LINE
8
Layer 1
10
86.899688
20
108.129875
11
86.394334
21
107.624521
0
LINE
8
Layer 1
10
86.394334
20
107.624521
11
86.029209
21
107.473709
0
LINE
8
Layer 1
10
86.029209
20
107.473709
11
85.965700
21
107.474000
0
LINE
8
Layer 1
10
85.965700
20
107.474000
11
85.965700
21
105.235000
0
LINE
8
Layer 1
10
85.965700
20
105.235000
11
83.989200
21
105.235000
0
LINE
8
Layer 1
10
83.989200
20
105.235000
11
83.989200
21
105.233000
0
LINE
8
Layer 1
10
83.989200
20
91.151700
11
83.989200
21
93.223400
0
LINE
8
Layer 1
10
83.989200
20
93.223400
11
83.965400
21
93.223400
0
LINE
8
Layer 1
10
83.965400
20
93.223400
11
83.600275
21
93.374212
0
LINE
8
Layer 1
10
83.600275
20
93.374212
11
83.094921
21
93.882211
0
LINE
8
Layer 1
10
83.094921
20
93.882211
11
82.944109
21
94.247336
0
LINE
8
Layer 1
10
82.944109
20
94.247336
11
82.944100
21
95.654900
0
LINE
8
Layer 1
10
82.944100
20
95.654900
11
82.652067
21
96.266087
0
LINE
8
Layer 1
10
82.652067
20
96.266087
11
82.060393
21
96.647086
0
LINE
8
Layer 1
10
82.060393
20
96.647086
11
81.532881
21
97.024447
0
LINE
8
Layer 1
10
81.532881
20
97.024447
11
81.332790
21
97.641918
0
LINE
8
Layer 1
10
81.332790
20
97.641918
11
81.332800
21
100.116000
0
LINE
8
Layer 1
10
81.332800
20
100.116000
11
81.594076
21
100.746369
0
LINE
8
Layer 1
10
81.594076
20
100.746369
11
82.224445
21
101.007645
0
LINE
8
Layer 1
10
82.224445
20
101.007645
11
82.340900
21
101.007000
0
LINE
8
Layer 1
10
82.340900
20
101.007000
11
82.340900
21
103.053000
0
LINE
8
Layer 1
10
82.340900
20
103.053000
11
84.346400
21
103.053000
0
LINE
8
Layer 1
10
84.346400
20
103.053000
11
84.346400
21
101.007000
0
LINE
8
Layer 1
10
84.346400
20
101.007000
11
84.473400
21
101.007000
0
LINE
8
Layer 1
10
84.473400
20
101.007000
11
85.103769
21
100.745724
0
LINE
8
Layer 1
10
85.103769
20
100.745724
11
85.365045
21
100.115355
0
LINE
8
Layer 1
10
85.365045
20
100.115355
11
85.365100
21
99.546900
0
LINE
8
Layer 1
10
85.365100
20
99.546900
11
85.474241
21
99.178799
0
LINE
8
Layer 1
10
85.474241
20
99.178799
11
85.365100
21
98.808713
0
LINE
8
Layer 1
10
85.365100
20
98.808713
11
85.365100
21
97.940900
0
LINE
8
Layer 1
10
85.365100
20
97.940900
11
85.525173
21
97.526166
0
LINE
8
Layer 1
10
85.525173
20
97.526166
11
85.923370
21
97.329713
0
LINE
8
Layer 1
10
85.923370
20
97.329713
11
86.029200
21
97.329700
0
LINE
8
Layer 1
10
86.029200
20
97.329700
11
86.394325
21
97.178888
0
LINE
8
Layer 1
10
86.394325
20
97.178888
11
86.899679
21
96.673534
0
LINE
8
Layer 1
10
86.899679
20
96.673534
11
87.050491
21
96.308409
0
LINE
8
Layer 1
10
87.050491
20
96.308409
11
87.050500
21
94.244700
0
LINE
8
Layer 1
10
87.050500
20
94.244700
11
86.899688
21
93.879575
0
LINE
8
Layer 1
10
86.899688
20
93.879575
11
86.394334
21
93.374221
0
LINE
8
Layer 1
10
86.394334
20
93.374221
11
86.029209
21
93.223409
0
LINE
8
Layer 1
10
86.029209
20
93.223409
11
85.965700
21
93.223400
0
LINE
8
Layer 1
10
85.965700
20
93.223400
11
85.965700
21
91.151700
0
LINE
8
Layer 1
10
85.965700
20
91.151700
11
83.989200
21
91.151700
0
LINE
8
Layer 1
10
83.989200
20
91.151700
11
83.989200
21
91.151700
0
LINE
8
Layer 1
10
92.249500
20
132.702000
11
99.374700
21
132.702000
0
LINE
8
Layer 1
10
99.374700
20
132.702000
11
100.760495
21
132.421996
0
LINE
8
Layer 1
10
100.760495
20
132.421996
11
101.892539
21
131.658549
0
LINE
8
Layer 1
10
101.892539
20
131.658549
11
102.655986
21
130.526505
0
LINE
8
Layer 1
10
102.655986
20
130.526505
11
102.935990
21
129.140710
0
LINE
8
Layer 1
10
102.935990
20
129.140710
11
102.936000
21
89.783800
0
LINE
8
Layer 1
10
102.936000
20
89.783800
11
102.655996
21
88.398005
0
LINE
8
Layer 1
10
102.655996
20
88.398005
11
101.892549
21
87.265961
0
LINE
8
Layer 1
10
101.892549
20
87.265961
11
100.760505
21
86.502514
0
LINE
8
Layer 1
10
100.760505
20
86.502514
11
99.374710
21
86.222510
0
LINE
8
Layer 1
10
99.374710
20
86.222510
11
92.249500
21
86.222500
0
LINE
8
Layer 1
10
92.249500
20
86.222500
11
90.863705
21
86.502504
0
LINE
8
Layer 1
10
90.863705
20
86.502504
11
89.731661
21
87.265951
0
LINE
8
Layer 1
10
89.731661
20
87.265951
11
88.968214
21
88.397995
0
LINE
8
Layer 1
10
88.968214
20
88.397995
11
88.688210
21
89.783790
0
LINE
8
Layer 1
10
88.688210
20
89.783790
11
88.688200
21
129.143000
0
LINE
8
Layer 1
10
88.688200
20
129.143000
11
88.968204
21
130.528795
0
LINE
8
Layer 1
10
88.968204
20
130.528795
11
89.731651
21
131.660839
0
LINE
8
Layer 1
10
89.731651
20
131.660839
11
90.863695
21
132.424286
0
LINE
8
Layer 1
10
90.863695
20
132.424286
11
92.249490
21
132.704290
0
LINE
8
Layer 1
10
92.249490
20
132.704290
11
92.249500
21
132.702000
0
LINE
8
Layer 1
10
95.911300
20
121.878000
11
96.640846
21
122.025629
0
LINE
8
Layer 1
10
96.640846
20
122.025629
11
97.237190
21
122.428002
0
LINE
8
Layer 1
10
97.237190
20
122.428002
11
97.639562
21
123.024346
0
LINE
8
Layer 1
10
97.639562
20
123.024346
11
97.787190
21
123.753890
0
LINE
8
Layer 1
10
97.787190
20
123.753890
11
97.639561
21
124.483434
0
LINE
8
Layer 1
10
97.639561
20
124.483434
11
97.237188
21
125.079778
0
LINE
8
Layer 1
10
97.237188
20
125.079778
11
96.640844
21
125.482151
0
LINE
8
Layer 1
10
96.640844
20
125.482151
11
95.911300
21
125.629780
0
LINE
8
Layer 1
10
95.911300
20
125.629780
11
95.181756
21
125.482151
0
LINE
8
Layer 1
10
95.181756
20
125.482151
11
94.585412
21
125.079778
0
LINE
8
Layer 1
10
94.585412
20
125.079778
11
94.183039
21
124.483434
0
LINE
8
Layer 1
10
94.183039
20
124.483434
11
94.035410
21
123.753890
0
LINE
8
Layer 1
10
94.035410
20
123.753890
11
94.183039
21
123.024346
0
LINE
8
Layer 1
10
94.183039
20
123.024346
11
94.585412
21
122.428002
0
LINE
8
Layer 1
10
94.585412
20
122.428002
11
95.181756
21
122.025629
0
LINE
8
Layer 1
10
95.181756
20
122.025629
11
95.911300
21
121.878000
0
LINE
8
Layer 1
10
95.911300
20
121.878000
11
95.911300
21
121.878000
0
LINE
8
Layer 1
10
91.410800
20
122.629000
11
91.848809
21
122.717635
0
LINE
8
Layer 1
10
91.848809
20
122.717635
11
92.206204
21
122.959068
0
LINE
8
Layer 1
10
92.206204
20
122.959068
11
92.447016
21
123.316586
0
LINE
8
Layer 1
10
92.447016
20
123.316586
11
92.535280
21
123.753480
0
LINE
8
Layer 1
10
92.535280
20
123.753480
11
92.446645
21
124.190374
0
LINE
8
Layer 1
10
92.446645
20
124.190374
11
92.205212
21
124.547892
0
LINE
8
Layer 1
10
92.205212
20
124.547892
11
91.847694
21
124.789325
0
LINE
8
Layer 1
10
91.847694
20
124.789325
11
91.410800
21
124.877960
0
LINE
8
Layer 1
10
91.410800
20
124.877960
11
90.973906
21
124.789697
0
LINE
8
Layer 1
10
90.973906
20
124.789697
11
90.616388
21
124.548885
0
LINE
8
Layer 1
10
90.616388
20
124.548885
11
90.374955
21
124.191490
0
LINE
8
Layer 1
10
90.374955
20
124.191490
11
90.286320
21
123.753480
0
LINE
8
Layer 1
10
90.286320
20
123.753480
11
90.374955
21
123.315470
0
LINE
8
Layer 1
10
90.374955
20
123.315470
11
90.616388
21
122.958076
0
LINE
8
Layer 1
10
90.616388
20
122.958076
11
90.973906
21
122.717263
0
LINE
8
Layer 1
10
90.973906
20
122.717263
11
91.410800
21
122.629000
0
LINE
8
Layer 1
10
91.410800
20
122.629000
11
91.410800
21
122.629000
0
LINE
8
Layer 1
10
98.768800
20
112.125000
11
99.206809
21
112.213635
0
LINE
8
Layer 1
10
99.206809
20
112.213635
11
99.564204
21
112.455068
0
LINE
8
Layer 1
10
99.564204
20
112.455068
11
99.805016
21
112.812586
0
LINE
8
Layer 1
10
99.805016
20
112.812586
11
99.893280
21
113.249480
0
LINE
8
Layer 1
10
99.893280
20
113.249480
11
99.804645
21
113.686374
0
LINE
8
Layer 1
10
99.804645
20
113.686374
11
99.563212
21
114.043892
0
LINE
8
Layer 1
10
99.563212
20
114.043892
11
99.205694
21
114.285325
0
LINE
8
Layer 1
10
99.205694
20
114.285325
11
98.768800
21
114.373960
0
LINE
8
Layer 1
10
98.768800
20
114.373960
11
98.331906
21
114.285697
0
LINE
8
Layer 1
10
98.331906
20
114.285697
11
97.974388
21
114.044885
0
LINE
8
Layer 1
10
97.974388
20
114.044885
11
97.732955
21
113.687490
0
LINE
8
Layer 1
10
97.732955
20
113.687490
11
97.644320
21
113.249480
0
LINE
8
Layer 1
10
97.644320
20
113.249480
11
97.732955
21
112.811470
0
LINE
8
Layer 1
10
97.732955
20
112.811470
11
97.974388
21
112.454075
0
LINE
8
Layer 1
10
97.974388
20
112.454075
11
98.331906
21
112.213263
0
LINE
8
Layer 1
10
98.331906
20
112.213263
11
98.768800
21
112.125000
0
LINE
8
Layer 1
10
98.768800
20
112.125000
11
98.768800
21
112.125000
0
LINE
8
Layer 1
10
100.420000
20
108.376000
11
100.858009
21
108.464635
0
LINE
8
Layer 1
10
100.858009
20
108.464635
11
101.215404
21
108.706068
0
LINE
8
Layer 1
10
101.215404
20
108.706068
11
101.456216
21
109.063586
0
LINE
8
Layer 1
10
101.456216
20
109.063586
11
101.544480
21
109.500480
0
LINE
8
Layer 1
10
101.544480
20
109.500480
11
101.455845
21
109.937374
0
LINE
8
Layer 1
10
101.455845
20
109.937374
11
101.214412
21
110.294892
0
LINE
8
Layer 1
10
101.214412
20
110.294892
11
100.856894
21
110.536325
0
LINE
8
Layer 1
10
100.856894
20
110.536325
11
100.420000
21
110.624960
0
LINE
8
Layer 1
10
100.420000
20
110.624960
11
99.983106
21
110.536325
0
LINE
8
Layer 1
10
99.983106
20
110.536325
11
99.625588
21
110.294892
0
LINE
8
Layer 1
10
99.625588
20
110.294892
11
99.384155
21
109.937374
0
LINE
8
Layer 1
10
99.384155
20
109.937374
11
99.295520
21
109.500480
0
LINE
8
Layer 1
10
99.295520
20
109.500480
11
99.384155
21
109.063586
0
LINE
8
Layer 1
10
99.384155
20
109.063586
11
99.625588
21
108.706068
0
LINE
8
Layer 1
10
99.625588
20
108.706068
11
99.983106
21
108.464635
0
LINE
8
Layer 1
10
99.983106
20
108.464635
11
100.420000
21
108.376000
0
LINE
8
Layer 1
10
100.420000
20
108.376000
11
100.420000
21
108.376000
0
LINE
8
Layer 1
10
98.768800
20
97.874800
11
99.206809
21
97.963435
0
LINE
8
Layer 1
10
99.206809
20
97.963435
11
99.564204
21
98.204868
0
LINE
8
Layer 1
10
99.564204
20
98.204868
11
99.805016
21
98.562386
0
LINE
8
Layer 1
10
99.805016
20
98.562386
11
99.893280
21
98.999280
0
LINE
8
Layer 1
10
99.893280
20
98.999280
11
99.804645
21
99.436174
0
LINE
8
Layer 1
10
99.804645
20
99.436174
11
99.563212
21
99.793692
0
LINE
8
Layer 1
10
99.563212
20
99.793692
11
99.205694
21
100.035125
0
LINE
8
Layer 1
10
99.205694
20
100.035125
11
98.768800
21
100.123760
0
LINE
8
Layer 1
10
98.768800
20
100.123760
11
98.331906
21
100.035125
0
LINE
8
Layer 1
10
98.331906
20
100.035125
11
97.974388
21
99.793692
0
LINE
8
Layer 1
10
97.974388
20
99.793692
11
97.732955
21
99.436174
0
LINE
8
Layer 1
10
97.732955
20
99.436174
11
97.644320
21
98.999280
0
LINE
8
Layer 1
10
97.644320
20
98.999280
11
97.732955
21
98.562386
0
LINE
8
Layer 1
10
97.732955
20
98.562386
11
97.974388
21
98.204868
0
LINE
8
Layer 1
10
97.974388
20
98.204868
11
98.331906
21
97.963435
0
LINE
8
Layer 1
10
98.331906
20
97.963435
11
98.768800
21
97.874800
0
LINE
8
Layer 1
10
98.768800
20
97.874800
11
98.768800
21
97.874800
0
LINE
8
Layer 1
10
100.420000
20
94.125600
11
100.858009
21
94.214235
0
LINE
8
Layer 1
10
100.858009
20
94.214235
11
101.215404
21
94.455668
0
LINE
8
Layer 1
10
101.215404
20
94.455668
11
101.456216
21
94.813186
0
LINE
8
Layer 1
10
101.456216
20
94.813186
11
101.544480
21
95.250080
0
LINE
8
Layer 1
10
101.544480
20
95.250080
11
101.455845
21
95.686974
0
LINE
8
Layer 1
10
101.455845
20
95.686974
11
101.214412
21
96.044492
0
LINE
8
Layer 1
10
101.214412
20
96.044492
11
100.856894
21
96.285925
0
LINE
8
Layer 1
10
100.856894
20
96.285925
11
100.420000
21
96.374560
0
LINE
8
Layer 1
10
100.420000
20
96.374560
11
99.983106
21
96.285925
0
LINE
8
Layer 1
10
99.983106
20
96.285925
11
99.625588
21
96.044492
0
LINE
8
Layer 1
10
99.625588
20
96.044492
11
99.384155
21
95.686974
0
LINE
8
Layer 1
10
99.384155
20
95.686974
11
99.295520
21
95.250080
0
LINE
8
Layer 1
10
99.295520
20
95.250080
11
99.384155
21
94.813186
0
LINE
8
Layer 1
10
99.384155
20
94.813186
11
99.625588
21
94.455668
0
LINE
8
Layer 1
10
99.625588
20
94.455668
11
99.983106
21
94.214235
0
LINE
8
Layer 1
10
99.983106
20
94.214235
11
100.420000
21
94.125600
0
LINE
8
Layer 1
10
100.420000
20
94.125600
11
100.420000
21
94.125600
0
LINE
8
Layer 1
10
93.061800
20
118.877000
11
93.499809
21
118.965263
0
LINE
8
Layer 1
10
93.499809
20
118.965263
11
93.857204
21
119.206075
0
LINE
8
Layer 1
10
93.857204
20
119.206075
11
94.098016
21
119.563470
0
LINE
8
Layer 1
10
94.098016
20
119.563470
11
94.186280
21
120.001480
0
LINE
8
Layer 1
10
94.186280
20
120.001480
11
94.097645
21
120.439490
0
LINE
8
Layer 1
10
94.097645
20
120.439490
11
93.856212
21
120.796885
0
LINE
8
Layer 1
10
93.856212
20
120.796885
11
93.498694
21
121.037697
0
LINE
8
Layer 1
10
93.498694
20
121.037697
11
93.061800
21
121.125960
0
LINE
8
Layer 1
10
93.061800
20
121.125960
11
92.624906
21
121.037697
0
LINE
8
Layer 1
10
92.624906
20
121.037697
11
92.267388
21
120.796885
0
LINE
8
Layer 1
10
92.267388
20
120.796885
11
92.025955
21
120.439490
0
LINE
8
Layer 1
10
92.025955
20
120.439490
11
91.937320
21
120.001480
0
LINE
8
Layer 1
10
91.937320
20
120.001480
11
92.025955
21
119.563470
0
LINE
8
Layer 1
10
92.025955
20
119.563470
11
92.267388
21
119.206075
0
LINE
8
Layer 1
10
92.267388
20
119.206075
11
92.624906
21
118.965263
0
LINE
8
Layer 1
10
92.624906
20
118.965263
11
93.061800
21
118.877000
0
LINE
8
Layer 1
10
93.061800
20
118.877000
11
93.061800
21
118.877000
0
LINE
8
Layer 1
10
92.088100
20
115.946000
11
92.088100
21
118.012000
0
LINE
8
Layer 1
10
92.088100
20
118.012000
11
91.961100
21
118.012000
0
LINE
8
Layer 1
10
91.961100
20
118.012000
11
91.330731
21
118.273276
0
LINE
8
Layer 1
10
91.330731
20
118.273276
11
91.069455
21
118.903645
0
LINE
8
Layer 1
10
91.069455
20
118.903645
11
91.069500
21
119.473000
0
LINE
8
Layer 1
10
91.069500
20
119.473000
11
90.960359
21
119.841101
0
LINE
8
Layer 1
10
90.960359
20
119.841101
11
91.069500
21
120.211187
0
LINE
8
Layer 1
10
91.069500
20
120.211187
11
91.069500
21
121.079000
0
LINE
8
Layer 1
10
91.069500
20
121.079000
11
90.909427
21
121.493734
0
LINE
8
Layer 1
10
90.909427
20
121.493734
11
90.511230
21
121.690187
0
LINE
8
Layer 1
10
90.511230
20
121.690187
11
90.405400
21
121.690000
0
LINE
8
Layer 1
10
90.405400
20
121.690000
11
90.040275
21
121.840812
0
LINE
8
Layer 1
10
90.040275
20
121.840812
11
89.534921
21
122.346166
0
LINE
8
Layer 1
10
89.534921
20
122.346166
11
89.384109
21
122.711291
0
LINE
8
Layer 1
10
89.384109
20
122.711291
11
89.384100
21
124.775000
0
LINE
8
Layer 1
10
89.384100
20
124.775000
11
89.534912
21
125.140125
0
LINE
8
Layer 1
10
89.534912
20
125.140125
11
90.040266
21
125.645479
0
LINE
8
Layer 1
10
90.040266
20
125.645479
11
90.405391
21
125.796291
0
LINE
8
Layer 1
10
90.405391
20
125.796291
11
90.468900
21
125.796000
0
LINE
8
Layer 1
10
90.468900
20
125.796000
11
90.468900
21
127.585000
0
LINE
8
Layer 1
10
90.468900
20
127.585000
11
92.445300
21
127.585000
0
LINE
8
Layer 1
10
92.445300
20
127.585000
11
92.445300
21
125.796000
0
LINE
8
Layer 1
10
92.445300
20
125.796000
11
92.469100
21
125.796000
0
LINE
8
Layer 1
10
92.469100
20
125.796000
11
92.834225
21
125.645188
0
LINE
8
Layer 1
10
92.834225
20
125.645188
11
93.339579
21
125.139834
0
LINE
8
Layer 1
10
93.339579
20
125.139834
11
93.490391
21
124.774709
0
LINE
8
Layer 1
10
93.490391
20
124.774709
11
93.490400
21
123.367000
0
LINE
8
Layer 1
10
93.490400
20
123.367000
11
93.782433
21
122.755813
0
LINE
8
Layer 1
10
93.782433
20
122.755813
11
94.374107
21
122.374814
0
LINE
8
Layer 1
10
94.374107
20
122.374814
11
94.901619
21
121.997453
0
LINE
8
Layer 1
10
94.901619
20
121.997453
11
95.101710
21
121.379982
0
LINE
8
Layer 1
10
95.101710
20
121.379982
11
95.101700
21
118.906000
0
LINE
8
Layer 1
10
95.101700
20
118.906000
11
94.840424
21
118.275631
0
LINE
8
Layer 1
10
94.840424
20
118.275631
11
94.210055
21
118.014355
0
LINE
8
Layer 1
10
94.210055
20
118.014355
11
94.093700
21
118.015000
0
LINE
8
Layer 1
10
94.093700
20
118.015000
11
94.093700
21
115.948000
0
LINE
8
Layer 1
10
94.093700
20
115.948000
11
92.088100
21
115.948000
0
LINE
8
Layer 1
10
92.088100
20
115.948000
11
92.088100
21
115.946000
0
LINE
8
Layer 1
10
99.380000
20
105.233000
11
99.380000
21
107.471000
0
LINE
8
Layer 1
10
99.380000
20
107.471000
11
99.356200
21
107.471000
0
LINE
8
Layer 1
10
99.356200
20
107.471000
11
98.991075
21
107.621812
0
LINE
8
Layer 1
10
98.991075
20
107.621812
11
98.485721
21
108.129811
0
LINE
8
Layer 1
10
98.485721
20
108.129811
11
98.334909
21
108.494936
0
LINE
8
Layer 1
10
98.334909
20
108.494936
11
98.334900
21
109.903000
0
LINE
8
Layer 1
10
98.334900
20
109.903000
11
98.041875
21
110.514187
0
LINE
8
Layer 1
10
98.041875
20
110.514187
11
97.451193
21
110.895186
0
LINE
8
Layer 1
10
97.451193
20
110.895186
11
96.923681
21
111.272547
0
LINE
8
Layer 1
10
96.923681
20
111.272547
11
96.723590
21
111.890018
0
LINE
8
Layer 1
10
96.723590
20
111.890018
11
96.723600
21
114.364000
0
LINE
8
Layer 1
10
96.723600
20
114.364000
11
96.984876
21
114.994369
0
LINE
8
Layer 1
10
96.984876
20
114.994369
11
97.615245
21
115.255645
0
LINE
8
Layer 1
10
97.615245
20
115.255645
11
97.731700
21
115.255000
0
LINE
8
Layer 1
10
97.731700
20
115.255000
11
97.731700
21
117.322000
0
LINE
8
Layer 1
10
97.731700
20
117.322000
11
99.737200
21
117.322000
0
LINE
8
Layer 1
10
99.737200
20
117.322000
11
99.737200
21
115.255000
0
LINE
8
Layer 1
10
99.737200
20
115.255000
11
99.864200
21
115.255000
0
LINE
8
Layer 1
10
99.864200
20
115.255000
11
100.494569
21
114.993724
0
LINE
8
Layer 1
10
100.494569
20
114.993724
11
100.755845
21
114.363355
0
LINE
8
Layer 1
10
100.755845
20
114.363355
11
100.756000
21
113.795000
0
LINE
8
Layer 1
10
100.756000
20
113.795000
11
100.865141
21
113.427230
0
LINE
8
Layer 1
10
100.865141
20
113.427230
11
100.756000
21
113.059459
0
LINE
8
Layer 1
10
100.756000
20
113.059459
11
100.756000
21
112.191000
0
LINE
8
Layer 1
10
100.756000
20
112.191000
11
100.918057
21
111.778250
0
LINE
8
Layer 1
10
100.918057
20
111.778250
11
101.314270
21
111.579813
0
LINE
8
Layer 1
10
101.314270
20
111.579813
11
101.420000
21
111.580000
0
LINE
8
Layer 1
10
101.420000
20
111.580000
11
101.785125
21
111.429188
0
LINE
8
Layer 1
10
101.785125
20
111.429188
11
102.290479
21
110.923834
0
LINE
8
Layer 1
10
102.290479
20
110.923834
11
102.441291
21
110.558709
0
LINE
8
Layer 1
10
102.441291
20
110.558709
11
102.441000
21
108.495000
0
LINE
8
Layer 1
10
102.441000
20
108.495000
11
102.290188
21
108.129875
0
LINE
8
Layer 1
10
102.290188
20
108.129875
11
101.784834
21
107.624521
0
LINE
8
Layer 1
10
101.784834
20
107.624521
11
101.419709
21
107.473709
0
LINE
8
Layer 1
10
101.419709
20
107.473709
11
101.356000
21
107.474000
0
LINE
8
Layer 1
10
101.356000
20
107.474000
11
101.356000
21
105.235000
0
LINE
8
Layer 1
10
101.356000
20
105.235000
11
99.380000
21
105.235000
0
LINE
8
Layer 1
10
99.380000
20
105.235000
11
99.380000
21
105.233000
0
LINE
8
Layer 1
10
99.380000
20
91.151700
11
99.380000
21
93.223400
0
LINE
8
Layer 1
10
99.380000
20
93.223400
11
99.356200
21
93.223400
0
LINE
8
Layer 1
10
99.356200
20
93.223400
11
98.991075
21
93.374212
0
LINE
8
Layer 1
10
98.991075
20
93.374212
11
98.485721
21
93.882211
0
LINE
8
Layer 1
10
98.485721
20
93.882211
11
98.334909
21
94.247336
0
LINE
8
Layer 1
10
98.334909
20
94.247336
11
98.334900
21
95.654900
0
LINE
8
Layer 1
10
98.334900
20
95.654900
11
98.042867
21
96.266087
0
LINE
8
Layer 1
10
98.042867
20
96.266087
11
97.451193
21
96.647086
0
LINE
8
Layer 1
10
97.451193
20
96.647086
11
96.923681
21
97.024447
0
LINE
8
Layer 1
10
96.923681
20
97.024447
11
96.723590
21
97.641918
0
LINE
8
Layer 1
10
96.723590
20
97.641918
11
96.723600
21
100.116000
0
LINE
8
Layer 1
10
96.723600
20
100.116000
11
96.984876
21
100.746369
0
LINE
8
Layer 1
10
96.984876
20
100.746369
11
97.615245
21
101.007645
0
LINE
8
Layer 1
10
97.615245
20
101.007645
11
97.731700
21
101.007000
0
LINE
8
Layer 1
10
97.731700
20
101.007000
11
97.731700
21
103.053000
0
LINE
8
Layer 1
10
97.731700
20
103.053000
11
99.737200
21
103.053000
0
LINE
8
Layer 1
10
99.737200
20
103.053000
11
99.737200
21
101.007000
0
LINE
8
Layer 1
10
99.737200
20
101.007000
11
99.864200
21
101.007000
0
LINE
8
Layer 1
10
99.864200
20
101.007000
11
100.494569
21
100.745724
0
LINE
8
Layer 1
10
100.494569
20
100.745724
11
100.755845
21
100.115355
0
LINE
8
Layer 1
10
100.755845
20
100.115355
11
100.756000
21
99.546900
0
LINE
8
Layer 1
10
100.756000
20
99.546900
11
100.865141
21
99.178799
0
LINE
8
Layer 1
10
100.865141
20
99.178799
11
100.756000
21
98.808713
0
LINE
8
Layer 1
10
100.756000
20
98.808713
11
100.756000
21
97.940900
0
LINE
8
Layer 1
10
100.756000
20
97.940900
11
100.916073
21
97.526166
0
LINE
8
Layer 1
10
100.916073
20
97.526166
11
101.314270
21
97.329713
0
LINE
8
Layer 1
10
101.314270
20
97.329713
11
101.420000
21
97.329700
0
LINE
8
Layer 1
10
101.420000
20
97.329700
11
101.785125
21
97.178888
0
LINE
8
Layer 1
10
101.785125
20
97.178888
11
102.290479
21
96.673534
0
LINE
8
Layer 1
10
102.290479
20
96.673534
11
102.441291
21
96.308409
0
LINE
8
Layer 1
10
102.441291
20
96.308409
11
102.441000
21
94.244700
0
LINE
8
Layer 1
10
102.441000
20
94.244700
11
102.290188
21
93.879575
0
LINE
8
Layer 1
10
102.290188
20
93.879575
11
101.784834
21
93.374221
0
LINE
8
Layer 1
10
101.784834
20
93.374221
11
101.419709
21
93.223409
0
LINE
8
Layer 1
10
101.419709
20
93.223409
11
101.356000
21
93.223400
0
LINE
8
Layer 1
10
101.356000
20
93.223400
11
101.356000
21
91.151700
0
LINE
8
Layer 1
10
101.356000
20
91.151700
11
99.380000
21
91.151700
0
LINE
8
Layer 1
10
99.380000
20
91.151700
11
99.380000
21
91.151700
0
LINE
8
Layer 1
10
107.640000
20
132.702000
11
114.766000
21
132.702000
0
LINE
8
Layer 1
10
114.766000
20
132.702000
11
116.151795
21
132.421996
0
LINE
8
Layer 1
10
116.151795
20
132.421996
11
117.283839
21
131.658549
0
LINE
8
Layer 1
10
117.283839
20
131.658549
11
118.047286
21
130.526505
0
LINE
8
Layer 1
10
118.047286
20
130.526505
11
118.327290
21
129.140710
0
LINE
8
Layer 1
10
118.327290
20
129.140710
11
118.327000
21
89.783800
0
LINE
8
Layer 1
10
118.327000
20
89.783800
11
118.046996
21
88.398005
0
LINE
8
Layer 1
10
118.046996
20
88.398005
11
117.283549
21
87.265961
0
LINE
8
Layer 1
10
117.283549
20
87.265961
11
116.151505
21
86.502514
0
LINE
8
Layer 1
10
116.151505
20
86.502514
11
114.765710
21
86.222510
0
LINE
8
Layer 1
10
114.765710
20
86.222510
11
107.640000
21
86.222500
0
LINE
8
Layer 1
10
107.640000
20
86.222500
11
106.254205
21
86.502504
0
LINE
8
Layer 1
10
106.254205
20
86.502504
11
105.122161
21
87.265951
0
LINE
8
Layer 1
10
105.122161
20
87.265951
11
104.358714
21
88.397995
0
LINE
8
Layer 1
10
104.358714
20
88.397995
11
104.078710
21
89.783790
0
LINE
8
Layer 1
10
104.078710
20
89.783790
11
104.079000
21
129.143000
0
LINE
8
Layer 1
10
104.079000
20
129.143000
11
104.359004
21
130.528795
0
LINE
8
Layer 1
10
104.359004
20
130.528795
11
105.122451
21
131.660839
0
LINE
8
Layer 1
10
105.122451
20
131.660839
11
106.254495
21
132.424286
0
LINE
8
Layer 1
10
106.254495
20
132.424286
11
107.640290
21
132.704290
0
LINE
8
Layer 1
10
107.640290
20
132.704290
11
107.640000
21
132.702000
0
LINE
8
Layer 1
10
111.302000
20
121.878000
11
112.031546
21
122.025629
0
LINE
8
Layer 1
10
112.031546
20
122.025629
11
112.627890
21
122.428002
0
LINE
8
Layer 1
10
112.627890
20
122.428002
11
113.030262
21
123.024346
0
LINE
8
Layer 1
10
113.030262
20
123.024346
11
113.177890
21
123.753890
0
LINE
8
Layer 1
10
113.177890
20
123.753890
11
113.030261
21
124.483434
0
LINE
8
Layer 1
10
113.030261
20
124.483434
11
112.627888
21
125.079778
0
LINE
8
Layer 1
10
112.627888
20
125.079778
11
112.031544
21
125.482151
0
LINE
8
Layer 1
10
112.031544
20
125.482151
11
111.302000
21
125.629780
0
LINE
8
Layer 1
10
111.302000
20
125.629780
11
110.572456
21
125.482151
0
LINE
8
Layer 1
10
110.572456
20
125.482151
11
109.976112
21
125.079778
0
LINE
8
Layer 1
10
109.976112
20
125.079778
11
109.573739
21
124.483434
0
LINE
8
Layer 1
10
109.573739
20
124.483434
11
109.426110
21
123.753890
0
LINE
8
Layer 1
10
109.426110
20
123.753890
11
109.573739
21
123.024346
0
LINE
8
Layer 1
10
109.573739
20
123.024346
11
109.976112
21
122.428002
0
LINE
8
Layer 1
10
109.976112
20
122.428002
11
110.572456
21
122.025629
0
LINE
8
Layer 1
10
110.572456
20
122.025629
11
111.302000
21
121.878000
0
LINE
8
Layer 1
10
111.302000
20
121.878000
11
111.302000
21
121.878000
0
LINE
8
Layer 1
10
106.802000
20
122.629000
11
107.240009
21
122.717635
0
LINE
8
Layer 1
10
107.240009
20
122.717635
11
107.597404
21
122.959068
0
LINE
8
Layer 1
10
107.597404
20
122.959068
11
107.838216
21
123.316586
0
LINE
8
Layer 1
10
107.838216
20
123.316586
11
107.926480
21
123.753480
0
LINE
8
Layer 1
10
107.926480
20
123.753480
11
107.837845
21
124.190374
0
LINE
8
Layer 1
10
107.837845
20
124.190374
11
107.596412
21
124.547892
0
LINE
8
Layer 1
10
107.596412
20
124.547892
11
107.238894
21
124.789325
0
LINE
8
Layer 1
10
107.238894
20
124.789325
11
106.802000
21
124.877960
0
LINE
8
Layer 1
10
106.802000
20
124.877960
11
106.365106
21
124.789697
0
LINE
8
Layer 1
10
106.365106
20
124.789697
11
106.007588
21
124.548885
0
LINE
8
Layer 1
10
106.007588
20
124.548885
11
105.766155
21
124.191490
0
LINE
8
Layer 1
10
105.766155
20
124.191490
11
105.677520
21
123.753480
0
LINE
8
Layer 1
10
105.677520
20
123.753480
11
105.766155
21
123.315470
0
LINE
8
Layer 1
10
105.766155
20
123.315470
11
106.007588
21
122.958076
0
LINE
8
Layer 1
10
106.007588
20
122.958076
11
106.365106
21
122.717263
0
LINE
8
Layer 1
10
106.365106
20
122.717263
11
106.802000
21
122.629000
0
LINE
8
Layer 1
10
106.802000
20
122.629000
11
106.802000
21
122.629000
0
LINE
8
Layer 1
10
114.160000
20
112.125000
11
114.598009
21
112.213635
0
LINE
8
Layer 1
10
114.598009
20
112.213635
11
114.955404
21
112.455068
0
LINE
8
Layer 1
10
114.955404
20
112.455068
11
115.196216
21
112.812586
0
LINE
8
Layer 1
10
115.196216
20
112.812586
11
115.284480
21
113.249480
0
LINE
8
Layer 1
10
115.284480
20
113.249480
11
115.195845
21
113.686374
0
LINE
8
Layer 1
10
115.195845
20
113.686374
11
114.954412
21
114.043892
0
LINE
8
Layer 1
10
114.954412
20
114.043892
11
114.596894
21
114.285325
0
LINE
8
Layer 1
10
114.596894
20
114.285325
11
114.160000
21
114.373960
0
LINE
8
Layer 1
10
114.160000
20
114.373960
11
113.723106
21
114.285697
0
LINE
8
Layer 1
10
113.723106
20
114.285697
11
113.365588
21
114.044885
0
LINE
8
Layer 1
10
113.365588
20
114.044885
11
113.124155
21
113.687490
0
LINE
8
Layer 1
10
113.124155
20
113.687490
11
113.035520
21
113.249480
0
LINE
8
Layer 1
10
113.035520
20
113.249480
11
113.124155
21
112.811470
0
LINE
8
Layer 1
10
113.124155
20
112.811470
11
113.365588
21
112.454075
0
LINE
8
Layer 1
10
113.365588
20
112.454075
11
113.723106
21
112.213263
0
LINE
8
Layer 1
10
113.723106
20
112.213263
11
114.160000
21
112.125000
0
LINE
8
Layer 1
10
114.160000
20
112.125000
11
114.160000
21
112.125000
0
LINE
8
Layer 1
10
115.811000
20
108.376000
11
116.249009
21
108.464635
0
LINE
8
Layer 1
10
116.249009
20
108.464635
11
116.606404
21
108.706068
0
LINE
8
Layer 1
10
116.606404
20
108.706068
11
116.847216
21
109.063586
0
LINE
8
Layer 1
10
116.847216
20
109.063586
11
116.935480
21
109.500480
0
LINE
8
Layer 1
10
116.935480
20
109.500480
11
116.846845
21
109.937374
0
LINE
8
Layer 1
10
116.846845
20
109.937374
11
116.605412
21
110.294892
0
LINE
8
Layer 1
10
116.605412
20
110.294892
11
116.247894
21
110.536325
0
LINE
8
Layer 1
10
116.247894
20
110.536325
11
115.811000
21
110.624960
0
LINE
8
Layer 1
10
115.811000
20
110.624960
11
115.374106
21
110.536325
0
LINE
8
Layer 1
10
115.374106
20
110.536325
11
115.016588
21
110.294892
0
LINE
8
Layer 1
10
115.016588
20
110.294892
11
114.775155
21
109.937374
0
LINE
8
Layer 1
10
114.775155
20
109.937374
11
114.686520
21
109.500480
0
LINE
8
Layer 1
10
114.686520
20
109.500480
11
114.775155
21
109.063586
0
LINE
8
Layer 1
10
114.775155
20
109.063586
11
115.016588
21
108.706068
0
LINE
8
Layer 1
10
115.016588
20
108.706068
11
115.374106
21
108.464635
0
LINE
8
Layer 1
10
115.374106
20
108.464635
11
115.811000
21
108.376000
0
LINE
8
Layer 1
10
115.811000
20
108.376000
11
115.811000
21
108.376000
0
LINE
8
Layer 1
10
114.160000
20
97.874800
11
114.598009
21
97.963435
0
LINE
8
Layer 1
10
114.598009
20
97.963435
11
114.955404
21
98.204868
0
LINE
8
Layer 1
10
114.955404
20
98.204868
11
115.196216
21
98.562386
0
LINE
8
Layer 1
10
115.196216
20
98.562386
11
115.284480
21
98.999280
0
LINE
8
Layer 1
10
115.284480
20
98.999280
11
115.195845
21
99.436174
0
LINE
8
Layer 1
10
115.195845
20
99.436174
11
114.954412
21
99.793692
0
LINE
8
Layer 1
10
114.954412
20
99.793692
11
114.596894
21
100.035125
0
LINE
8
Layer 1
10
114.596894
20
100.035125
11
114.160000
21
100.123760
0
LINE
8
Layer 1
10
114.160000
20
100.123760
11
113.723106
21
100.035125
0
LINE
8
Layer 1
10
113.723106
20
100.035125
11
113.365588
21
99.793692
0
LINE
8
Layer 1
10
113.365588
20
99.793692
11
113.124155
21
99.436174
0
LINE
8
Layer 1
10
113.124155
20
99.436174
11
113.035520
21
98.999280
0
LINE
8
Layer 1
10
113.035520
20
98.999280
11
113.124155
21
98.562386
0
LINE
8
Layer 1
10
113.124155
20
98.562386
11
113.365588
21
98.204868
0
LINE
8
Layer 1
10
113.365588
20
98.204868
11
113.723106
21
97.963435
0
LINE
8
Layer 1
10
113.723106
20
97.963435
11
114.160000
21
97.874800
0
LINE
8
Layer 1
10
114.160000
20
97.874800
11
114.160000
21
97.874800
0
LINE
8
Layer 1
10
115.811000
20
94.125600
11
116.249009
21
94.214235
0
LINE
8
Layer 1
10
116.249009
20
94.214235
11
116.606404
21
94.455668
0
LINE
8
Layer 1
10
116.606404
20
94.455668
11
116.847216
21
94.813186
0
LINE
8
Layer 1
10
116.847216
20
94.813186
11
116.935480
21
95.250080
0
LINE
8
Layer 1
10
116.935480
20
95.250080
11
116.846845
21
95.686974
0
LINE
8
Layer 1
10
116.846845
20
95.686974
11
116.605412
21
96.044492
0
LINE
8
Layer 1
10
116.605412
20
96.044492
11
116.247894
21
96.285925
0
LINE
8
Layer 1
10
116.247894
20
96.285925
11
115.811000
21
96.374560
0
LINE
8
Layer 1
10
115.811000
20
96.374560
11
115.374106
21
96.285925
0
LINE
8
Layer 1
10
115.374106
20
96.285925
11
115.016588
21
96.044492
0
LINE
8
Layer 1
10
115.016588
20
96.044492
11
114.775155
21
95.686974
0
LINE
8
Layer 1
10
114.775155
20
95.686974
11
114.686520
21
95.250080
0
LINE
8
Layer 1
10
114.686520
20
95.250080
11
114.775155
21
94.813186
0
LINE
8
Layer 1
10
114.775155
20
94.813186
11
115.016588
21
94.455668
0
LINE
8
Layer 1
10
115.016588
20
94.455668
11
115.374106
21
94.214235
0
LINE
8
Layer 1
10
115.374106
20
94.214235
11
115.811000
21
94.125600
0
LINE
8
Layer 1
10
115.811000
20
94.125600
11
115.811000
21
94.125600
0
LINE
8
Layer 1
10
108.453000
20
118.877000
11
108.891009
21
118.965263
0
LINE
8
Layer 1
10
108.891009
20
118.965263
11
109.248404
21
119.206075
0
LINE
8
Layer 1
10
109.248404
20
119.206075
11
109.489216
21
119.563470
0
LINE
8
Layer 1
10
109.489216
20
119.563470
11
109.577480
21
120.001480
0
LINE
8
Layer 1
10
109.577480
20
120.001480
11
109.488845
21
120.439490
0
LINE
8
Layer 1
10
109.488845
20
120.439490
11
109.247412
21
120.796885
0
LINE
8
Layer 1
10
109.247412
20
120.796885
11
108.889894
21
121.037697
0
LINE
8
Layer 1
10
108.889894
20
121.037697
11
108.453000
21
121.125960
0
LINE
8
Layer 1
10
108.453000
20
121.125960
11
108.016106
21
121.037697
0
LINE
8
Layer 1
10
108.016106
20
121.037697
11
107.658588
21
120.796885
0
LINE
8
Layer 1
10
107.658588
20
120.796885
11
107.417155
21
120.439490
0
LINE
8
Layer 1
10
107.417155
20
120.439490
11
107.328520
21
120.001480
0
LINE
8
Layer 1
10
107.328520
20
120.001480
11
107.417155
21
119.563470
0
LINE
8
Layer 1
10
107.417155
20
119.563470
11
107.658588
21
119.206075
0
LINE
8
Layer 1
10
107.658588
20
119.206075
11
108.016106
21
118.965263
0
LINE
8
Layer 1
10
108.016106
20
118.965263
11
108.453000
21
118.877000
0
LINE
8
Layer 1
10
108.453000
20
118.877000
11
108.453000
21
118.877000
0
LINE
8
Layer 1
10
107.479000
20
115.946000
11
107.479000
21
118.012000
0
LINE
8
Layer 1
10
107.479000
20
118.012000
11
107.352000
21
118.012000
0
LINE
8
Layer 1
10
107.352000
20
118.012000
11
106.721631
21
118.273276
0
LINE
8
Layer 1
10
106.721631
20
118.273276
11
106.460355
21
118.903645
0
LINE
8
Layer 1
10
106.460355
20
118.903645
11
106.460000
21
119.473000
0
LINE
8
Layer 1
10
106.460000
20
119.473000
11
106.350859
21
119.841101
0
LINE
8
Layer 1
10
106.350859
20
119.841101
11
106.460000
21
120.211187
0
LINE
8
Layer 1
10
106.460000
20
120.211187
11
106.460000
21
121.079000
0
LINE
8
Layer 1
10
106.460000
20
121.079000
11
106.299927
21
121.493734
0
LINE
8
Layer 1
10
106.299927
20
121.493734
11
105.901730
21
121.690187
0
LINE
8
Layer 1
10
105.901730
20
121.690187
11
105.796000
21
121.690000
0
LINE
8
Layer 1
10
105.796000
20
121.690000
11
105.430875
21
121.840812
0
LINE
8
Layer 1
10
105.430875
20
121.840812
11
104.925521
21
122.346166
0
LINE
8
Layer 1
10
104.925521
20
122.346166
11
104.774709
21
122.711291
0
LINE
8
Layer 1
10
104.774709
20
122.711291
11
104.775000
21
124.775000
0
LINE
8
Layer 1
10
104.775000
20
124.775000
11
104.925812
21
125.140125
0
LINE
8
Layer 1
10
104.925812
20
125.140125
11
105.431166
21
125.645479
0
LINE
8
Layer 1
10
105.431166
20
125.645479
11
105.796291
21
125.796291
0
LINE
8
Layer 1
10
105.796291
20
125.796291
11
105.860000
21
125.796000
0
LINE
8
Layer 1
10
105.860000
20
125.796000
11
105.860000
21
127.585000
0
LINE
8
Layer 1
10
105.860000
20
127.585000
11
107.836000
21
127.585000
0
LINE
8
Layer 1
10
107.836000
20
127.585000
11
107.836000
21
125.796000
0
LINE
8
Layer 1
10
107.836000
20
125.796000
11
107.860000
21
125.796000
0
LINE
8
Layer 1
10
107.860000
20
125.796000
11
108.225125
21
125.645188
0
LINE
8
Layer 1
10
108.225125
20
125.645188
11
108.730479
21
125.139834
0
LINE
8
Layer 1
10
108.730479
20
125.139834
11
108.881291
21
124.774709
0
LINE
8
Layer 1
10
108.881291
20
124.774709
11
108.881000
21
123.367000
0
LINE
8
Layer 1
10
108.881000
20
123.367000
11
109.173033
21
122.755813
0
LINE
8
Layer 1
10
109.173033
20
122.755813
11
109.764707
21
122.374814
0
LINE
8
Layer 1
10
109.764707
20
122.374814
11
110.292219
21
121.997453
0
LINE
8
Layer 1
10
110.292219
20
121.997453
11
110.492310
21
121.379982
0
LINE
8
Layer 1
10
110.492310
20
121.379982
11
110.493000
21
118.906000
0
LINE
8
Layer 1
10
110.493000
20
118.906000
11
110.231724
21
118.275631
0
LINE
8
Layer 1
10
110.231724
20
118.275631
11
109.601355
21
118.014355
0
LINE
8
Layer 1
10
109.601355
20
118.014355
11
109.484000
21
118.015000
0
LINE
8
Layer 1
10
109.484000
20
118.015000
11
109.484000
21
115.948000
0
LINE
8
Layer 1
10
109.484000
20
115.948000
11
107.479000
21
115.948000
0
LINE
8
Layer 1
10
107.479000
20
115.948000
11
107.479000
21
115.946000
0
LINE
8
Layer 1
10
114.771000
20
105.233000
11
114.771000
21
107.471000
0
LINE
8
Layer 1
10
114.771000
20
107.471000
11
114.747000
21
107.471000
0
LINE
8
Layer 1
10
114.747000
20
107.471000
11
114.381875
21
107.621812
0
LINE
8
Layer 1
10
114.381875
20
107.621812
11
113.876521
21
108.129811
0
LINE
8
Layer 1
10
113.876521
20
108.129811
11
113.725709
21
108.494936
0
LINE
8
Layer 1
10
113.725709
20
108.494936
11
113.726000
21
109.903000
0
LINE
8
Layer 1
10
113.726000
20
109.903000
11
113.432975
21
110.514187
0
LINE
8
Layer 1
10
113.432975
20
110.514187
11
112.842293
21
110.895186
0
LINE
8
Layer 1
10
112.842293
20
110.895186
11
112.314781
21
111.272547
0
LINE
8
Layer 1
10
112.314781
20
111.272547
11
112.114690
21
111.890018
0
LINE
8
Layer 1
10
112.114690
20
111.890018
11
112.114000
21
114.364000
0
LINE
8
Layer 1
10
112.114000
20
114.364000
11
112.375276
21
114.994369
0
LINE
8
Layer 1
10
112.375276
20
114.994369
11
113.005645
21
115.255645
0
LINE
8
Layer 1
10
113.005645
20
115.255645
11
113.122000
21
115.255000
0
LINE
8
Layer 1
10
113.122000
20
115.255000
11
113.122000
21
117.322000
0
LINE
8
Layer 1
10
113.122000
20
117.322000
11
115.128000
21
117.322000
0
LINE
8
Layer 1
10
115.128000
20
117.322000
11
115.128000
21
115.255000
0
LINE
8
Layer 1
10
115.128000
20
115.255000
11
115.255000
21
115.255000
0
LINE
8
Layer 1
10
115.255000
20
115.255000
11
115.885369
21
114.993724
0
LINE
8
Layer 1
10
115.885369
20
114.993724
11
116.146645
21
114.363355
0
LINE
8
Layer 1
10
116.146645
20
114.363355
11
116.147000
21
113.795000
0
LINE
8
Layer 1
10
116.147000
20
113.795000
11
116.256141
21
113.427230
0
LINE
8
Layer 1
10
116.256141
20
113.427230
11
116.147000
21
113.059459
0
LINE
8
Layer 1
10
116.147000
20
113.059459
11
116.147000
21
112.191000
0
LINE
8
Layer 1
10
116.147000
20
112.191000
11
116.309057
21
111.778250
0
LINE
8
Layer 1
10
116.309057
20
111.778250
11
116.705270
21
111.579813
0
LINE
8
Layer 1
10
116.705270
20
111.579813
11
116.811000
21
111.580000
0
LINE
8
Layer 1
10
116.811000
20
111.580000
11
117.176125
21
111.429188
0
LINE
8
Layer 1
10
117.176125
20
111.429188
11
117.681479
21
110.923834
0
LINE
8
Layer 1
10
117.681479
20
110.923834
11
117.832291
21
110.558709
0
LINE
8
Layer 1
10
117.832291
20
110.558709
11
117.832000
21
108.495000
0
LINE
8
Layer 1
10
117.832000
20
108.495000
11
117.681188
21
108.129875
0
LINE
8
Layer 1
10
117.681188
20
108.129875
11
117.175834
21
107.624521
0
LINE
8
Layer 1
10
117.175834
20
107.624521
11
116.810709
21
107.473709
0
LINE
8
Layer 1
10
116.810709
20
107.473709
11
116.747000
21
107.474000
0
LINE
8
Layer 1
10
116.747000
20
107.474000
11
116.747000
21
105.235000
0
LINE
8
Layer 1
10
116.747000
20
105.235000
11
114.771000
21
105.235000
0
LINE
8
Layer 1
10
114.771000
20
105.235000
11
114.771000
21
105.233000
0
LINE
8
Layer 1
10
114.771000
20
91.151700
11
114.771000
21
93.223400
0
LINE
8
Layer 1
10
114.771000
20
93.223400
11
114.747000
21
93.223400
0
LINE
8
Layer 1
10
114.747000
20
93.223400
11
114.381875
21
93.374212
0
LINE
8
Layer 1
10
114.381875
20
93.374212
11
113.876521
21
93.882211
0
LINE
8
Layer 1
10
113.876521
20
93.882211
11
113.725709
21
94.247336
0
LINE
8
Layer 1
10
113.725709
20
94.247336
11
113.726000
21
95.654900
0
LINE
8
Layer 1
10
113.726000
20
95.654900
11
113.433967
21
96.266087
0
LINE
8
Layer 1
10
113.433967
20
96.266087
11
112.842293
21
96.647086
0
LINE
8
Layer 1
10
112.842293
20
96.647086
11
112.314781
21
97.024447
0
LINE
8
Layer 1
10
112.314781
20
97.024447
11
112.114690
21
97.641918
0
LINE
8
Layer 1
10
112.114690
20
97.641918
11
112.114000
21
100.116000
0
LINE
8
Layer 1
10
112.114000
20
100.116000
11
112.375276
21
100.746369
0
LINE
8
Layer 1
10
112.375276
20
100.746369
11
113.005645
21
101.007645
0
LINE
8
Layer 1
10
113.005645
20
101.007645
11
113.122000
21
101.007000
0
LINE
8
Layer 1
10
113.122000
20
101.007000
11
113.122000
21
103.053000
0
LINE
8
Layer 1
10
113.122000
20
103.053000
11
115.128000
21
103.053000
0
LINE
8
Layer 1
10
115.128000
20
103.053000
11
115.128000
21
101.007000
0
LINE
8
Layer 1
10
115.128000
20
101.007000
11
115.255000
21
101.007000
0
LINE
8
Layer 1
10
115.255000
20
101.007000
11
115.885369
21
100.745724
0
LINE
8
Layer 1
10
115.885369
20
100.745724
11
116.146645
21
100.115355
0
LINE
8
Layer 1
10
116.146645
20
100.115355
11
116.147000
21
99.546900
0
LINE
8
Layer 1
10
116.147000
20
99.546900
11
116.256141
21
99.178799
0
LINE
8
Layer 1
10
116.256141
20
99.178799
11
116.147000
21
98.808713
0
LINE
8
Layer 1
10
116.147000
20
98.808713
11
116.147000
21
97.940900
0
LINE
8
Layer 1
10
116.147000
20
97.940900
11
116.307073
21
97.526166
0
LINE
8
Layer 1
10
116.307073
20
97.526166
11
116.705270
21
97.329713
0
LINE
8
Layer 1
10
116.705270
20
97.329713
11
116.811000
21
97.329700
0
LINE
8
Layer 1
10
116.811000
20
97.329700
11
117.176125
21
97.178888
0
LINE
8
Layer 1
10
117.176125
20
97.178888
11
117.681479
21
96.673534
0
LINE
8
Layer 1
10
117.681479
20
96.673534
11
117.832291
21
96.308409
0
LINE
8
Layer 1
10
117.832291
20
96.308409
11
117.832000
21
94.244700
0
LINE
8
Layer 1
10
117.832000
20
94.244700
11
117.681188
21
93.879575
0
LINE
8
Layer 1
10
117.681188
20
93.879575
11
117.175834
21
93.374221
0
LINE
8
Layer 1
10
117.175834
20
93.374221
11
116.810709
21
93.223409
0
LINE
8
Layer 1
10
116.810709
20
93.223409
11
116.747000
21
93.223400
0
LINE
8
Layer 1
10
116.747000
20
93.223400
11
116.747000
21
91.151700
0
LINE
8
Layer 1
10
116.747000
20
91.151700
11
114.771000
21
91.151700
0
LINE
8
Layer 1
10
114.771000
20
91.151700
11
114.771000
21
91.151700
0
LINE
8
Layer 1
10
72.154400
20
129.141000
11
71.874396
21
130.526795
0
LINE
8
Layer 1
10
71.874396
20
130.526795
11
71.110949
21
131.658839
0
LINE
8
Layer 1
10
71.110949
20
131.658839
11
69.978905
21
132.422286
0
LINE
8
Layer 1
10
69.978905
20
132.422286
11
68.593110
21
132.702290
0
LINE
8
Layer 1
10
68.593110
20
132.702290
11
61.467900
21
132.702000
0
LINE
8
Layer 1
10
61.467900
20
132.702000
11
60.082105
21
132.421996
0
LINE
8
Layer 1
10
60.082105
20
132.421996
11
58.950061
21
131.658549
0
LINE
8
Layer 1
10
58.950061
20
131.658549
11
58.186614
21
130.526505
0
LINE
8
Layer 1
10
58.186614
20
130.526505
11
57.906610
21
129.140710
0
LINE
8
Layer 1
10
57.906610
20
129.140710
11
57.906600
21
85.905000
0
LINE
8
Layer 1
10
57.906600
20
85.905000
11
61.063080
21
70.302500
0
LINE
8
Layer 1
10
61.063080
20
70.302500
11
61.505967
21
69.190426
0
LINE
8
Layer 1
10
61.505967
20
69.190426
11
62.111820
21
68.549640
0
LINE
8
Layer 1
10
62.111820
20
68.549640
11
62.987053
21
68.256119
0
LINE
8
Layer 1
10
62.987053
20
68.256119
11
64.238080
21
68.185840
0
LINE
8
Layer 1
10
64.238080
20
68.185840
11
68.593120
21
68.228173
0
LINE
8
Layer 1
10
68.593120
20
68.228173
11
69.978915
21
68.508177
0
LINE
8
Layer 1
10
69.978915
20
68.508177
11
71.110959
21
69.271625
0
LINE
8
Layer 1
10
71.110959
20
69.271625
11
71.874406
21
70.403669
0
LINE
8
Layer 1
10
71.874406
20
70.403669
11
72.154410
21
71.789463
0
LINE
8
Layer 1
10
72.154410
20
71.789463
11
72.154400
21
129.141000
0
LINE
8
Layer 1
10
72.154400
20
129.141000
11
72.154400
21
129.141000
0
LINE
8
Layer 1
10
65.129800
20
121.878000
11
65.859346
21
122.025629
0
LINE
8
Layer 1
10
65.859346
20
122.025629
11
66.455690
21
122.428002
0
LINE
8
Layer 1
10
66.455690
20
122.428002
11
66.858062
21
123.024346
0
LINE
8
Layer 1
10
66.858062
20
123.024346
11
67.005690
21
123.753890
0
LINE
8
Layer 1
10
67.005690
20
123.753890
11
66.858061
21
124.483434
0
LINE
8
Layer 1
10
66.858061
20
124.483434
11
66.455688
21
125.079778
0
LINE
8
Layer 1
10
66.455688
20
125.079778
11
65.859344
21
125.482151
0
LINE
8
Layer 1
10
65.859344
20
125.482151
11
65.129800
21
125.629780
0
LINE
8
Layer 1
10
65.129800
20
125.629780
11
64.400256
21
125.482151
0
LINE
8
Layer 1
10
64.400256
20
125.482151
11
63.803912
21
125.079778
0
LINE
8
Layer 1
10
63.803912
20
125.079778
11
63.401539
21
124.483434
0
LINE
8
Layer 1
10
63.401539
20
124.483434
11
63.253910
21
123.753890
0
LINE
8
Layer 1
10
63.253910
20
123.753890
11
63.401539
21
123.024346
0
LINE
8
Layer 1
10
63.401539
20
123.024346
11
63.803912
21
122.428002
0
LINE
8
Layer 1
10
63.803912
20
122.428002
11
64.400256
21
122.025629
0
LINE
8
Layer 1
10
64.400256
20
122.025629
11
65.129800
21
121.878000
0
LINE
8
Layer 1
10
65.129800
20
121.878000
11
65.129800
21
121.878000
0
LINE
8
Layer 1
10
60.629200
20
122.629000
11
61.067209
21
122.717635
0
LINE
8
Layer 1
10
61.067209
20
122.717635
11
61.424604
21
122.959068
0
LINE
8
Layer 1
10
61.424604
20
122.959068
11
61.665416
21
123.316586
0
LINE
8
Layer 1
10
61.665416
20
123.316586
11
61.753680
21
123.753480
0
LINE
8
Layer 1
10
61.753680
20
123.753480
11
61.665045
21
124.190374
0
LINE
8
Layer 1
10
61.665045
20
124.190374
11
61.423612
21
124.547892
0
LINE
8
Layer 1
10
61.423612
20
124.547892
11
61.066094
21
124.789325
0
LINE
8
Layer 1
10
61.066094
20
124.789325
11
60.629200
21
124.877960
0
LINE
8
Layer 1
10
60.629200
20
124.877960
11
60.192306
21
124.789697
0
LINE
8
Layer 1
10
60.192306
20
124.789697
11
59.834788
21
124.548885
0
LINE
8
Layer 1
10
59.834788
20
124.548885
11
59.593355
21
124.191490
0
LINE
8
Layer 1
10
59.593355
20
124.191490
11
59.504720
21
123.753480
0
LINE
8
Layer 1
10
59.504720
20
123.753480
11
59.593355
21
123.315470
0
LINE
8
Layer 1
10
59.593355
20
123.315470
11
59.834788
21
122.958076
0
LINE
8
Layer 1
10
59.834788
20
122.958076
11
60.192306
21
122.717263
0
LINE
8
Layer 1
10
60.192306
20
122.717263
11
60.629200
21
122.629000
0
LINE
8
Layer 1
10
60.629200
20
122.629000
11
60.629200
21
122.629000
0
LINE
8
Layer 1
10
67.987200
20
112.125000
11
68.425209
21
112.213635
0
LINE
8
Layer 1
10
68.425209
20
112.213635
11
68.782604
21
112.455068
0
LINE
8
Layer 1
10
68.782604
20
112.455068
11
69.023416
21
112.812586
0
LINE
8
Layer 1
10
69.023416
20
112.812586
11
69.111680
21
113.249480
0
LINE
8
Layer 1
10
69.111680
20
113.249480
11
69.023045
21
113.686374
0
LINE
8
Layer 1
10
69.023045
20
113.686374
11
68.781612
21
114.043892
0
LINE
8
Layer 1
10
68.781612
20
114.043892
11
68.424094
21
114.285325
0
LINE
8
Layer 1
10
68.424094
20
114.285325
11
67.987200
21
114.373960
0
LINE
8
Layer 1
10
67.987200
20
114.373960
11
67.550306
21
114.285697
0
LINE
8
Layer 1
10
67.550306
20
114.285697
11
67.192788
21
114.044885
0
LINE
8
Layer 1
10
67.192788
20
114.044885
11
66.951355
21
113.687490
0
LINE
8
Layer 1
10
66.951355
20
113.687490
11
66.862720
21
113.249480
0
LINE
8
Layer 1
10
66.862720
20
113.249480
11
66.951355
21
112.811470
0
LINE
8
Layer 1
10
66.951355
20
112.811470
11
67.192788
21
112.454075
0
LINE
8
Layer 1
10
67.192788
20
112.454075
11
67.550306
21
112.213263
0
LINE
8
Layer 1
10
67.550306
20
112.213263
11
67.987200
21
112.125000
0
LINE
8
Layer 1
10
67.987200
20
112.125000
11
67.987200
21
112.125000
0
LINE
8
Layer 1
10
69.638200
20
108.376000
11
70.076209
21
108.464635
0
LINE
8
Layer 1
10
70.076209
20
108.464635
11
70.433604
21
108.706068
0
LINE
8
Layer 1
10
70.433604
20
108.706068
11
70.674416
21
109.063586
0
LINE
8
Layer 1
10
70.674416
20
109.063586
11
70.762680
21
109.500480
0
LINE
8
Layer 1
10
70.762680
20
109.500480
11
70.674045
21
109.937374
0
LINE
8
Layer 1
10
70.674045
20
109.937374
11
70.432612
21
110.294892
0
LINE
8
Layer 1
10
70.432612
20
110.294892
11
70.075094
21
110.536325
0
LINE
8
Layer 1
10
70.075094
20
110.536325
11
69.638200
21
110.624960
0
LINE
8
Layer 1
10
69.638200
20
110.624960
11
69.201306
21
110.536325
0
LINE
8
Layer 1
10
69.201306
20
110.536325
11
68.843788
21
110.294892
0
LINE
8
Layer 1
10
68.843788
20
110.294892
11
68.602355
21
109.937374
0
LINE
8
Layer 1
10
68.602355
20
109.937374
11
68.513720
21
109.500480
0
LINE
8
Layer 1
10
68.513720
20
109.500480
11
68.602355
21
109.063586
0
LINE
8
Layer 1
10
68.602355
20
109.063586
11
68.843788
21
108.706068
0
LINE
8
Layer 1
10
68.843788
20
108.706068
11
69.201306
21
108.464635
0
LINE
8
Layer 1
10
69.201306
20
108.464635
11
69.638200
21
108.376000
0
LINE
8
Layer 1
10
69.638200
20
108.376000
11
69.638200
21
108.376000
0
LINE
8
Layer 1
10
68.516400
20
80.412300
11
68.954409
21
80.500935
0
LINE
8
Layer 1
10
68.954409
20
80.500935
11
69.311804
21
80.742368
0
LINE
8
Layer 1
10
69.311804
20
80.742368
11
69.552616
21
81.099886
0
LINE
8
Layer 1
10
69.552616
20
81.099886
11
69.640880
21
81.536780
0
LINE
8
Layer 1
10
69.640880
20
81.536780
11
69.552245
21
81.973674
0
LINE
8
Layer 1
10
69.552245
20
81.973674
11
69.310812
21
82.331192
0
LINE
8
Layer 1
10
69.310812
20
82.331192
11
68.953294
21
82.572625
0
LINE
8
Layer 1
10
68.953294
20
82.572625
11
68.516400
21
82.661260
0
LINE
8
Layer 1
10
68.516400
20
82.661260
11
68.079506
21
82.572625
0
LINE
8
Layer 1
10
68.079506
20
82.572625
11
67.721988
21
82.331192
0
LINE
8
Layer 1
10
67.721988
20
82.331192
11
67.480555
21
81.973674
0
LINE
8
Layer 1
10
67.480555
20
81.973674
11
67.391920
21
81.536780
0
LINE
8
Layer 1
10
67.391920
20
81.536780
11
67.480555
21
81.099886
0
LINE
8
Layer 1
10
67.480555
20
81.099886
11
67.721988
21
80.742368
0
LINE
8
Layer 1
10
67.721988
20
80.742368
11
68.079506
21
80.500935
0
LINE
8
Layer 1
10
68.079506
20
80.500935
11
68.516400
21
80.412300
0
LINE
8
Layer 1
10
68.516400
20
80.412300
11
68.516400
21
80.412300
0
LINE
8
Layer 1
10
70.167400
20
76.663100
11
70.605409
21
76.751735
0
LINE
8
Layer 1
10
70.605409
20
76.751735
11
70.962804
21
76.993168
0
LINE
8
Layer 1
10
70.962804
20
76.993168
11
71.203616
21
77.350686
0
LINE
8
Layer 1
10
71.203616
20
77.350686
11
71.291880
21
77.787580
0
LINE
8
Layer 1
10
71.291880
20
77.787580
11
71.203245
21
78.224474
0
LINE
8
Layer 1
10
71.203245
20
78.224474
11
70.961812
21
78.581992
0
LINE
8
Layer 1
10
70.961812
20
78.581992
11
70.604294
21
78.823425
0
LINE
8
Layer 1
10
70.604294
20
78.823425
11
70.167400
21
78.912060
0
LINE
8
Layer 1
10
70.167400
20
78.912060
11
69.730506
21
78.823425
0
LINE
8
Layer 1
10
69.730506
20
78.823425
11
69.372988
21
78.581992
0
LINE
8
Layer 1
10
69.372988
20
78.581992
11
69.131555
21
78.224474
0
LINE
8
Layer 1
10
69.131555
20
78.224474
11
69.042920
21
77.787580
0
LINE
8
Layer 1
10
69.042920
20
77.787580
11
69.131555
21
77.350686
0
LINE
8
Layer 1
10
69.131555
20
77.350686
11
69.372988
21
76.993168
0
LINE
8
Layer 1
10
69.372988
20
76.993168
11
69.730506
21
76.751735
0
LINE
8
Layer 1
10
69.730506
20
76.751735
11
70.167400
21
76.663100
0
LINE
8
Layer 1
10
70.167400
20
76.663100
11
70.167400
21
76.663100
0
LINE
8
Layer 1
10
62.280200
20
118.877000
11
62.718209
21
118.965263
0
LINE
8
Layer 1
10
62.718209
20
118.965263
11
63.075604
21
119.206075
0
LINE
8
Layer 1
10
63.075604
20
119.206075
11
63.316416
21
119.563470
0
LINE
8
Layer 1
10
63.316416
20
119.563470
11
63.404680
21
120.001480
0
LINE
8
Layer 1
10
63.404680
20
120.001480
11
63.316045
21
120.439490
0
LINE
8
Layer 1
10
63.316045
20
120.439490
11
63.074612
21
120.796885
0
LINE
8
Layer 1
10
63.074612
20
120.796885
11
62.717094
21
121.037697
0
LINE
8
Layer 1
10
62.717094
20
121.037697
11
62.280200
21
121.125960
0
LINE
8
Layer 1
10
62.280200
20
121.125960
11
61.843306
21
121.037697
0
LINE
8
Layer 1
10
61.843306
20
121.037697
11
61.485788
21
120.796885
0
LINE
8
Layer 1
10
61.485788
20
120.796885
11
61.244355
21
120.439490
0
LINE
8
Layer 1
10
61.244355
20
120.439490
11
61.155720
21
120.001480
0
LINE
8
Layer 1
10
61.155720
20
120.001480
11
61.244355
21
119.563470
0
LINE
8
Layer 1
10
61.244355
20
119.563470
11
61.485788
21
119.206075
0
LINE
8
Layer 1
10
61.485788
20
119.206075
11
61.843306
21
118.965263
0
LINE
8
Layer 1
10
61.843306
20
118.965263
11
62.280200
21
118.877000
0
LINE
8
Layer 1
10
62.280200
20
118.877000
11
62.280200
21
118.877000
0
LINE
8
Layer 1
10
67.987200
20
97.874800
11
68.425209
21
97.963435
0
LINE
8
Layer 1
10
68.425209
20
97.963435
11
68.782604
21
98.204868
0
LINE
8
Layer 1
10
68.782604
20
98.204868
11
69.023416
21
98.562386
0
LINE
8
Layer 1
10
69.023416
20
98.562386
11
69.111680
21
98.999280
0
LINE
8
Layer 1
10
69.111680
20
98.999280
11
69.023045
21
99.436174
0
LINE
8
Layer 1
10
69.023045
20
99.436174
11
68.781612
21
99.793692
0
LINE
8
Layer 1
10
68.781612
20
99.793692
11
68.424094
21
100.035125
0
LINE
8
Layer 1
10
68.424094
20
100.035125
11
67.987200
21
100.123760
0
LINE
8
Layer 1
10
67.987200
20
100.123760
11
67.550306
21
100.035125
0
LINE
8
Layer 1
10
67.550306
20
100.035125
11
67.192788
21
99.793692
0
LINE
8
Layer 1
10
67.192788
20
99.793692
11
66.951355
21
99.436174
0
LINE
8
Layer 1
10
66.951355
20
99.436174
11
66.862720
21
98.999280
0
LINE
8
Layer 1
10
66.862720
20
98.999280
11
66.951355
21
98.562386
0
LINE
8
Layer 1
10
66.951355
20
98.562386
11
67.192788
21
98.204868
0
LINE
8
Layer 1
10
67.192788
20
98.204868
11
67.550306
21
97.963435
0
LINE
8
Layer 1
10
67.550306
20
97.963435
11
67.987200
21
97.874800
0
LINE
8
Layer 1
10
67.987200
20
97.874800
11
67.987200
21
97.874800
0
LINE
8
Layer 1
10
69.638200
20
94.125600
11
70.076209
21
94.214235
0
LINE
8
Layer 1
10
70.076209
20
94.214235
11
70.433604
21
94.455668
0
LINE
8
Layer 1
10
70.433604
20
94.455668
11
70.674416
21
94.813186
0
LINE
8
Layer 1
10
70.674416
20
94.813186
11
70.762680
21
95.250080
0
LINE
8
Layer 1
10
70.762680
20
95.250080
11
70.674045
21
95.686974
0
LINE
8
Layer 1
10
70.674045
20
95.686974
11
70.432612
21
96.044492
0
LINE
8
Layer 1
10
70.432612
20
96.044492
11
70.075094
21
96.285925
0
LINE
8
Layer 1
10
70.075094
20
96.285925
11
69.638200
21
96.374560
0
LINE
8
Layer 1
10
69.638200
20
96.374560
11
69.201306
21
96.285925
0
LINE
8
Layer 1
10
69.201306
20
96.285925
11
68.843788
21
96.044492
0
LINE
8
Layer 1
10
68.843788
20
96.044492
11
68.602355
21
95.686974
0
LINE
8
Layer 1
10
68.602355
20
95.686974
11
68.513720
21
95.250080
0
LINE
8
Layer 1
10
68.513720
20
95.250080
11
68.602355
21
94.813186
0
LINE
8
Layer 1
10
68.602355
20
94.813186
11
68.843788
21
94.455668
0
LINE
8
Layer 1
10
68.843788
20
94.455668
11
69.201306
21
94.214235
0
LINE
8
Layer 1
10
69.201306
20
94.214235
11
69.638200
21
94.125600
0
LINE
8
Layer 1
10
69.638200
20
94.125600
11
69.638200
21
94.125600
0
LINE
8
Layer 1
10
61.385900
20
116.025000
11
61.385900
21
118.092000
0
LINE
8
Layer 1
10
61.385900
20
118.092000
11
61.179500
21
118.092000
0
LINE
8
Layer 1
10
61.179500
20
118.092000
11
60.605686
21
118.330456
0
LINE
8
Layer 1
10
60.605686
20
118.330456
11
60.367230
21
118.904270
0
LINE
8
Layer 1
10
60.367230
20
118.904270
11
60.367300
21
119.496000
0
LINE
8
Layer 1
10
60.367300
20
119.496000
11
60.256175
21
119.839958
0
LINE
8
Layer 1
10
60.256175
20
119.839958
11
60.367300
21
120.183916
0
LINE
8
Layer 1
10
60.367300
20
120.183916
11
60.367300
21
121.079000
0
LINE
8
Layer 1
10
60.367300
20
121.079000
11
60.186061
21
121.547974
0
LINE
8
Layer 1
10
60.186061
20
121.547974
11
59.734947
21
121.766916
0
LINE
8
Layer 1
10
59.734947
20
121.766916
11
59.621100
21
121.767000
0
LINE
8
Layer 1
10
59.621100
20
121.767000
11
59.311538
21
121.894000
0
LINE
8
Layer 1
10
59.311538
20
121.894000
11
58.806184
21
122.399354
0
LINE
8
Layer 1
10
58.806184
20
122.399354
11
58.679184
21
122.708916
0
LINE
8
Layer 1
10
58.679184
20
122.708916
11
58.679200
21
124.772000
0
LINE
8
Layer 1
10
58.679200
20
124.772000
11
58.806200
21
125.081562
0
LINE
8
Layer 1
10
58.806200
20
125.081562
11
59.311554
21
125.586916
0
LINE
8
Layer 1
10
59.311554
20
125.586916
11
59.621116
21
125.713916
0
LINE
8
Layer 1
10
59.621116
20
125.713916
11
59.764000
21
125.714000
0
LINE
8
Layer 1
10
59.764000
20
125.714000
11
59.764000
21
127.503000
0
LINE
8
Layer 1
10
59.764000
20
127.503000
11
61.581700
21
127.503000
0
LINE
8
Layer 1
10
61.581700
20
127.503000
11
61.581700
21
125.714000
0
LINE
8
Layer 1
10
61.581700
20
125.714000
11
61.684900
21
125.714000
0
LINE
8
Layer 1
10
61.684900
20
125.714000
11
61.994462
21
125.587000
0
LINE
8
Layer 1
10
61.994462
20
125.587000
11
62.499816
21
125.081646
0
LINE
8
Layer 1
10
62.499816
20
125.081646
11
62.626816
21
124.772084
0
LINE
8
Layer 1
10
62.626816
20
124.772084
11
62.626800
21
123.365000
0
LINE
8
Layer 1
10
62.626800
20
123.365000
11
62.937685
21
122.705526
0
LINE
8
Layer 1
10
62.937685
20
122.705526
11
63.566070
21
122.296080
0
LINE
8
Layer 1
10
63.566070
20
122.296080
11
64.052903
21
121.947161
0
LINE
8
Layer 1
10
64.052903
20
121.947161
11
64.238111
21
121.377977
0
LINE
8
Layer 1
10
64.238111
20
121.377977
11
64.238100
21
118.904000
0
LINE
8
Layer 1
10
64.238100
20
118.904000
11
63.999644
21
118.330186
0
LINE
8
Layer 1
10
63.999644
20
118.330186
11
63.425830
21
118.091730
0
LINE
8
Layer 1
10
63.425830
20
118.091730
11
63.230000
21
118.092000
0
LINE
8
Layer 1
10
63.230000
20
118.092000
11
63.230000
21
116.025000
0
LINE
8
Layer 1
10
63.230000
20
116.025000
11
61.383300
21
116.025000
0
LINE
8
Layer 1
10
61.383300
20
116.025000
11
61.385900
21
116.025000
0
LINE
8
Layer 1
10
68.598400
20
105.233000
11
68.598400
21
107.471000
0
LINE
8
Layer 1
10
68.598400
20
107.471000
11
68.574600
21
107.471000
0
LINE
8
Layer 1
10
68.574600
20
107.471000
11
68.209475
21
107.621812
0
LINE
8
Layer 1
10
68.209475
20
107.621812
11
67.704121
21
108.129811
0
LINE
8
Layer 1
10
67.704121
20
108.129811
11
67.553309
21
108.494936
0
LINE
8
Layer 1
10
67.553309
20
108.494936
11
67.553300
21
109.903000
0
LINE
8
Layer 1
10
67.553300
20
109.903000
11
67.261267
21
110.514187
0
LINE
8
Layer 1
10
67.261267
20
110.514187
11
66.669593
21
110.895186
0
LINE
8
Layer 1
10
66.669593
20
110.895186
11
66.142081
21
111.272547
0
LINE
8
Layer 1
10
66.142081
20
111.272547
11
65.941990
21
111.890018
0
LINE
8
Layer 1
10
65.941990
20
111.890018
11
65.942000
21
114.364000
0
LINE
8
Layer 1
10
65.942000
20
114.364000
11
66.203276
21
114.994369
0
LINE
8
Layer 1
10
66.203276
20
114.994369
11
66.833645
21
115.255645
0
LINE
8
Layer 1
10
66.833645
20
115.255645
11
66.950100
21
115.255000
0
LINE
8
Layer 1
10
66.950100
20
115.255000
11
66.950100
21
117.322000
0
LINE
8
Layer 1
10
66.950100
20
117.322000
11
68.955600
21
117.322000
0
LINE
8
Layer 1
10
68.955600
20
117.322000
11
68.955600
21
115.255000
0
LINE
8
Layer 1
10
68.955600
20
115.255000
11
69.082600
21
115.255000
0
LINE
8
Layer 1
10
69.082600
20
115.255000
11
69.712969
21
114.993724
0
LINE
8
Layer 1
10
69.712969
20
114.993724
11
69.974245
21
114.363355
0
LINE
8
Layer 1
10
69.974245
20
114.363355
11
69.974300
21
113.795000
0
LINE
8
Layer 1
10
69.974300
20
113.795000
11
70.083441
21
113.427230
0
LINE
8
Layer 1
10
70.083441
20
113.427230
11
69.974300
21
113.059459
0
LINE
8
Layer 1
10
69.974300
20
113.059459
11
69.974300
21
112.191000
0
LINE
8
Layer 1
10
69.974300
20
112.191000
11
70.136357
21
111.778250
0
LINE
8
Layer 1
10
70.136357
20
111.778250
11
70.532570
21
111.579813
0
LINE
8
Layer 1
10
70.532570
20
111.579813
11
70.638400
21
111.580000
0
LINE
8
Layer 1
10
70.638400
20
111.580000
11
71.003525
21
111.429188
0
LINE
8
Layer 1
10
71.003525
20
111.429188
11
71.508879
21
110.923834
0
LINE
8
Layer 1
10
71.508879
20
110.923834
11
71.659691
21
110.558709
0
LINE
8
Layer 1
10
71.659691
20
110.558709
11
71.659700
21
108.495000
0
LINE
8
Layer 1
10
71.659700
20
108.495000
11
71.508888
21
108.129875
0
LINE
8
Layer 1
10
71.508888
20
108.129875
11
71.003534
21
107.624521
0
LINE
8
Layer 1
10
71.003534
20
107.624521
11
70.638409
21
107.473709
0
LINE
8
Layer 1
10
70.638409
20
107.473709
11
70.574900
21
107.474000
0
LINE
8
Layer 1
10
70.574900
20
107.474000
11
70.574900
21
105.235000
0
LINE
8
Layer 1
10
70.574900
20
105.235000
11
68.598400
21
105.235000
0
LINE
8
Layer 1
10
68.598400
20
105.235000
11
68.598400
21
105.233000
0
LINE
8
Layer 1
10
68.598400
20
91.151700
11
68.598400
21
93.223400
0
LINE
8
Layer 1
10
68.598400
20
93.223400
11
68.574600
21
93.223400
0
LINE
8
Layer 1
10
68.574600
20
93.223400
11
68.209475
21
93.374212
0
LINE
8
Layer 1
10
68.209475
20
93.374212
11
67.704121
21
93.882211
0
LINE
8
Layer 1
10
67.704121
20
93.882211
11
67.553309
21
94.247336
0
LINE
8
Layer 1
10
67.553309
20
94.247336
11
67.553300
21
95.654900
0
LINE
8
Layer 1
10
67.553300
20
95.654900
11
67.261267
21
96.266087
0
LINE
8
Layer 1
10
67.261267
20
96.266087
11
66.669593
21
96.647086
0
LINE
8
Layer 1
10
66.669593
20
96.647086
11
66.142081
21
97.024447
0
LINE
8
Layer 1
10
66.142081
20
97.024447
11
65.941990
21
97.641918
0
LINE
8
Layer 1
10
65.941990
20
97.641918
11
65.942000
21
100.116000
0
LINE
8
Layer 1
10
65.942000
20
100.116000
11
66.203276
21
100.746369
0
LINE
8
Layer 1
10
66.203276
20
100.746369
11
66.833645
21
101.007645
0
LINE
8
Layer 1
10
66.833645
20
101.007645
11
66.950100
21
101.007000
0
LINE
8
Layer 1
10
66.950100
20
101.007000
11
66.950100
21
103.053000
0
LINE
8
Layer 1
10
66.950100
20
103.053000
11
68.955600
21
103.053000
0
LINE
8
Layer 1
10
68.955600
20
103.053000
11
68.955600
21
101.007000
0
LINE
8
Layer 1
10
68.955600
20
101.007000
11
69.082600
21
101.007000
0
LINE
8
Layer 1
10
69.082600
20
101.007000
11
69.712969
21
100.745724
0
LINE
8
Layer 1
10
69.712969
20
100.745724
11
69.974245
21
100.115355
0
LINE
8
Layer 1
10
69.974245
20
100.115355
11
69.974300
21
99.546900
0
LINE
8
Layer 1
10
69.974300
20
99.546900
11
70.083441
21
99.178799
0
LINE
8
Layer 1
10
70.083441
20
99.178799
11
69.974300
21
98.808713
0
LINE
8
Layer 1
10
69.974300
20
98.808713
11
69.974300
21
97.940900
0
LINE
8
Layer 1
10
69.974300
20
97.940900
11
70.134373
21
97.526166
0
LINE
8
Layer 1
10
70.134373
20
97.526166
11
70.532570
21
97.329713
0
LINE
8
Layer 1
10
70.532570
20
97.329713
11
70.638400
21
97.329700
0
LINE
8
Layer 1
10
70.638400
20
97.329700
11
71.003525
21
97.178888
0
LINE
8
Layer 1
10
71.003525
20
97.178888
11
71.508879
21
96.673534
0
LINE
8
Layer 1
10
71.508879
20
96.673534
11
71.659691
21
96.308409
0
LINE
8
Layer 1
10
71.659691
20
96.308409
11
71.659700
21
94.244700
0
LINE
8
Layer 1
10
71.659700
20
94.244700
11
71.508888
21
93.879575
0
LINE
8
Layer 1
10
71.508888
20
93.879575
11
71.003534
21
93.374221
0
LINE
8
Layer 1
10
71.003534
20
93.374221
11
70.638409
21
93.223409
0
LINE
8
Layer 1
10
70.638409
20
93.223409
11
70.574900
21
93.223400
0
LINE
8
Layer 1
10
70.574900
20
93.223400
11
70.574900
21
91.151700
0
LINE
8
Layer 1
10
70.574900
20
91.151700
11
68.598400
21
91.151700
0
LINE
8
Layer 1
10
68.598400
20
91.151700
11
68.598400
21
91.151700
0
LINE
8
Layer 1
10
69.207000
20
73.768600
11
69.207000
21
75.840300
0
LINE
8
Layer 1
10
69.207000
20
75.840300
11
69.103800
21
75.840300
0
LINE
8
Layer 1
10
69.103800
20
75.840300
11
68.794238
21
75.967300
0
LINE
8
Layer 1
10
68.794238
20
75.967300
11
68.288884
21
76.472654
0
LINE
8
Layer 1
10
68.288884
20
76.472654
11
68.161884
21
76.782216
0
LINE
8
Layer 1
10
68.161884
20
76.782216
11
68.161900
21
78.189800
0
LINE
8
Layer 1
10
68.161900
20
78.189800
11
67.851015
21
78.850266
0
LINE
8
Layer 1
10
67.851015
20
78.850266
11
67.222630
21
79.258720
0
LINE
8
Layer 1
10
67.222630
20
79.258720
11
66.735797
21
79.607639
0
LINE
8
Layer 1
10
66.735797
20
79.607639
11
66.550589
21
80.176823
0
LINE
8
Layer 1
10
66.550589
20
80.176823
11
66.550600
21
82.650700
0
LINE
8
Layer 1
10
66.550600
20
82.650700
11
66.789056
21
83.224514
0
LINE
8
Layer 1
10
66.789056
20
83.224514
11
67.362870
21
83.462970
0
LINE
8
Layer 1
10
67.362870
20
83.462970
11
67.558600
21
83.462900
0
LINE
8
Layer 1
10
67.558600
20
83.462900
11
67.558600
21
85.508200
0
LINE
8
Layer 1
10
67.558600
20
85.508200
11
69.405400
21
85.508200
0
LINE
8
Layer 1
10
69.405400
20
85.508200
11
69.405400
21
83.462900
0
LINE
8
Layer 1
10
69.405400
20
83.462900
11
69.611800
21
83.462900
0
LINE
8
Layer 1
10
69.611800
20
83.462900
11
70.185614
21
83.224444
0
LINE
8
Layer 1
10
70.185614
20
83.224444
11
70.424070
21
82.650630
0
LINE
8
Layer 1
10
70.424070
20
82.650630
11
70.424100
21
82.058000
0
LINE
8
Layer 1
10
70.424100
20
82.058000
11
70.535224
21
81.714042
0
LINE
8
Layer 1
10
70.535224
20
81.714042
11
70.424100
21
81.370084
0
LINE
8
Layer 1
10
70.424100
20
81.370084
11
70.424100
21
80.475800
0
LINE
8
Layer 1
10
70.424100
20
80.475800
11
70.605339
21
80.006826
0
LINE
8
Layer 1
10
70.605339
20
80.006826
11
71.056453
21
79.787884
0
LINE
8
Layer 1
10
71.056453
20
79.787884
11
71.170200
21
79.787900
0
LINE
8
Layer 1
10
71.170200
20
79.787900
11
71.479762
21
79.660900
0
LINE
8
Layer 1
10
71.479762
20
79.660900
11
71.985116
21
79.155546
0
LINE
8
Layer 1
10
71.985116
20
79.155546
11
72.112116
21
78.845984
0
LINE
8
Layer 1
10
72.112116
20
78.845984
11
72.112100
21
76.782200
0
LINE
8
Layer 1
10
72.112100
20
76.782200
11
71.985100
21
76.472638
0
LINE
8
Layer 1
10
71.985100
20
76.472638
11
71.479746
21
75.967284
0
LINE
8
Layer 1
10
71.479746
20
75.967284
11
71.170184
21
75.840284
0
LINE
8
Layer 1
10
71.170184
20
75.840284
11
71.027300
21
75.840300
0
LINE
8
Layer 1
10
71.027300
20
75.840300
11
71.027300
21
73.768600
0
LINE
8
Layer 1
10
71.027300
20
73.768600
11
69.209600
21
73.768600
0
LINE
8
Layer 1
10
69.209600
20
73.768600
11
69.207000
21
73.768600
0
LINE
8
Layer 1
10
42.211600
20
91.641200
11
42.125790
21
90.712153
0
LINE
8
Layer 1
10
42.125790
20
90.712153
11
41.790031
21
89.815550
0
LINE
8
Layer 1
10
41.790031
20
89.815550
11
41.237146
21
88.952023
0
LINE
8
Layer 1
10
41.237146
20
88.952023
11
40.499959
21
88.122204
0
LINE
8
Layer 1
10
40.499959
20
88.122204
11
38.603973
21
86.566213
0
LINE
8
Layer 1
10
38.603973
20
86.566213
11
36.364661
21
85.152634
0
LINE
8
Layer 1
10
36.364661
20
85.152634
11
31.906407
21
82.772922
0
LINE
8
Layer 1
10
31.906407
20
82.772922
11
30.212641
21
81.816898
0
LINE
8
Layer 1
10
30.212641
20
81.816898
11
29.225900
21
81.023500
0
LINE
8
Layer 1
10
29.225900
20
81.023500
11
29.186212
21
80.973229
0
LINE
8
Layer 1
10
29.186212
20
80.973229
11
28.794464
21
80.310490
0
LINE
8
Layer 1
10
28.794464
20
80.310490
11
28.592224
21
79.582514
0
LINE
8
Layer 1
10
28.592224
20
79.582514
11
28.586436
21
78.828246
0
LINE
8
Layer 1
10
28.586436
20
78.828246
11
28.784046
21
78.086629
0
LINE
8
Layer 1
10
28.784046
20
78.086629
11
32.837456
21
68.363199
0
LINE
8
Layer 1
10
32.837456
20
68.363199
11
32.960116
21
67.827171
0
LINE
8
Layer 1
10
32.960116
20
67.827171
11
33.229371
21
67.361093
0
LINE
8
Layer 1
10
33.229371
20
67.361093
11
33.622154
21
66.993240
0
LINE
8
Layer 1
10
33.622154
20
66.993240
11
34.115396
21
66.751889
0
LINE
8
Layer 1
10
34.115396
20
66.751889
11
36.703016
21
65.934328
0
LINE
8
Layer 1
10
36.703016
20
65.934328
11
37.965408
21
65.720347
0
LINE
8
Layer 1
10
37.965408
20
65.720347
11
39.237726
21
65.857599
0
LINE
8
Layer 1
10
39.237726
20
65.857599
11
56.086326
21
70.069759
0
LINE
8
Layer 1
10
56.086326
20
70.069759
11
56.863414
21
70.420704
0
LINE
8
Layer 1
10
56.863414
20
70.420704
11
57.453228
21
71.002083
0
LINE
8
Layer 1
10
57.453228
20
71.002083
11
57.809381
21
71.749653
0
LINE
8
Layer 1
10
57.809381
20
71.749653
11
57.885486
21
72.599169
0
LINE
8
Layer 1
10
57.885486
20
72.599169
11
56.480546
21
88.291569
0
LINE
8
Layer 1
10
56.480546
20
88.291569
11
56.462026
21
129.137869
0
LINE
8
Layer 1
10
56.462026
20
129.137869
11
56.182022
21
130.524782
0
LINE
8
Layer 1
10
56.182022
20
130.524782
11
55.418574
21
131.656702
0
LINE
8
Layer 1
10
55.418574
20
131.656702
11
54.286530
21
132.419528
0
LINE
8
Layer 1
10
54.286530
20
132.419528
11
52.900736
21
132.699159
0
LINE
8
Layer 1
10
52.900736
20
132.699159
11
45.775500
21
132.699000
0
LINE
8
Layer 1
10
45.775500
20
132.699000
11
44.388588
21
132.418996
0
LINE
8
Layer 1
10
44.388588
20
132.418996
11
43.256668
21
131.655549
0
LINE
8
Layer 1
10
43.256668
20
131.655549
11
42.493841
21
130.523505
0
LINE
8
Layer 1
10
42.493841
20
130.523505
11
42.214210
21
129.137710
0
LINE
8
Layer 1
10
42.214210
20
129.137710
11
42.214200
21
91.638500
0
LINE
8
Layer 1
10
49.434700
20
121.878000
11
50.164246
21
122.025629
0
LINE
8
Layer 1
10
50.164246
20
122.025629
11
50.760590
21
122.428002
0
LINE
8
Layer 1
10
50.760590
20
122.428002
11
51.162962
21
123.024346
0
LINE
8
Layer 1
10
51.162962
20
123.024346
11
51.310590
21
123.753890
0
LINE
8
Layer 1
10
51.310590
20
123.753890
11
51.162961
21
124.483434
0
LINE
8
Layer 1
10
51.162961
20
124.483434
11
50.760588
21
125.079778
0
LINE
8
Layer 1
10
50.760588
20
125.079778
11
50.164244
21
125.482151
0
LINE
8
Layer 1
10
50.164244
20
125.482151
11
49.434700
21
125.629780
0
LINE
8
Layer 1
10
49.434700
20
125.629780
11
48.705156
21
125.482151
0
LINE
8
Layer 1
10
48.705156
20
125.482151
11
48.108812
21
125.079778
0
LINE
8
Layer 1
10
48.108812
20
125.079778
11
47.706439
21
124.483434
0
LINE
8
Layer 1
10
47.706439
20
124.483434
11
47.558810
21
123.753890
0
LINE
8
Layer 1
10
47.558810
20
123.753890
11
47.706439
21
123.024346
0
LINE
8
Layer 1
10
47.706439
20
123.024346
11
48.108812
21
122.428002
0
LINE
8
Layer 1
10
48.108812
20
122.428002
11
48.705156
21
122.025629
0
LINE
8
Layer 1
10
48.705156
20
122.025629
11
49.434700
21
121.878000
0
LINE
8
Layer 1
10
49.434700
20
121.878000
11
49.434700
21
121.878000
0
LINE
8
Layer 1
10
44.934100
20
122.629000
11
45.372109
21
122.717635
0
LINE
8
Layer 1
10
45.372109
20
122.717635
11
45.729504
21
122.959068
0
LINE
8
Layer 1
10
45.729504
20
122.959068
11
45.970316
21
123.316586
0
LINE
8
Layer 1
10
45.970316
20
123.316586
11
46.058580
21
123.753480
0
LINE
8
Layer 1
10
46.058580
20
123.753480
11
45.969945
21
124.190374
0
LINE
8
Layer 1
10
45.969945
20
124.190374
11
45.728512
21
124.547892
0
LINE
8
Layer 1
10
45.728512
20
124.547892
11
45.370994
21
124.789325
0
LINE
8
Layer 1
10
45.370994
20
124.789325
11
44.934100
21
124.877960
0
LINE
8
Layer 1
10
44.934100
20
124.877960
11
44.497206
21
124.789697
0
LINE
8
Layer 1
10
44.497206
20
124.789697
11
44.139688
21
124.548885
0
LINE
8
Layer 1
10
44.139688
20
124.548885
11
43.898255
21
124.191490
0
LINE
8
Layer 1
10
43.898255
20
124.191490
11
43.809620
21
123.753480
0
LINE
8
Layer 1
10
43.809620
20
123.753480
11
43.898255
21
123.315470
0
LINE
8
Layer 1
10
43.898255
20
123.315470
11
44.139688
21
122.958076
0
LINE
8
Layer 1
10
44.139688
20
122.958076
11
44.497206
21
122.717263
0
LINE
8
Layer 1
10
44.497206
20
122.717263
11
44.934100
21
122.629000
0
LINE
8
Layer 1
10
44.934100
20
122.629000
11
44.934100
21
122.629000
0
LINE
8
Layer 1
10
52.292200
20
112.125000
11
52.730209
21
112.213635
0
LINE
8
Layer 1
10
52.730209
20
112.213635
11
53.087604
21
112.455068
0
LINE
8
Layer 1
10
53.087604
20
112.455068
11
53.328416
21
112.812586
0
LINE
8
Layer 1
10
53.328416
20
112.812586
11
53.416680
21
113.249480
0
LINE
8
Layer 1
10
53.416680
20
113.249480
11
53.328045
21
113.686374
0
LINE
8
Layer 1
10
53.328045
20
113.686374
11
53.086612
21
114.043892
0
LINE
8
Layer 1
10
53.086612
20
114.043892
11
52.729094
21
114.285325
0
LINE
8
Layer 1
10
52.729094
20
114.285325
11
52.292200
21
114.373960
0
LINE
8
Layer 1
10
52.292200
20
114.373960
11
51.855306
21
114.285697
0
LINE
8
Layer 1
10
51.855306
20
114.285697
11
51.497788
21
114.044885
0
LINE
8
Layer 1
10
51.497788
20
114.044885
11
51.256355
21
113.687490
0
LINE
8
Layer 1
10
51.256355
20
113.687490
11
51.167720
21
113.249480
0
LINE
8
Layer 1
10
51.167720
20
113.249480
11
51.256355
21
112.811470
0
LINE
8
Layer 1
10
51.256355
20
112.811470
11
51.497788
21
112.454075
0
LINE
8
Layer 1
10
51.497788
20
112.454075
11
51.855306
21
112.213263
0
LINE
8
Layer 1
10
51.855306
20
112.213263
11
52.292200
21
112.125000
0
LINE
8
Layer 1
10
52.292200
20
112.125000
11
52.292200
21
112.125000
0
LINE
8
Layer 1
10
53.943200
20
108.376000
11
54.381209
21
108.464635
0
LINE
8
Layer 1
10
54.381209
20
108.464635
11
54.738604
21
108.706068
0
LINE
8
Layer 1
10
54.738604
20
108.706068
11
54.979416
21
109.063586
0
LINE
8
Layer 1
10
54.979416
20
109.063586
11
55.067680
21
109.500480
0
LINE
8
Layer 1
10
55.067680
20
109.500480
11
54.979045
21
109.937374
0
LINE
8
Layer 1
10
54.979045
20
109.937374
11
54.737612
21
110.294892
0
LINE
8
Layer 1
10
54.737612
20
110.294892
11
54.380094
21
110.536325
0
LINE
8
Layer 1
10
54.380094
20
110.536325
11
53.943200
21
110.624960
0
LINE
8
Layer 1
10
53.943200
20
110.624960
11
53.506306
21
110.536325
0
LINE
8
Layer 1
10
53.506306
20
110.536325
11
53.148788
21
110.294892
0
LINE
8
Layer 1
10
53.148788
20
110.294892
11
52.907355
21
109.937374
0
LINE
8
Layer 1
10
52.907355
20
109.937374
11
52.818720
21
109.500480
0
LINE
8
Layer 1
10
52.818720
20
109.500480
11
52.907355
21
109.063586
0
LINE
8
Layer 1
10
52.907355
20
109.063586
11
53.148788
21
108.706068
0
LINE
8
Layer 1
10
53.148788
20
108.706068
11
53.506306
21
108.464635
0
LINE
8
Layer 1
10
53.506306
20
108.464635
11
53.943200
21
108.376000
0
LINE
8
Layer 1
10
53.943200
20
108.376000
11
53.943200
21
108.376000
0
LINE
8
Layer 1
10
52.292200
20
97.874800
11
52.730209
21
97.963435
0
LINE
8
Layer 1
10
52.730209
20
97.963435
11
53.087604
21
98.204868
0
LINE
8
Layer 1
10
53.087604
20
98.204868
11
53.328416
21
98.562386
0
LINE
8
Layer 1
10
53.328416
20
98.562386
11
53.416680
21
98.999280
0
LINE
8
Layer 1
10
53.416680
20
98.999280
11
53.328045
21
99.436174
0
LINE
8
Layer 1
10
53.328045
20
99.436174
11
53.086612
21
99.793692
0
LINE
8
Layer 1
10
53.086612
20
99.793692
11
52.729094
21
100.035125
0
LINE
8
Layer 1
10
52.729094
20
100.035125
11
52.292200
21
100.123760
0
LINE
8
Layer 1
10
52.292200
20
100.123760
11
51.855306
21
100.035125
0
LINE
8
Layer 1
10
51.855306
20
100.035125
11
51.497788
21
99.793692
0
LINE
8
Layer 1
10
51.497788
20
99.793692
11
51.256355
21
99.436174
0
LINE
8
Layer 1
10
51.256355
20
99.436174
11
51.167720
21
98.999280
0
LINE
8
Layer 1
10
51.167720
20
98.999280
11
51.256355
21
98.562386
0
LINE
8
Layer 1
10
51.256355
20
98.562386
11
51.497788
21
98.204868
0
LINE
8
Layer 1
10
51.497788
20
98.204868
11
51.855306
21
97.963435
0
LINE
8
Layer 1
10
51.855306
20
97.963435
11
52.292200
21
97.874800
0
LINE
8
Layer 1
10
52.292200
20
97.874800
11
52.292200
21
97.874800
0
LINE
8
Layer 1
10
53.943200
20
94.125600
11
54.381209
21
94.214235
0
LINE
8
Layer 1
10
54.381209
20
94.214235
11
54.738604
21
94.455668
0
LINE
8
Layer 1
10
54.738604
20
94.455668
11
54.979416
21
94.813186
0
LINE
8
Layer 1
10
54.979416
20
94.813186
11
55.067680
21
95.250080
0
LINE
8
Layer 1
10
55.067680
20
95.250080
11
54.979045
21
95.686974
0
LINE
8
Layer 1
10
54.979045
20
95.686974
11
54.737612
21
96.044492
0
LINE
8
Layer 1
10
54.737612
20
96.044492
11
54.380094
21
96.285925
0
LINE
8
Layer 1
10
54.380094
20
96.285925
11
53.943200
21
96.374560
0
LINE
8
Layer 1
10
53.943200
20
96.374560
11
53.506306
21
96.285925
0
LINE
8
Layer 1
10
53.506306
20
96.285925
11
53.148788
21
96.044492
0
LINE
8
Layer 1
10
53.148788
20
96.044492
11
52.907355
21
95.686974
0
LINE
8
Layer 1
10
52.907355
20
95.686974
11
52.818720
21
95.250080
0
LINE
8
Layer 1
10
52.818720
20
95.250080
11
52.907355
21
94.813186
0
LINE
8
Layer 1
10
52.907355
20
94.813186
11
53.148788
21
94.455668
0
LINE
8
Layer 1
10
53.148788
20
94.455668
11
53.506306
21
94.214235
0
LINE
8
Layer 1
10
53.506306
20
94.214235
11
53.943200
21
94.125600
0
LINE
8
Layer 1
10
53.943200
20
94.125600
11
53.943200
21
94.125600
0
LINE
8
Layer 1
10
52.294800
20
82.166500
11
52.686218
21
82.381639
0
LINE
8
Layer 1
10
52.686218
20
82.381639
11
52.955596
21
82.718817
0
LINE
8
Layer 1
10
52.955596
20
82.718817
11
53.079124
21
83.132394
0
LINE
8
Layer 1
10
53.079124
20
83.132394
11
53.032987
21
83.576730
0
LINE
8
Layer 1
10
53.032987
20
83.576730
11
52.817848
21
83.968149
0
LINE
8
Layer 1
10
52.817848
20
83.968149
11
52.480670
21
84.237527
0
LINE
8
Layer 1
10
52.480670
20
84.237527
11
52.067093
21
84.361054
0
LINE
8
Layer 1
10
52.067093
20
84.361054
11
51.622757
21
84.314917
0
LINE
8
Layer 1
10
51.622757
20
84.314917
11
51.231338
21
84.099778
0
LINE
8
Layer 1
10
51.231338
20
84.099778
11
50.961960
21
83.762600
0
LINE
8
Layer 1
10
50.961960
20
83.762600
11
50.838433
21
83.349023
0
LINE
8
Layer 1
10
50.838433
20
83.349023
11
50.884570
21
82.904687
0
LINE
8
Layer 1
10
50.884570
20
82.904687
11
51.099709
21
82.513268
0
LINE
8
Layer 1
10
51.099709
20
82.513268
11
51.436887
21
82.243890
0
LINE
8
Layer 1
10
51.436887
20
82.243890
11
51.850464
21
82.120363
0
LINE
8
Layer 1
10
51.850464
20
82.120363
11
52.294800
21
82.166500
0
LINE
8
Layer 1
10
52.294800
20
82.166500
11
52.294800
21
82.166500
0
LINE
8
Layer 1
10
54.990900
20
79.081400
11
55.382318
21
79.296539
0
LINE
8
Layer 1
10
55.382318
20
79.296539
11
55.651696
21
79.633717
0
LINE
8
Layer 1
10
55.651696
20
79.633717
11
55.775224
21
80.047294
0
LINE
8
Layer 1
10
55.775224
20
80.047294
11
55.729087
21
80.491630
0
LINE
8
Layer 1
10
55.729087
20
80.491630
11
55.513948
21
80.883049
0
LINE
8
Layer 1
10
55.513948
20
80.883049
11
55.176770
21
81.152427
0
LINE
8
Layer 1
10
55.176770
20
81.152427
11
54.763193
21
81.275954
0
LINE
8
Layer 1
10
54.763193
20
81.275954
11
54.318857
21
81.229817
0
LINE
8
Layer 1
10
54.318857
20
81.229817
11
53.927438
21
81.014678
0
LINE
8
Layer 1
10
53.927438
20
81.014678
11
53.658060
21
80.677500
0
LINE
8
Layer 1
10
53.658060
20
80.677500
11
53.534533
21
80.263923
0
LINE
8
Layer 1
10
53.534533
20
80.263923
11
53.580670
21
79.819587
0
LINE
8
Layer 1
10
53.580670
20
79.819587
11
53.795809
21
79.428168
0
LINE
8
Layer 1
10
53.795809
20
79.428168
11
54.132987
21
79.158790
0
LINE
8
Layer 1
10
54.132987
20
79.158790
11
54.546564
21
79.035263
0
LINE
8
Layer 1
10
54.546564
20
79.035263
11
54.990900
21
79.081400
0
LINE
8
Layer 1
10
54.990900
20
79.081400
11
54.990900
21
79.081400
0
LINE
8
Layer 1
10
38.766700
20
78.763900
11
39.128890
21
79.025300
0
LINE
8
Layer 1
10
39.128890
20
79.025300
11
39.354405
21
79.392615
0
LINE
8
Layer 1
10
39.354405
20
79.392615
11
39.425636
21
79.817973
0
LINE
8
Layer 1
10
39.425636
20
79.817973
11
39.324970
21
80.253500
0
LINE
8
Layer 1
10
39.324970
20
80.253500
11
39.063570
21
80.615688
0
LINE
8
Layer 1
10
39.063570
20
80.615688
11
38.696255
21
80.841204
0
LINE
8
Layer 1
10
38.696255
20
80.841204
11
38.270897
21
80.912435
0
LINE
8
Layer 1
10
38.270897
20
80.912435
11
37.835370
21
80.811770
0
LINE
8
Layer 1
10
37.835370
20
80.811770
11
37.473182
21
80.550370
0
LINE
8
Layer 1
10
37.473182
20
80.550370
11
37.247666
21
80.183055
0
LINE
8
Layer 1
10
37.247666
20
80.183055
11
37.176435
21
79.757697
0
LINE
8
Layer 1
10
37.176435
20
79.757697
11
37.277100
21
79.322170
0
LINE
8
Layer 1
10
37.277100
20
79.322170
11
37.538500
21
78.959982
0
LINE
8
Layer 1
10
37.538500
20
78.959982
11
37.905815
21
78.734466
0
LINE
8
Layer 1
10
37.905815
20
78.734466
11
38.331173
21
78.663235
0
LINE
8
Layer 1
10
38.331173
20
78.663235
11
38.766700
21
78.763900
0
LINE
8
Layer 1
10
38.766700
20
78.763900
11
38.766700
21
78.763900
0
LINE
8
Layer 1
10
41.817300
20
76.030800
11
42.179490
21
76.292200
0
LINE
8
Layer 1
10
42.179490
20
76.292200
11
42.405005
21
76.659515
0
LINE
8
Layer 1
10
42.405005
20
76.659515
11
42.476236
21
77.084873
0
LINE
8
Layer 1
10
42.476236
20
77.084873
11
42.375570
21
77.520400
0
LINE
8
Layer 1
10
42.375570
20
77.520400
11
42.114170
21
77.882588
0
LINE
8
Layer 1
10
42.114170
20
77.882588
11
41.746855
21
78.108104
0
LINE
8
Layer 1
10
41.746855
20
78.108104
11
41.321497
21
78.179335
0
LINE
8
Layer 1
10
41.321497
20
78.179335
11
40.885970
21
78.078670
0
LINE
8
Layer 1
10
40.885970
20
78.078670
11
40.523782
21
77.817270
0
LINE
8
Layer 1
10
40.523782
20
77.817270
11
40.298266
21
77.449955
0
LINE
8
Layer 1
10
40.298266
20
77.449955
11
40.227035
21
77.024597
0
LINE
8
Layer 1
10
40.227035
20
77.024597
11
40.327700
21
76.589070
0
LINE
8
Layer 1
10
40.327700
20
76.589070
11
40.589100
21
76.226882
0
LINE
8
Layer 1
10
40.589100
20
76.226882
11
40.956415
21
76.001366
0
LINE
8
Layer 1
10
40.956415
20
76.001366
11
41.381773
21
75.930135
0
LINE
8
Layer 1
10
41.381773
20
75.930135
11
41.817300
21
76.030800
0
LINE
8
Layer 1
10
41.817300
20
76.030800
11
41.817300
21
76.030800
0
LINE
8
Layer 1
10
46.585100
20
118.877000
11
47.023109
21
118.965263
0
LINE
8
Layer 1
10
47.023109
20
118.965263
11
47.380504
21
119.206075
0
LINE
8
Layer 1
10
47.380504
20
119.206075
11
47.621316
21
119.563470
0
LINE
8
Layer 1
10
47.621316
20
119.563470
11
47.709580
21
120.001480
0
LINE
8
Layer 1
10
47.709580
20
120.001480
11
47.620945
21
120.439490
0
LINE
8
Layer 1
10
47.620945
20
120.439490
11
47.379512
21
120.796885
0
LINE
8
Layer 1
10
47.379512
20
120.796885
11
47.021994
21
121.037697
0
LINE
8
Layer 1
10
47.021994
20
121.037697
11
46.585100
21
121.125960
0
LINE
8
Layer 1
10
46.585100
20
121.125960
11
46.148206
21
121.037697
0
LINE
8
Layer 1
10
46.148206
20
121.037697
11
45.790688
21
120.796885
0
LINE
8
Layer 1
10
45.790688
20
120.796885
11
45.549255
21
120.439490
0
LINE
8
Layer 1
10
45.549255
20
120.439490
11
45.460620
21
120.001480
0
LINE
8
Layer 1
10
45.460620
20
120.001480
11
45.549255
21
119.563470
0
LINE
8
Layer 1
10
45.549255
20
119.563470
11
45.790688
21
119.206075
0
LINE
8
Layer 1
10
45.790688
20
119.206075
11
46.148206
21
118.965263
0
LINE
8
Layer 1
10
46.148206
20
118.965263
11
46.585100
21
118.877000
0
LINE
8
Layer 1
10
46.585100
20
118.877000
11
46.585100
21
118.877000
0
LINE
8
Layer 1
10
45.690800
20
116.025000
11
45.690800
21
118.092000
0
LINE
8
Layer 1
10
45.690800
20
118.092000
11
45.484500
21
118.092000
0
LINE
8
Layer 1
10
45.484500
20
118.092000
11
44.910686
21
118.330456
0
LINE
8
Layer 1
10
44.910686
20
118.330456
11
44.672230
21
118.904270
0
LINE
8
Layer 1
10
44.672230
20
118.904270
11
44.672200
21
119.496000
0
LINE
8
Layer 1
10
44.672200
20
119.496000
11
44.561075
21
119.839958
0
LINE
8
Layer 1
10
44.561075
20
119.839958
11
44.672200
21
120.183916
0
LINE
8
Layer 1
10
44.672200
20
120.183916
11
44.672200
21
121.079000
0
LINE
8
Layer 1
10
44.672200
20
121.079000
11
44.490961
21
121.547974
0
LINE
8
Layer 1
10
44.490961
20
121.547974
11
44.039847
21
121.766916
0
LINE
8
Layer 1
10
44.039847
20
121.766916
11
43.926100
21
121.767000
0
LINE
8
Layer 1
10
43.926100
20
121.767000
11
43.616538
21
121.894000
0
LINE
8
Layer 1
10
43.616538
20
121.894000
11
43.111184
21
122.399354
0
LINE
8
Layer 1
10
43.111184
20
122.399354
11
42.984184
21
122.708916
0
LINE
8
Layer 1
10
42.984184
20
122.708916
11
42.984200
21
124.772000
0
LINE
8
Layer 1
10
42.984200
20
124.772000
11
43.111200
21
125.081562
0
LINE
8
Layer 1
10
43.111200
20
125.081562
11
43.616554
21
125.586916
0
LINE
8
Layer 1
10
43.616554
20
125.586916
11
43.926116
21
125.713916
0
LINE
8
Layer 1
10
43.926116
20
125.713916
11
44.068900
21
125.714000
0
LINE
8
Layer 1
10
44.068900
20
125.714000
11
44.068900
21
127.503000
0
LINE
8
Layer 1
10
44.068900
20
127.503000
11
45.886600
21
127.503000
0
LINE
8
Layer 1
10
45.886600
20
127.503000
11
45.886600
21
125.714000
0
LINE
8
Layer 1
10
45.886600
20
125.714000
11
45.989800
21
125.714000
0
LINE
8
Layer 1
10
45.989800
20
125.714000
11
46.299362
21
125.587000
0
LINE
8
Layer 1
10
46.299362
20
125.587000
11
46.804716
21
125.081646
0
LINE
8
Layer 1
10
46.804716
20
125.081646
11
46.931716
21
124.772084
0
LINE
8
Layer 1
10
46.931716
20
124.772084
11
46.931700
21
123.365000
0
LINE
8
Layer 1
10
46.931700
20
123.365000
11
47.242585
21
122.705526
0
LINE
8
Layer 1
10
47.242585
20
122.705526
11
47.870970
21
122.296080
0
LINE
8
Layer 1
10
47.870970
20
122.296080
11
48.357803
21
121.947161
0
LINE
8
Layer 1
10
48.357803
20
121.947161
11
48.543011
21
121.377977
0
LINE
8
Layer 1
10
48.543011
20
121.377977
11
48.543000
21
118.904000
0
LINE
8
Layer 1
10
48.543000
20
118.904000
11
48.304544
21
118.330186
0
LINE
8
Layer 1
10
48.304544
20
118.330186
11
47.730730
21
118.091730
0
LINE
8
Layer 1
10
47.730730
20
118.091730
11
47.535000
21
118.092000
0
LINE
8
Layer 1
10
47.535000
20
118.092000
11
47.535000
21
116.025000
0
LINE
8
Layer 1
10
47.535000
20
116.025000
11
45.688200
21
116.025000
0
LINE
8
Layer 1
10
45.688200
20
116.025000
11
45.690800
21
116.025000
0
LINE
8
Layer 1
10
52.903400
20
105.233000
11
52.903400
21
107.471000
0
LINE
8
Layer 1
10
52.903400
20
107.471000
11
52.879600
21
107.471000
0
LINE
8
Layer 1
10
52.879600
20
107.471000
11
52.514475
21
107.621812
0
LINE
8
Layer 1
10
52.514475
20
107.621812
11
52.009121
21
108.129811
0
LINE
8
Layer 1
10
52.009121
20
108.129811
11
51.858309
21
108.494936
0
LINE
8
Layer 1
10
51.858309
20
108.494936
11
51.858300
21
109.903000
0
LINE
8
Layer 1
10
51.858300
20
109.903000
11
51.566267
21
110.514187
0
LINE
8
Layer 1
10
51.566267
20
110.514187
11
50.974593
21
110.895186
0
LINE
8
Layer 1
10
50.974593
20
110.895186
11
50.447081
21
111.272547
0
LINE
8
Layer 1
10
50.447081
20
111.272547
11
50.246990
21
111.890018
0
LINE
8
Layer 1
10
50.246990
20
111.890018
11
50.247000
21
114.364000
0
LINE
8
Layer 1
10
50.247000
20
114.364000
11
50.508276
21
114.994369
0
LINE
8
Layer 1
10
50.508276
20
114.994369
11
51.138645
21
115.255645
0
LINE
8
Layer 1
10
51.138645
20
115.255645
11
51.255000
21
115.255000
0
LINE
8
Layer 1
10
51.255000
20
115.255000
11
51.255000
21
117.322000
0
LINE
8
Layer 1
10
51.255000
20
117.322000
11
53.260600
21
117.322000
0
LINE
8
Layer 1
10
53.260600
20
117.322000
11
53.260600
21
115.255000
0
LINE
8
Layer 1
10
53.260600
20
115.255000
11
53.387600
21
115.255000
0
LINE
8
Layer 1
10
53.387600
20
115.255000
11
54.017969
21
114.993724
0
LINE
8
Layer 1
10
54.017969
20
114.993724
11
54.279245
21
114.363355
0
LINE
8
Layer 1
10
54.279245
20
114.363355
11
54.279200
21
113.795000
0
LINE
8
Layer 1
10
54.279200
20
113.795000
11
54.388341
21
113.426899
0
LINE
8
Layer 1
10
54.388341
20
113.426899
11
54.279200
21
113.056813
0
LINE
8
Layer 1
10
54.279200
20
113.056813
11
54.279200
21
112.189000
0
LINE
8
Layer 1
10
54.279200
20
112.189000
11
54.441257
21
111.776250
0
LINE
8
Layer 1
10
54.441257
20
111.776250
11
54.837470
21
111.577813
0
LINE
8
Layer 1
10
54.837470
20
111.577813
11
54.943300
21
111.578000
0
LINE
8
Layer 1
10
54.943300
20
111.578000
11
55.308425
21
111.427188
0
LINE
8
Layer 1
10
55.308425
20
111.427188
11
55.813779
21
110.921834
0
LINE
8
Layer 1
10
55.813779
20
110.921834
11
55.964591
21
110.556709
0
LINE
8
Layer 1
10
55.964591
20
110.556709
11
55.964600
21
108.492000
0
LINE
8
Layer 1
10
55.964600
20
108.492000
11
55.813788
21
108.126875
0
LINE
8
Layer 1
10
55.813788
20
108.126875
11
55.308434
21
107.621521
0
LINE
8
Layer 1
10
55.308434
20
107.621521
11
54.943309
21
107.470709
0
LINE
8
Layer 1
10
54.943309
20
107.470709
11
54.879800
21
107.471000
0
LINE
8
Layer 1
10
54.879800
20
107.471000
11
54.879800
21
105.233000
0
LINE
8
Layer 1
10
54.879800
20
105.233000
11
52.903400
21
105.233000
0
LINE
8
Layer 1
10
52.903400
20
105.233000
11
52.903400
21
105.233000
0
LINE
8
Layer 1
10
52.982700
20
91.231100
11
52.982700
21
93.302800
0
LINE
8
Layer 1
10
52.982700
20
93.302800
11
52.879600
21
93.302800
0
LINE
8
Layer 1
10
52.879600
20
93.302800
11
52.570038
21
93.429800
0
LINE
8
Layer 1
10
52.570038
20
93.429800
11
52.064684
21
93.935154
0
LINE
8
Layer 1
10
52.064684
20
93.935154
11
51.937684
21
94.244716
0
LINE
8
Layer 1
10
51.937684
20
94.244716
11
51.937600
21
95.652300
0
LINE
8
Layer 1
10
51.937600
20
95.652300
11
51.626715
21
96.312766
0
LINE
8
Layer 1
10
51.626715
20
96.312766
11
50.998330
21
96.721220
0
LINE
8
Layer 1
10
50.998330
20
96.721220
11
50.511497
21
97.070139
0
LINE
8
Layer 1
10
50.511497
20
97.070139
11
50.326289
21
97.639323
0
LINE
8
Layer 1
10
50.326289
20
97.639323
11
50.326300
21
100.113000
0
LINE
8
Layer 1
10
50.326300
20
100.113000
11
50.564756
21
100.686814
0
LINE
8
Layer 1
10
50.564756
20
100.686814
11
51.138570
21
100.925270
0
LINE
8
Layer 1
10
51.138570
20
100.925270
11
51.334400
21
100.925000
0
LINE
8
Layer 1
10
51.334400
20
100.925000
11
51.334400
21
102.971000
0
LINE
8
Layer 1
10
51.334400
20
102.971000
11
53.181200
21
102.971000
0
LINE
8
Layer 1
10
53.181200
20
102.971000
11
53.181200
21
100.925000
0
LINE
8
Layer 1
10
53.181200
20
100.925000
11
53.387600
21
100.925000
0
LINE
8
Layer 1
10
53.387600
20
100.925000
11
53.961414
21
100.686544
0
LINE
8
Layer 1
10
53.961414
20
100.686544
11
54.199870
21
100.112730
0
LINE
8
Layer 1
10
54.199870
20
100.112730
11
54.199800
21
99.520500
0
LINE
8
Layer 1
10
54.199800
20
99.520500
11
54.310925
21
99.176542
0
LINE
8
Layer 1
10
54.310925
20
99.176542
11
54.199800
21
98.832584
0
LINE
8
Layer 1
10
54.199800
20
98.832584
11
54.199800
21
97.938300
0
LINE
8
Layer 1
10
54.199800
20
97.938300
11
54.381039
21
97.469326
0
LINE
8
Layer 1
10
54.381039
20
97.469326
11
54.832153
21
97.250384
0
LINE
8
Layer 1
10
54.832153
20
97.250384
11
54.946000
21
97.250300
0
LINE
8
Layer 1
10
54.946000
20
97.250300
11
55.255562
21
97.123300
0
LINE
8
Layer 1
10
55.255562
20
97.123300
11
55.760916
21
96.617946
0
LINE
8
Layer 1
10
55.760916
20
96.617946
11
55.887916
21
96.308384
0
LINE
8
Layer 1
10
55.887916
20
96.308384
11
55.887900
21
94.244700
0
LINE
8
Layer 1
10
55.887900
20
94.244700
11
55.760900
21
93.935138
0
LINE
8
Layer 1
10
55.760900
20
93.935138
11
55.255546
21
93.429784
0
LINE
8
Layer 1
10
55.255546
20
93.429784
11
54.945984
21
93.302784
0
LINE
8
Layer 1
10
54.945984
20
93.302784
11
54.803100
21
93.302800
0
LINE
8
Layer 1
10
54.803100
20
93.302800
11
54.803100
21
91.231100
0
LINE
8
Layer 1
10
54.803100
20
91.231100
11
52.985400
21
91.231100
0
LINE
8
Layer 1
10
52.985400
20
91.231100
11
52.982700
21
91.231100
0
LINE
8
Layer 1
10
54.318900
20
78.007200
11
54.221004
21
77.975450
0
LINE
8
Layer 1
10
54.221004
20
77.975450
11
54.091358
21
77.954283
0
LINE
8
Layer 1
10
54.091358
20
77.954283
11
53.887629
21
78.004554
0
LINE
8
Layer 1
10
53.887629
20
78.004554
11
53.252630
21
78.335283
0
LINE
8
Layer 1
10
53.252630
20
78.335283
11
53.038318
21
78.591929
0
LINE
8
Layer 1
10
53.038318
20
78.591929
11
52.617631
21
79.933369
0
LINE
8
Layer 1
10
52.617631
20
79.933369
11
52.123192
21
80.470142
0
LINE
8
Layer 1
10
52.123192
20
80.470142
11
51.400551
21
80.671556
0
LINE
8
Layer 1
10
51.400551
20
80.671556
11
50.830706
21
80.858087
0
LINE
8
Layer 1
10
50.830706
20
80.858087
11
50.485094
21
81.346243
0
LINE
8
Layer 1
10
50.485094
20
81.346243
11
49.746907
21
83.708973
0
LINE
8
Layer 1
10
49.746907
20
83.708973
11
49.802470
21
84.327105
0
LINE
8
Layer 1
10
49.802470
20
84.327105
11
50.278719
21
84.724973
0
LINE
8
Layer 1
10
50.278719
20
84.724973
11
50.466573
21
84.783182
0
LINE
8
Layer 1
10
50.466573
20
84.783182
11
49.855386
21
86.735802
0
LINE
8
Layer 1
10
49.855386
20
86.735802
11
51.620156
21
87.288780
0
LINE
8
Layer 1
10
51.620156
20
87.288780
11
52.231343
21
85.336160
0
LINE
8
Layer 1
10
52.231343
20
85.336160
11
52.427134
21
85.397014
0
LINE
8
Layer 1
10
52.427134
20
85.397014
11
52.670550
21
85.434055
0
LINE
8
Layer 1
10
52.670550
20
85.434055
11
53.151430
21
85.276628
0
LINE
8
Layer 1
10
53.151430
20
85.276628
11
53.445778
21
84.865202
0
LINE
8
Layer 1
10
53.445778
20
84.865202
11
53.623049
21
84.298994
0
LINE
8
Layer 1
10
53.623049
20
84.298994
11
53.830416
21
84.003654
0
LINE
8
Layer 1
10
53.830416
20
84.003654
11
53.829424
21
83.642828
0
LINE
8
Layer 1
10
53.829424
20
83.642828
11
54.096653
21
82.790871
0
LINE
8
Layer 1
10
54.096653
20
82.790871
11
54.346684
21
82.439637
0
LINE
8
Layer 1
10
54.346684
20
82.439637
11
54.755465
21
82.306684
0
LINE
8
Layer 1
10
54.755465
20
82.306684
11
54.903631
21
82.322559
0
LINE
8
Layer 1
10
54.903631
20
82.322559
11
55.012110
21
82.356955
0
LINE
8
Layer 1
10
55.012110
20
82.356955
11
55.141756
21
82.378122
0
LINE
8
Layer 1
10
55.141756
20
82.378122
11
55.345485
21
82.327851
0
LINE
8
Layer 1
10
55.345485
20
82.327851
11
55.977838
21
81.997122
0
LINE
8
Layer 1
10
55.977838
20
81.997122
11
56.192150
21
81.740476
0
LINE
8
Layer 1
10
56.192150
20
81.740476
11
56.808628
21
79.771976
0
LINE
8
Layer 1
10
56.808628
20
79.771976
11
56.779524
21
79.438601
0
LINE
8
Layer 1
10
56.779524
20
79.438601
11
56.448795
21
78.803602
0
LINE
8
Layer 1
10
56.448795
20
78.803602
11
56.192149
21
78.589290
0
LINE
8
Layer 1
10
56.192149
20
78.589290
11
56.054566
21
78.546956
0
LINE
8
Layer 1
10
56.054566
20
78.546956
11
56.673690
21
76.570516
0
LINE
8
Layer 1
10
56.673690
20
76.570516
11
54.940670
21
76.028121
0
LINE
8
Layer 1
10
54.940670
20
76.028121
11
54.321546
21
78.004561
0
LINE
8
Layer 1
10
54.321546
20
78.004561
11
54.318900
21
78.007200
0
LINE
8
Layer 1
10
41.285500
20
74.885100
11
41.192896
21
74.842767
0
LINE
8
Layer 1
10
41.192896
20
74.842767
11
41.012980
21
74.803079
0
LINE
8
Layer 1
10
41.012980
20
74.803079
11
40.859522
21
74.829538
0
LINE
8
Layer 1
10
40.859522
20
74.829538
11
40.190127
21
75.080892
0
LINE
8
Layer 1
10
40.190127
20
75.080892
11
39.946711
21
75.308433
0
LINE
8
Layer 1
10
39.946711
20
75.308433
11
39.364628
21
76.589013
0
LINE
8
Layer 1
10
39.364628
20
76.589013
11
38.881763
21
77.023590
0
LINE
8
Layer 1
10
38.881763
20
77.023590
11
38.232208
21
77.184325
0
LINE
8
Layer 1
10
38.232208
20
77.184325
11
38.068167
21
77.173741
0
LINE
8
Layer 1
10
38.068167
20
77.173741
11
37.951750
21
77.165804
0
LINE
8
Layer 1
10
37.951750
20
77.165804
11
37.431513
21
77.319923
0
LINE
8
Layer 1
10
37.431513
20
77.319923
11
37.075980
21
77.732012
0
LINE
8
Layer 1
10
37.075980
20
77.732012
11
36.052040
21
79.986262
0
LINE
8
Layer 1
10
36.052040
20
79.986262
11
36.030873
21
80.608032
0
LINE
8
Layer 1
10
36.030873
20
80.608032
11
36.454206
21
81.063115
0
LINE
8
Layer 1
10
36.454206
20
81.063115
11
36.634122
21
81.145135
0
LINE
8
Layer 1
10
36.634122
20
81.145135
11
35.787456
21
83.007795
0
LINE
8
Layer 1
10
35.787456
20
83.007795
11
37.470206
21
83.772440
0
LINE
8
Layer 1
10
37.470206
20
83.772440
11
38.316872
21
81.909780
0
LINE
8
Layer 1
10
38.316872
20
81.909780
11
38.504726
21
81.994447
0
LINE
8
Layer 1
10
38.504726
20
81.994447
11
38.840746
21
82.065884
0
LINE
8
Layer 1
10
38.840746
20
82.065884
11
39.280616
21
81.935908
0
LINE
8
Layer 1
10
39.280616
20
81.935908
11
39.581578
21
81.589635
0
LINE
8
Layer 1
10
39.581578
20
81.589635
11
39.827640
21
81.049886
0
LINE
8
Layer 1
10
39.827640
20
81.049886
11
40.070726
21
80.781996
0
LINE
8
Layer 1
10
40.070726
20
80.781996
11
40.113390
21
80.422824
0
LINE
8
Layer 1
10
40.113390
20
80.422824
11
40.483806
21
79.607908
0
LINE
8
Layer 1
10
40.483806
20
79.607908
11
40.739129
21
79.313229
0
LINE
8
Layer 1
10
40.739129
20
79.313229
11
41.113514
21
79.203096
0
LINE
8
Layer 1
10
41.113514
20
79.203096
11
41.343701
21
79.242784
0
LINE
8
Layer 1
10
41.343701
20
79.242784
11
41.446888
21
79.290409
0
LINE
8
Layer 1
10
41.446888
20
79.290409
11
41.626804
21
79.330096
0
LINE
8
Layer 1
10
41.626804
20
79.330096
11
41.780262
21
79.303638
0
LINE
8
Layer 1
10
41.780262
20
79.303638
11
42.449657
21
79.052284
0
LINE
8
Layer 1
10
42.449657
20
79.052284
11
42.693073
21
78.824743
0
LINE
8
Layer 1
10
42.693073
20
78.824743
11
43.547676
21
76.946203
0
LINE
8
Layer 1
10
43.547676
20
76.946203
11
43.558260
21
76.612828
0
LINE
8
Layer 1
10
43.558260
20
76.612828
11
43.306906
21
75.943433
0
LINE
8
Layer 1
10
43.306906
20
75.943433
11
43.079365
21
75.700017
0
LINE
8
Layer 1
10
43.079365
20
75.700017
11
42.947073
21
75.641809
0
LINE
8
Layer 1
10
42.947073
20
75.641809
11
43.804322
21
73.755329
0
LINE
8
Layer 1
10
43.804322
20
73.755329
11
42.150682
21
73.003913
0
LINE
8
Layer 1
10
42.150682
20
73.003913
11
41.293433
21
74.890393
0
LINE
8
Layer 1
10
41.293433
20
74.890393
11
41.285500
21
74.885100
 0 
ENDSEC
 0 
EOF