0
SECTION
2
HEADER
9
$INSUNITS
70
4
9
$ACADVER
1
AC1014
9
$HANDSEED
5
FFFF
0
ENDSEC
0
SECTION
2
TABLES
0
TABLE
2
VPORT
5
8
100
AcDbSymbolTable
0
ENDTAB
0
TABLE
2
LTYPE
5
5
100
AcDbSymbolTable
0
LTYPE
5
14
100
AcDbSymbolTableRecord
100
AcDbLinetypeTableRecord
2
BYBLOCK
70
0
0
LTYPE
5
15
100
AcDbSymbolTableRecord
100
AcDbLinetypeTableRecord
2
BYLAYER
70
0
0
ENDTAB
0
TABLE
2
LAYER
5
2
100
AcDbSymbolTable
70
2
0
LAYER
5
50
100
AcDbSymbolTableRecord
100
AcDbLayerTableRecord
2
0
70
0
6
CONTINUOUS
0
ENDTAB
0
TABLE
2
STYLE
5
3
100
AcDbSymbolTable
70
1
0
STYLE
5
11
100
AcDbSymbolTableRecord
100
AcDbTextStyleTableRecord
2
STANDARD
70
0
0
ENDTAB
0
TABLE
2
VIEW
5
6
100
AcDbSymbolTable
70
0
0
ENDTAB
0
TABLE
2
UCS
5
7
100
AcDbSymbolTable
70
0
0
ENDTAB
0
TABLE
2
APPID
5
9
100
AcDbSymbolTable
70
2
0
APPID
5
12
100
AcDbSymbolTableRecord
100
AcDbRegAppTableRecord
2
ACAD
70
0
0
ENDTAB
0
TABLE
2
DIMSTYLE
5
A
100
AcDbSymbolTable
70
1
0
ENDTAB
0
TABLE
2
BLOCK_RECORD
5
1
100
AcDbSymbolTable
70
1
0
BLOCK_RECORD
5
1F
100
AcDbSymbolTableRecord
100
AcDbBlockTableRecord
2
*MODEL_SPACE
0
BLOCK_RECORD
5
1B
100
AcDbSymbolTableRecord
100
AcDbBlockTableRecord
2
*PAPER_SPACE
0
ENDTAB
0
ENDSEC
0
SECTION
2
BLOCKS
0
BLOCK
5
20
100
AcDbEntity
100
AcDbBlockBegin
2
*MODEL_SPACE
0
ENDBLK
5
21
100
AcDbEntity
100
AcDbBlockEnd
0
BLOCK
5
1C
100
AcDbEntity
100
AcDbBlockBegin
2
*PAPER_SPACE
0
ENDBLK
5
1D
100
AcDbEntity
100
AcDbBlockEnd
0
ENDSEC
0
SECTION
2
ENTITIES
0
CIRCLE
5
100
100
AcDbEntity
8
0
100
AcDbCircle
10
73.10179178717361
20
285.55040304804817
30
-4.3343106881366111e-12
40
1.6000000000000014
210
3.9596681066119042e-21
220
1.5189672436521917e-14
230
1
0
CIRCLE
5
101
100
AcDbEntity
8
0
100
AcDbCircle
10
79.50273308296515
20
224.87251699752511
30
-3.4194869158454821e-12
40
1.6000000000000103
210
3.9596681331403343e-21
220
1.518967243652192e-14
230
1
0
CIRCLE
5
102
100
AcDbEntity
8
0
100
AcDbCircle
10
26.81030280366716
20
230.11369484717264
30
-3.4994229736184934e-12
40
1.6000000000000054
210
3.9596681205185598e-21
220
1.518967243652192e-14
230
1
0
CIRCLE
5
103
100
AcDbEntity
8
0
100
AcDbCircle
10
13.611524914305434
20
291.81669032916858
30
-4.4320103143036249e-12
40
1.6000000000000054
210
3.9596681205185598e-21
220
1.518967243652192e-14
230
1
0
CIRCLE
5
104
100
AcDbEntity
8
0
100
AcDbCircle
10
57.611948061499447
20
294.07788345489575
30
-4.4675374510916299e-12
40
1.3406029506123274
210
4.3990005006634559e-21
220
1.5189726200931056e-14
230
1
0
CIRCLE
5
105
100
AcDbEntity
8
0
100
AcDbCircle
10
40.186037048144499
20
284.04752474794668
30
-4.3076653355456074e-12
40
1.3406029506123274
210
4.3990005006634559e-21
220
1.5189726200931056e-14
230
1
0
CIRCLE
5
106
100
AcDbEntity
8
0
100
AcDbCircle
10
12.197708097019387
20
214.28263292263347
30
-3.2507330161024584e-12
40
1.3406029506123274
210
4.3990005006634559e-21
220
1.5189726200931056e-14
230
1
0
CIRCLE
5
107
100
AcDbEntity
8
0
100
AcDbCircle
10
51.145159125033757
20
231.79650784269307
30
-3.5083047578154947e-12
40
1.3406029506123274
210
4.3990005006634559e-21
220
1.5189726200931056e-14
230
1
0
CIRCLE
5
108
100
AcDbEntity
8
0
100
AcDbCircle
10
26.512283592721808
20
294.48905507138124
30
-4.4764192352886312e-12
40
0.70558050032229458
210
3.5519705508710542e-21
220
1.5189726198677647e-14
230
1
0
CIRCLE
5
109
100
AcDbEntity
8
0
100
AcDbCircle
10
69.088810766270129
20
224.91189157102693
30
-3.4106051316484809e-12
40
0.70558050032229458
210
3.5519705508710542e-21
220
1.5189726198677647e-14
230
1
0
CIRCLE
5
110
100
AcDbEntity
8
0
100
AcDbCircle
10
49.015097736360346
20
236.80048038054238
30
-3.5882408155885059e-12
40
1.3406029506123274
210
4.3990005006634559e-21
220
1.5189726200931056e-14
230
1
0
CIRCLE
5
111
100
AcDbEntity
8
0
100
AcDbCircle
10
43.98283088842075
20
289.0672648883322
30
-4.3876013933186186e-12
40
1.6016677357316023
210
4.3990005006819456e-21
220
1.5189726200931059e-14
230
1
0
CIRCLE
5
112
100
AcDbEntity
8
0
100
AcDbCircle
10
34.180339045760007
20
224.81902226918368
30
-3.4017233474514796e-12
40
0.70558050032229458
210
3.5519705508710542e-21
220
1.5189726198677647e-14
230
1
0
CIRCLE
5
113
100
AcDbEntity
8
0
100
AcDbCircle
10
34.209527881407553
20
213.84728431559245
30
-3.2418512319054571e-12
40
0.70558050032229458
210
3.5519705508710542e-21
220
1.5189726198677647e-14
230
1
0
CIRCLE
5
114
100
AcDbEntity
8
0
100
AcDbCircle
10
51.025869703464544
20
276.63598996171095
30
-4.2010839251815923e-12
40
1.3406029506123274
210
4.3990005006634559e-21
220
1.5189726200931056e-14
230
1
0
CIRCLE
5
115
100
AcDbEntity
8
0
100
AcDbCircle
10
80.600325156166477
20
248.80886128993527
30
-3.7747582837255322e-12
40
0.70558050032229458
210
3.5519705508710542e-21
220
1.5189726198677647e-14
230
1
0
CIRCLE
5
116
100
AcDbEntity
8
0
100
AcDbCircle
10
61.420755313231929
20
294.58192437322441
30
-4.4675374510916299e-12
40
0.70558050032229458
210
3.5519705508710542e-21
220
1.5189726198677647e-14
230
1
0
CIRCLE
5
117
100
AcDbEntity
8
0
100
AcDbCircle
10
72.397952770573681
20
236.86268732673912
30
-3.5882408155885059e-12
40
1.6016677357316023
210
4.3990005006819456e-21
220
1.5189726200931059e-14
230
1
0
CIRCLE
5
118
100
AcDbEntity
8
0
100
AcDbCircle
10
28.2680313072456
20
219.33502513993795
30
-3.3217872896784684e-12
40
1.3406029506123274
210
4.3990005006634559e-21
220
1.5189726200931056e-14
230
1
0
CIRCLE
5
119
100
AcDbEntity
8
0
100
AcDbCircle
10
69.103358256705405
20
219.44366204431745
30
-3.3306690738754696e-12
40
1.6016677357316023
210
4.3990005006819456e-21
220
1.5189726200931059e-14
230
1
0
CIRCLE
5
120
100
AcDbEntity
8
0
100
AcDbCircle
10
55.508447574717522
20
289.09792724397869
30
-4.3876013933186186e-12
40
1.3406029506123274
210
4.3990005006634559e-21
220
1.5189726200931056e-14
230
1
0
CIRCLE
5
121
100
AcDbEntity
8
0
100
AcDbCircle
10
72.305224250895975
20
271.71824069699056
30
-4.1211478674085811e-12
40
1.6016677357316023
210
4.3990005006819456e-21
220
1.5189726200931059e-14
230
1
0
CIRCLE
5
122
100
AcDbEntity
8
0
100
AcDbCircle
10
33.573397788218095
20
276.58956000352822
30
-4.2010839251815923e-12
40
1.3406029506123274
210
4.3990005006634559e-21
220
1.5189726200931056e-14
230
1
0
CIRCLE
5
123
100
AcDbEntity
8
0
100
AcDbCircle
10
37.489481050063574
20
236.7698180248959
30
-3.5971225997855072e-12
40
1.6016677357316023
210
4.3990005006819456e-21
220
1.5189726200931059e-14
230
1
0
CIRCLE
5
124
100
AcDbEntity
8
0
100
AcDbCircle
10
43.997472233633019
20
283.56375646145034
30
-4.3076653355456074e-12
40
0.70558050032229458
210
3.5519705508710542e-21
220
1.5189726198677647e-14
230
1
0
CIRCLE
5
125
100
AcDbEntity
8
0
100
AcDbCircle
10
31.562625821113897
20
236.75405042235957
30
-3.5971225997855072e-12
40
1.3406029506123274
210
4.3990005006634559e-21
220
1.5189726200931056e-14
230
1
0
CIRCLE
5
126
100
AcDbEntity
8
0
100
AcDbCircle
10
76.788889970677928
20
249.29262957643152
30
-3.7836400679225335e-12
40
1.3406029506123274
210
4.3990005006634559e-21
220
1.5189726200931056e-14
230
1
0
CIRCLE
5
127
100
AcDbEntity
8
0
100
AcDbCircle
10
15.994501937295642
20
219.30237306301899
30
-3.3306690738754696e-12
40
1.6016677357316023
210
4.3990005006819456e-21
220
1.5189726200931059e-14
230
1
0
CIRCLE
5
128
100
AcDbEntity
8
0
100
AcDbCircle
10
51.650886341458957
20
219.39723208613469
30
-3.3306690738754696e-12
40
1.6016677357316023
210
4.3990005006819456e-21
220
1.5189726200931059e-14
230
1
0
CIRCLE
5
129
100
AcDbEntity
8
0
100
AcDbCircle
10
43.968283397985473
20
294.53549441504168
30
-4.4764192352886312e-12
40
0.70558050032229458
210
3.5519705508710542e-21
220
1.5189726198677647e-14
230
1
0
CIRCLE
5
130
100
AcDbEntity
8
0
100
AcDbCircle
10
72.383405280138419
20
242.33091685344863
30
-3.6681768733615172e-12
40
0.70558050032229458
210
3.5519705508710542e-21
220
1.5189726198677647e-14
230
1
0
CIRCLE
5
131
100
AcDbEntity
8
0
100
AcDbCircle
10
41.87689036015059
20
249.19975088911056
30
-3.7836400679225335e-12
40
1.3406029506123274
210
4.3990005006634559e-21
220
1.5189726200931056e-14
230
1
0
CIRCLE
5
132
100
AcDbEntity
8
0
100
AcDbCircle
10
45.68832554563911
20
248.7159826026143
30
-3.7836400679225335e-12
40
0.70558050032229458
210
3.5519705508710542e-21
220
1.5189726198677647e-14
230
1
0
CIRCLE
5
133
100
AcDbEntity
8
0
100
AcDbCircle
10
15.962825950057546
20
231.20900187117678
30
-3.5083047578154947e-12
40
0.70558050032229458
210
3.5519705508710542e-21
220
1.5189726198677647e-14
230
1
0
CIRCLE
5
134
100
AcDbEntity
8
0
100
AcDbCircle
10
45.659136709991579
20
259.68772055620559
30
-3.943512183468556e-12
40
0.70558050032229458
210
3.5519705508710542e-21
220
1.5189726198677647e-14
230
1
0
CIRCLE
5
135
100
AcDbEntity
8
0
100
AcDbCircle
10
37.50412239527585
20
231.26630959801406
30
-3.5083047578154947e-12
40
0.70558050032229458
210
3.5519705508710542e-21
220
1.5189726198677647e-14
230
1
0
CIRCLE
5
136
100
AcDbEntity
8
0
100
AcDbCircle
10
45.724031112509273
20
219.38146448359839
30
-3.3395508580724709e-12
40
1.3406029506123274
210
4.3990005006634559e-21
220
1.5189726200931056e-14
230
1
0
CIRCLE
5
137
100
AcDbEntity
8
0
100
AcDbCircle
10
10.021329375895633
20
236.69674269552232
30
-3.5882408155885059e-12
40
1.3406029506123274
210
4.3990005006634559e-21
220
1.5189726200931056e-14
230
1
0
CIRCLE
5
138
100
AcDbEntity
8
0
100
AcDbCircle
10
54.834676955197025
20
277.1400308800396
30
-4.2099657093785936e-12
40
0.70558050032229458
210
3.5519705508710542e-21
220
1.5189726198677647e-14
230
1
0
CIRCLE
5
139
100
AcDbEntity
8
0
100
AcDbCircle
10
51.118598223142264
20
241.78043659145942
30
-3.6770586575585185e-12
40
1.3406029506123274
210
4.3990005006634559e-21
220
1.5189726200931056e-14
230
1
0
CIRCLE
5
140
100
AcDbEntity
8
0
100
AcDbCircle
10
33.692687209787316
20
231.75007788451029
30
-3.5171865420124959e-12
40
1.3406029506123274
210
4.3990005006634559e-21
220
1.5189726200931056e-14
230
1
0
CIRCLE
5
141
100
AcDbEntity
8
0
100
AcDbCircle
10
59.332890165414263
20
249.24619023277106
30
-3.7836400679225335e-12
40
1.3406029506123274
210
4.3990005006634559e-21
220
1.5189726200931056e-14
230
1
0
CIRCLE
5
142
100
AcDbEntity
8
0
100
AcDbCircle
10
37.411393875598129
20
266.12186296826553
30
-4.0412118096355698e-12
40
0.70558050032229458
210
3.5519705508710542e-21
220
1.5189726198677647e-14
230
1
0
CIRCLE
5
143
100
AcDbEntity
8
0
100
AcDbCircle
10
48.922369216682625
20
271.65603375079388
30
-4.1211478674085811e-12
40
1.3406029506123274
210
4.3990005006634559e-21
220
1.5189726200931056e-14
230
1
0
CIRCLE
5
144
100
AcDbEntity
8
0
100
AcDbCircle
10
65.306564416429154
20
214.42392190393193
30
-3.2507330161024584e-12
40
1.3406029506123274
210
4.3990005006634559e-21
220
1.5189726200931056e-14
230
1
0
CIRCLE
5
145
100
AcDbEntity
8
0
100
AcDbCircle
10
12.124829862677542
20
241.67669890643938
30
-3.6681768733615172e-12
40
1.3406029506123274
210
4.3990005006634559e-21
220
1.5189726200931056e-14
230
1
0
CIRCLE
5
146
100
AcDbEntity
8
0
100
AcDbCircle
10
37.474933559628305
20
242.2380475516054
30
-3.6859404417555197e-12
40
0.70558050032229458
210
3.5519705508710542e-21
220
1.5189726198677647e-14
230
1
0
CIRCLE
5
147
100
AcDbEntity
8
0
100
AcDbCircle
10
59.306329263522777
20
259.23011898153743
30
-3.9257486150745535e-12
40
1.3406029506123274
210
4.3990005006634559e-21
220
1.5189726200931056e-14
230
1
0
CIRCLE
5
148
100
AcDbEntity
8
0
100
AcDbCircle
10
30.398092695919019
20
214.33105260208868
30
-3.2507330161024584e-12
40
1.3406029506123274
210
4.3990005006634559e-21
220
1.5189726200931056e-14
230
1
0
CIRCLE
5
149
100
AcDbEntity
8
0
100
AcDbCircle
10
22.730037242880808
20
284.00108540428613
30
-4.3076653355456074e-12
40
1.3406029506123274
210
4.3990005006634559e-21
220
1.5189726200931056e-14
230
1
0
CIRCLE
5
150
100
AcDbEntity
8
0
100
AcDbCircle
10
80.585683810954208
20
254.31236971681705
30
-3.8635761256955448e-12
40
1.6016677357316023
210
4.3990005006819456e-21
220
1.5189726200931059e-14
230
1
0
CIRCLE
5
151
100
AcDbEntity
8
0
100
AcDbCircle
10
30.371531794027518
20
224.31498135085505
30
-3.4017233474514796e-12
40
1.3406029506123274
210
4.3990005006634559e-21
220
1.5189726200931056e-14
230
1
0
CIRCLE
5
152
100
AcDbEntity
8
0
100
AcDbCircle
10
34.194886536195277
20
219.3507927424742
30
-3.3306690738754696e-12
40
1.6016677357316023
210
4.3990005006819456e-21
220
1.5189726200931059e-14
230
1
0
CIRCLE
5
153
100
AcDbEntity
8
0
100
AcDbCircle
10
47.827531599291184
20
224.36142069451557
30
-3.4017233474514796e-12
40
1.3406029506123274
210
4.3990005006634559e-21
220
1.5189726200931056e-14
230
1
0
CIRCLE
5
154
100
AcDbEntity
8
0
100
AcDbCircle
10
68.574598028405944
20
241.82687593511989
30
-3.6770586575585185e-12
40
1.3406029506123274
210
4.3990005006634559e-21
220
1.5189726200931056e-14
230
1
0
CIRCLE
5
155
100
AcDbEntity
8
0
100
AcDbCircle
10
66.378369021946298
20
271.70247309445426
30
-4.1211478674085811e-12
40
1.3406029506123274
210
4.3990005006634559e-21
220
1.5189726200931056e-14
230
1
0
CIRCLE
5
156
100
AcDbEntity
8
0
100
AcDbCircle
10
37.382205039950584
20
277.09360092185682
30
-4.2099657093785936e-12
40
0.70558050032229458
210
3.5519705508710542e-21
220
1.5189726198677647e-14
230
1
0
CIRCLE
5
157
100
AcDbEntity
8
0
100
AcDbCircle
10
57.202828776740844
20
254.25016277062028
30
-3.8635761256955448e-12
40
1.3406029506123274
210
4.3990005006634559e-21
220
1.5189726200931056e-14
230
1
0
CIRCLE
5
158
100
AcDbEntity
8
0
100
AcDbCircle
10
57.63850896339094
20
284.09395470612941
30
-4.3076653355456074e-12
40
1.3406029506123274
210
4.3990005006634559e-21
220
1.5189726200931056e-14
230
1
0
CIRCLE
5
159
100
AcDbEntity
8
0
100
AcDbCircle
10
63.14432535090279
20
248.76242194627477
30
-3.7747582837255322e-12
40
0.70558050032229458
210
3.5519705508710542e-21
220
1.5189726198677647e-14
230
1
0
CIRCLE
5
160
100
AcDbEntity
8
0
100
AcDbCircle
10
15.93363711441002
20
242.18073982476807
30
-3.6770586575585185e-12
40
0.70558050032229458
210
3.5519705508710542e-21
220
1.5189726198677647e-14
230
1
0
CIRCLE
5
161
100
AcDbEntity
8
0
100
AcDbCircle
10
22.703476340989312
20
293.98501415305259
30
-4.4675374510916299e-12
40
1.3406029506123274
210
4.3990005006634559e-21
220
1.5189726200931056e-14
230
1
0
CIRCLE
5
162
100
AcDbEntity
8
0
100
AcDbCircle
10
33.599958690109595
20
266.60563125476182
30
-4.0500935938325711e-12
40
1.3406029506123274
210
4.3990005006634559e-21
220
1.5189726200931056e-14
230
1
0
CIRCLE
5
163
100
AcDbEntity
8
0
100
AcDbCircle
10
72.319865596108244
20
266.21473227010875
30
-4.0412118096355698e-12
40
0.70558050032229458
210
3.5519705508710542e-21
220
1.5189726198677647e-14
230
1
0
CIRCLE
5
164
100
AcDbEntity
8
0
100
AcDbCircle
10
31.469897301436177
20
271.60960379261104
30
-4.1211478674085811e-12
40
1.3406029506123274
210
4.3990005006634559e-21
220
1.5189726200931056e-14
230
1
0
CIRCLE
5
165
100
AcDbEntity
8
0
100
AcDbCircle
10
54.956594310522284
20
231.31273955619685
30
-3.5083047578154947e-12
40
0.70558050032229458
210
3.5519705508710542e-21
220
1.5189726198677647e-14
230
1
0
CIRCLE
5
166
100
AcDbEntity
8
0
100
AcDbCircle
10
51.052430605356037
20
266.65206121294455
30
-4.0412118096355698e-12
40
1.3406029506123274
210
4.3990005006634559e-21
220
1.5189726200931056e-14
230
1
0
CIRCLE
5
167
100
AcDbEntity
8
0
100
AcDbCircle
10
40.159476146253006
20
294.03145349671303
30
-4.4675374510916299e-12
40
1.3406029506123274
210
4.3990005006634559e-21
220
1.5189726200931056e-14
230
1
0
CIRCLE
5
168
100
AcDbEntity
8
0
100
AcDbCircle
10
38.055975659471088
20
289.0514972857959
30
-4.3876013933186186e-12
40
1.3406029506123274
210
4.3990005006634559e-21
220
1.5189726200931056e-14
230
1
0
CIRCLE
5
169
100
AcDbEntity
8
0
100
AcDbCircle
10
47.854092501182691
20
214.37749194574917
30
-3.2596148002994596e-12
40
1.3406029506123274
210
4.3990005006634559e-21
220
1.5189726200931056e-14
230
1
0
CIRCLE
5
170
100
AcDbEntity
8
0
100
AcDbCircle
10
37.396752530385854
20
271.62537139514734
30
-4.1211478674085811e-12
40
1.6016677357316023
210
4.3990005006819456e-21
220
1.5189726200931059e-14
230
1
0
CIRCLE
5
171
100
AcDbEntity
8
0
100
AcDbCircle
10
76.762329068786443
20
259.27655832519787
30
-3.9257486150745535e-12
40
1.3406029506123274
210
4.3990005006634559e-21
220
1.5189726200931056e-14
230
1
0
CIRCLE
5
172
100
AcDbEntity
8
0
100
AcDbCircle
10
41.850329458259097
20
259.18367963787693
30
-3.9346303992715548e-12
40
1.3406029506123274
210
4.3990005006634559e-21
220
1.5189726200931056e-14
230
1
0
CIRCLE
5
173
100
AcDbEntity
8
0
100
AcDbCircle
10
15.979954446860367
20
224.77060258972844
30
-3.4106051316484809e-12
40
0.70558050032229458
210
3.5519705508710542e-21
220
1.5189726198677647e-14
230
1
0
CIRCLE
5
174
100
AcDbEntity
8
0
100
AcDbCircle
10
16.00914328250791
20
213.79886463613718
30
-3.2418512319054571e-12
40
0.70558050032229458
210
3.5519705508710542e-21
220
1.5189726198677647e-14
230
1
0
CIRCLE
5
175
100
AcDbEntity
8
0
100
AcDbCircle
10
45.673684200426841
20
254.21949102949608
30
-3.8635761256955448e-12
40
1.6016677357316023
210
4.3990005006819456e-21
220
1.5189726200931059e-14
230
1
0
CIRCLE
5
176
100
AcDbEntity
8
0
100
AcDbCircle
10
68.508430410619724
20
266.69850055660504
30
-4.0412118096355698e-12
40
1.3406029506123274
210
4.3990005006634559e-21
220
1.5189726200931056e-14
230
1
0
CIRCLE
5
177
100
AcDbEntity
8
0
100
AcDbCircle
10
54.927405474874746
20
242.28447750978816
30
-3.6770586575585185e-12
40
0.70558050032229458
210
3.5519705508710542e-21
220
1.5189726198677647e-14
230
1
0
CIRCLE
5
178
100
AcDbEntity
8
0
100
AcDbCircle
10
26.54147242836935
20
283.5173171177899
30
-4.2987835513486061e-12
40
0.70558050032229458
210
3.5519705508710542e-21
220
1.5189726198677647e-14
230
1
0
CIRCLE
5
179
100
AcDbEntity
8
0
100
AcDbCircle
10
54.941952965310023
20
236.81624798307865
30
-3.5882408155885059e-12
40
1.6016677357316023
210
4.3990005006819456e-21
220
1.5189726200931059e-14
230
1
0
CIRCLE
5
180
100
AcDbEntity
8
0
100
AcDbCircle
10
68.60115893029743
20
231.84294718635357
30
-3.5083047578154947e-12
40
1.3406029506123274
210
4.3990005006634559e-21
220
1.5189726200931056e-14
230
1
0
CIRCLE
5
181
100
AcDbEntity
8
0
100
AcDbCircle
10
63.176503027755722
20
219.42789444178118
30
-3.3306690738754696e-12
40
1.3406029506123274
210
4.3990005006634559e-21
220
1.5189726200931056e-14
230
1
0
CIRCLE
5
182
100
AcDbEntity
8
0
100
AcDbCircle
10
61.44994414887946
20
283.61018641963307
30
-4.3076653355456074e-12
40
0.70558050032229458
210
3.5519705508710542e-21
220
1.5189726198677647e-14
230
1
0
CIRCLE
5
183
100
AcDbEntity
8
0
100
AcDbCircle
10
39.746828971477171
20
254.20372342695975
30
-3.8635761256955448e-12
40
1.3406029506123274
210
4.3990005006634559e-21
220
1.5189726200931056e-14
230
1
0
CIRCLE
5
184
100
AcDbEntity
8
0
100
AcDbCircle
10
68.481869508728224
20
276.68242930537144
30
-4.2010839251815923e-12
40
1.3406029506123274
210
4.3990005006634559e-21
220
1.5189726200931056e-14
230
1
0
CIRCLE
5
185
100
AcDbEntity
8
0
100
AcDbCircle
10
10.067646708345999
20
219.28660546048269
30
-3.3306690738754696e-12
40
1.3406029506123274
210
4.3990005006634559e-21
220
1.5189726200931056e-14
230
1
0
CIRCLE
5
186
100
AcDbEntity
8
0
100
AcDbCircle
10
66.471097541624019
20
236.84691972420291
30
-3.5882408155885059e-12
40
1.3406029506123274
210
4.3990005006634559e-21
220
1.5189726200931056e-14
230
1
0
CIRCLE
5
187
100
AcDbEntity
8
0
100
AcDbCircle
10
74.658828582004531
20
254.2966021142808
30
-3.8635761256955448e-12
40
1.3406029506123274
210
4.3990005006634559e-21
220
1.5189726200931056e-14
230
1
0
CIRCLE
5
188
100
AcDbEntity
8
0
100
AcDbCircle
10
51.63633885102368
20
224.8654616128442
30
-3.4194869158454821e-12
40
0.70558050032229458
210
3.5519705508710542e-21
220
1.5189726198677647e-14
230
1
0
CIRCLE
5
189
100
AcDbEntity
8
0
100
AcDbCircle
10
80.571136320518931
20
259.78059924352658
30
-3.943512183468556e-12
40
0.70558050032229458
210
3.5519705508710542e-21
220
1.5189726198677647e-14
230
1
0
CIRCLE
5
190
100
AcDbEntity
8
0
100
AcDbCircle
10
72.290676760460698
20
277.1864702237001
30
-4.2099657093785936e-12
40
0.70558050032229458
210
3.5519705508710542e-21
220
1.5189726198677647e-14
230
1
0
CIRCLE
5
191
100
AcDbEntity
8
0
100
AcDbCircle
10
54.863865790844564
20
266.16829292644832
30
-4.0412118096355698e-12
40
0.70558050032229458
210
3.5519705508710542e-21
220
1.5189726198677647e-14
230
1
0
CIRCLE
5
192
100
AcDbEntity
8
0
100
AcDbCircle
10
65.28000351453764
20
224.40785065269833
30
-3.4017233474514796e-12
40
1.3406029506123274
210
4.3990005006634559e-21
220
1.5189726200931056e-14
230
1
0
CIRCLE
5
193
100
AcDbEntity
8
0
100
AcDbCircle
10
12.151390764569021
20
231.69277015767304
30
-3.5171865420124959e-12
40
1.3406029506123274
210
4.3990005006634559e-21
220
1.5189726200931056e-14
230
1
0
CIRCLE
5
194
100
AcDbEntity
8
0
100
AcDbCircle
10
61.435302803667192
20
289.11369484651493
30
-4.3876013933186186e-12
40
1.6016677357316023
210
4.3990005006819456e-21
220
1.5189726200931059e-14
230
1
0
CIRCLE
5
195
100
AcDbEntity
8
0
100
AcDbCircle
10
63.129684005690521
20
254.26593037315655
30
-3.8635761256955448e-12
40
1.6016677357316023
210
4.3990005006819456e-21
220
1.5189726200931059e-14
230
1
0
CIRCLE
5
196
100
AcDbEntity
8
0
100
AcDbCircle
10
26.526831083157081
20
289.02082554467171
30
-4.3787196091216174e-12
40
1.6016677357316023
210
4.3990005006819456e-21
220
1.5189726200931059e-14
230
1
0
CIRCLE
5
197
100
AcDbEntity
8
0
100
AcDbCircle
10
33.666126307895816
20
241.73400663327669
30
-3.6681768733615172e-12
40
1.3406029506123274
210
4.3990005006634559e-21
220
1.5189726200931056e-14
230
1
0
CIRCLE
5
198
100
AcDbEntity
8
0
100
AcDbCircle
10
20.59997585420739
20
289.00505794213541
30
-4.3876013933186186e-12
40
1.3406029506123274
210
4.3990005006634559e-21
220
1.5189726200931056e-14
230
1
0
CIRCLE
5
199
100
AcDbEntity
8
0
100
AcDbCircle
10
12.17114719512789
20
224.26656167139984
30
-3.3928415632544784e-12
40
1.3406029506123274
210
4.3990005006634559e-21
220
1.5189726200931056e-14
230
1
0
CIRCLE
5
200
100
AcDbEntity
8
0
100
AcDbCircle
10
63.115136515255244
20
259.73415989986609
30
-3.943512183468556e-12
40
0.70558050032229458
210
3.5519705508710542e-21
220
1.5189726198677647e-14
230
1
0
CIRCLE
5
201
100
AcDbEntity
8
0
100
AcDbCircle
10
15.948184604845277
20
236.71251029805862
30
-3.5882408155885059e-12
40
1.6016677357316023
210
4.3990005006819456e-21
220
1.5189726200931059e-14
230
1
0
CIRCLE
5
202
100
AcDbEntity
8
0
100
AcDbCircle
10
54.849224445632302
20
271.67180135333018
30
-4.1211478674085811e-12
40
1.6016677357316023
210
4.3990005006819456e-21
220
1.5189726200931059e-14
230
1
0
CIRCLE
5
203
100
AcDbEntity
8
0
100
AcDbCircle
10
51.665527686671233
20
213.89372365925288
30
-3.2418512319054571e-12
40
0.70558050032229458
210
3.5519705508710542e-21
220
1.5189726198677647e-14
230
1
0
LWPOLYLINE
5
204
100
AcDbEntity
8
0
100
AcDbPolyline
90
6
70
1
43
0.0
10
94.853299384410292
20
246.08089406506753
10
94.809403505206575
20
262.58083567566132
10
74.529630341545385
20
299.45004036803198
10
5.6601705486263043
20
299.26682241737234
10
5.8996691760263218
20
209.24212215841877
10
82.794763957522491
20
209.44669123336149
0
ENDSEC
0
SECTION
2
OBJECTS
0
DICTIONARY
5
C
100
AcDbDictionary
3
ACAD_GROUP
350
D
3
ACAD_MLINESTYLE
350
17
0
DICTIONARY
5
D
100
AcDbDictionary
0
DICTIONARY
5
1A
330
C
100
AcDbDictionary
0
DICTIONARY
5
17
100
AcDbDictionary
0
ENDSEC
0
EOF
